<svg xmlns="http://www.w3.org/2000/svg" height="18" width="18" viewBox="0 0 18 18"><title>award certificate</title><g stroke-width="1.5" fill="none" stroke="#212121" class="nc-icon-wrapper"><path d="M14.5,14.5c-.822,0-1.544-.402-2-1.014v4.014c0,.202,.122,.385,.309,.462,.187,.079,.401,.035,.545-.108l1.146-1.146,1.146,1.146c.096,.096,.224,.146,.354,.146,.064,0,.13-.012,.191-.038,.187-.077,.309-.26,.309-.462v-4.014c-.456,.612-1.178,1.014-2,1.014Z" stroke="none" fill="#212121"></path><path d="M10.75,16.25H4.25c-1.105,0-2-.895-2-2V3.75c0-1.105,.895-2,2-2H12.75c1.105,0,2,.895,2,2v3.25" stroke-linecap="round" stroke-linejoin="round"></path><line x1="5.25" y1="5.75" x2="11.75" y2="5.75" stroke-linecap="round" stroke-linejoin="round"></line><line x1="5.25" y1="9" x2="8.25" y2="9" stroke-linecap="round" stroke-linejoin="round"></line><line x1="5.25" y1="12.25" x2="8.25" y2="12.25" stroke-linecap="round" stroke-linejoin="round"></line><circle cx="14.5" cy="12" r="2.5" stroke="#212121" stroke-linecap="round" stroke-linejoin="round"></circle></g></svg>