<svg xmlns="http://www.w3.org/2000/svg" height="18" width="18" viewBox="0 0 18 18"><title>bug slash</title><g stroke-width="1.5" fill="none" stroke="#212121" class="nc-icon-wrapper"><path d="M6.75,5.75v-1.25c0-1.243,1.007-2.25,2.25-2.25h0c1.243,0,2.25,1.007,2.25,2.25v1.25" stroke-linecap="round" stroke-linejoin="round" stroke="#212121"></path><line x1="9" y1="15.25" x2="9" y2="12.75" stroke-linecap="round" stroke-linejoin="round" stroke="#212121"></line><path d="M5.169,12.843c-.269-.557-.419-1.182-.419-1.843v-3.25c0-1.105,.895-2,2-2h4.5c.293,0,.572,.063,.823,.177" stroke-linecap="round" stroke-linejoin="round"></path><path d="M13.25,8.25v2.75c0,2.347-1.903,4.25-4.25,4.25h0c-.78,0-1.512-.21-2.14-.578" stroke-linecap="round" stroke-linejoin="round"></path><line x1="4.75" y1="9.75" x2="1.75" y2="9.75" stroke-linecap="round" stroke-linejoin="round"></line><path d="M4.75,7.25c-1.519,0-2.75-1.231-2.75-2.75" stroke-linecap="round" stroke-linejoin="round"></path><line x1="13.25" y1="9.75" x2="16.25" y2="9.75" stroke-linecap="round" stroke-linejoin="round"></line><path d="M13.25,12.25c1.519,0,2.75,1.231,2.75,2.75" stroke-linecap="round" stroke-linejoin="round"></path><line x1="2" y1="16" x2="16" y2="2" stroke-linecap="round" stroke-linejoin="round" stroke="#212121"></line></g></svg>