<svg xmlns="http://www.w3.org/2000/svg" height="18" width="18" viewBox="0 0 18 18"><title>bug</title><g stroke-width="1.5" fill="none" stroke="#212121" class="nc-icon-wrapper"><line x1="9" y1="15.25" x2="9" y2="10.75" stroke-linecap="round" stroke-linejoin="round" stroke="#212121"></line><path d="M6.75,5.75v-1.25c0-1.243,1.007-2.25,2.25-2.25h0c1.243,0,2.25,1.007,2.25,2.25v1.25" stroke-linecap="round" stroke-linejoin="round" stroke="#212121"></path><line x1="4.75" y1="9.75" x2="1.75" y2="9.75" stroke-linecap="round" stroke-linejoin="round"></line><path d="M4.75,7.25c-1.519,0-2.75-1.231-2.75-2.75" stroke-linecap="round" stroke-linejoin="round"></path><path d="M4.75,12.25c-1.519,0-2.75,1.231-2.75,2.75" stroke-linecap="round" stroke-linejoin="round"></path><line x1="13.25" y1="9.75" x2="16.25" y2="9.75" stroke-linecap="round" stroke-linejoin="round"></line><path d="M13.25,7.25c1.519,0,2.75-1.231,2.75-2.75" stroke-linecap="round" stroke-linejoin="round"></path><path d="M13.25,12.25c1.519,0,2.75,1.231,2.75,2.75" stroke-linecap="round" stroke-linejoin="round"></path><path d="M6.75,5.75h4.5c1.104,0,2,.896,2,2v3.25c0,2.346-1.904,4.25-4.25,4.25h0c-2.346,0-4.25-1.904-4.25-4.25v-3.25c0-1.104,.896-2,2-2Z" stroke-linecap="round" stroke-linejoin="round"></path></g></svg>