<svg xmlns="http://www.w3.org/2000/svg" height="18" width="18" viewBox="0 0 18 18"><title>facial recognition</title><g stroke-width="1.5" fill="none" stroke="#212121" class="nc-icon-wrapper"><path d="M9,6.25v2.5c0,.552-.448,1-1,1" stroke-linecap="round" stroke-linejoin="round" stroke="#212121"></path><line x1="5.75" y1="6.25" x2="5.75" y2="7.5" stroke-linecap="round" stroke-linejoin="round" stroke="#212121"></line><line x1="12.25" y1="6.25" x2="12.25" y2="7.5" stroke-linecap="round" stroke-linejoin="round" stroke="#212121"></line><path d="M11.25,12c-.627,.471-1.406,.75-2.25,.75s-1.624-.279-2.25-.75" stroke-linecap="round" stroke-linejoin="round" stroke="#212121"></path><path d="M2.75,6.75v-2c0-1.105,.895-2,2-2h2" stroke-linecap="round" stroke-linejoin="round"></path><path d="M11.25,2.75h2c1.105,0,2,.895,2,2v2" stroke-linecap="round" stroke-linejoin="round"></path><path d="M15.25,11.25v2c0,1.105-.895,2-2,2h-2" stroke-linecap="round" stroke-linejoin="round"></path><path d="M6.75,15.25h-2c-1.105,0-2-.895-2-2v-2" stroke-linecap="round" stroke-linejoin="round"></path></g></svg>