<svg xmlns="http://www.w3.org/2000/svg" height="18" width="18" viewBox="0 0 18 18"><title>gas pump</title><g stroke-width="1.5" fill="none" stroke="#212121" class="nc-icon-wrapper"><path d="M3.25,15.75V4.25c0-1.105,.895-2,2-2h4.5c1.105,0,2,.895,2,2V15.75" stroke-linecap="round" stroke-linejoin="round"></path><line x1="1.75" y1="15.75" x2="13.25" y2="15.75" stroke-linecap="round" stroke-linejoin="round"></line><line x1="3.25" y1="8.75" x2="11.75" y2="8.75" stroke-linecap="round" stroke-linejoin="round"></line><path d="M14.75,4.25l2.207,2.207c.188,.188,.293,.442,.293,.707v4.586c0,.828-.672,1.5-1.5,1.5h0c-.828,0-1.5-.672-1.5-1.5v-1" stroke-linecap="round" stroke-linejoin="round" stroke="#212121"></path><path d="M16,5.5v1.75c0,.552,.448,1,1,1h.25" stroke-linecap="round" stroke-linejoin="round" stroke="#212121"></path></g></svg>