<svg xmlns="http://www.w3.org/2000/svg" height="18" width="18" viewBox="0 0 18 18"><title>gauge 3</title><g stroke-width="1.5" fill="none" stroke="#212121" class="nc-icon-wrapper"><circle cx="9" cy="10" r="1" stroke="#212121" stroke-linecap="round" stroke-linejoin="round"></circle><line x1="9" y1="2.75" x2="9" y2="4.75" stroke-linecap="round" stroke-linejoin="round"></line><line x1="14.127" y1="4.873" x2="12.712" y2="6.288" stroke-linecap="round" stroke-linejoin="round"></line><line x1="16.25" y1="10" x2="14.25" y2="10" stroke-linecap="round" stroke-linejoin="round"></line><line x1="3.873" y1="4.873" x2="8.293" y2="9.293" stroke="#212121" stroke-linecap="round" stroke-linejoin="round"></line><line x1="1.75" y1="10" x2="3.75" y2="10" stroke-linecap="round" stroke-linejoin="round"></line><path d="M6,3.398c.914-.416,1.93-.648,3-.648,4.004,0,7.25,3.246,7.25,7.25,0,2.002-.811,3.815-2.123,5.127h0s-1.414-1.414-1.414-1.414" stroke-linecap="round" stroke-linejoin="round"></path><path d="M5.288,13.712l-1.414,1.414h0c-1.312-1.312-2.124-3.124-2.124-5.127,0-1.07,.232-2.086,.648-3" stroke-linecap="round" stroke-linejoin="round"></path></g></svg>