<svg xmlns="http://www.w3.org/2000/svg" height="18" width="18" viewBox="0 0 18 18"><title>gift</title><g stroke-width="1.5" fill="none" stroke="#212121" class="nc-icon-wrapper"><line x1="9" y1="5.25" x2="9" y2="16.25" stroke-linecap="round" stroke-linejoin="round" stroke="#212121"></line><path d="M3.75,3.5c0-.966,.784-1.75,1.75-1.75,2.589,0,3.5,3.5,3.5,3.5h-3.5c-.966,0-1.75-.784-1.75-1.75Z" stroke-linecap="round" stroke-linejoin="round" stroke="#212121"></path><path d="M12.5,5.25h-3.5s.911-3.5,3.5-3.5c.966,0,1.75,.784,1.75,1.75s-.784,1.75-1.75,1.75Z" stroke-linecap="round" stroke-linejoin="round" stroke="#212121"></path><path d="M14.25,8.25v6c0,1.105-.895,2-2,2H5.75c-1.105,0-2-.895-2-2v-6" stroke-linecap="round" stroke-linejoin="round"></path><rect x="1.75" y="5.25" width="14.5" height="3" rx="1" ry="1" stroke-linecap="round" stroke-linejoin="round"></rect></g></svg>