<svg xmlns="http://www.w3.org/2000/svg" height="18" width="18" viewBox="0 0 18 18"><title>graduation cap</title><g stroke-width="1.5" fill="none" stroke="#212121" class="nc-icon-wrapper"><path d="M9.458,2.361l6.332,3.26c.613,.316,.613,1.192,0,1.508l-6.332,3.26c-.288,.148-.629,.148-.916,0L2.21,7.129c-.613-.316-.613-1.192,0-1.508l6.332-3.26c.288-.148,.629-.148,.916,0Z" stroke-linecap="round" stroke-linejoin="round"></path><path d="M16.25,6.375c-.171,.74-.318,1.722-.281,2.875,.027,.834,.144,1.562,.281,2.156" stroke-linecap="round" stroke-linejoin="round"></path><path d="M4.25,10.75v3.25c0,1.104,2.127,2,4.75,2s4.75-.896,4.75-2v-3.25" stroke-linecap="round" stroke-linejoin="round" stroke="#212121"></path></g></svg>