<svg xmlns="http://www.w3.org/2000/svg" height="18" width="18" viewBox="0 0 18 18"><title>headset</title><g stroke-width="1.5" fill="none" stroke="#212121" class="nc-icon-wrapper"><path d="M13,13.25l-.342,1.447c-.208,.909-1.017,1.553-1.949,1.553h-1.959" stroke-linecap="round" stroke-linejoin="round" stroke="#212121"></path><path d="M3.75,7.353l-1.123,.567c-.813,.411-1.246,1.319-1.053,2.209l.335,1.545c.199,.92,1.013,1.576,1.955,1.576h1.137s-1.084-5-1.084-5c-.099-.403-.166-.817-.166-1.25,0-2.899,2.351-5.25,5.25-5.25s5.25,2.351,5.25,5.25c0,.433-.067,.847-.166,1.25l-1.084,5h1.137c.941,0,1.755-.656,1.955-1.576l.335-1.545c.193-.89-.24-1.799-1.053-2.209l-1.123-.567" stroke-linecap="round" stroke-linejoin="round"></path></g></svg>