<svg xmlns="http://www.w3.org/2000/svg" height="18" width="18" viewBox="0 0 18 18"><title>image depth</title><g stroke-width="1.5" fill="none" stroke="#212121" class="nc-icon-wrapper"><path d="M7.75,2c-.689,0-1.25,.561-1.25,1.25s.561,1.25,1.25,1.25,1.25-.561,1.25-1.25-.561-1.25-1.25-1.25Z" stroke="none" fill="#212121"></path><path d="M10.194,6.846l-4.273,5.812c-.486,.66-.014,1.592,.806,1.592H15.273c.82,0,1.291-.932,.806-1.592l-4.273-5.812c-.4-.543-1.212-.543-1.611,0Z" stroke-linecap="round" stroke-linejoin="round"></path><path d="M7.731,10.195l-2.128-2.879c-.3-.406-.906-.406-1.206,0l-2.763,3.738c-.366,.495-.012,1.196,.603,1.196h3.984" stroke-linecap="round" stroke-linejoin="round"></path></g></svg>