<svg xmlns="http://www.w3.org/2000/svg" height="18" width="18" viewBox="0 0 18 18"><title>image sparkle</title><g stroke-width="1.5" fill="none" stroke="#212121" class="nc-icon-wrapper"><path d="M4.445,15.227l5.64-5.641c.781-.781,2.047-.781,2.828,0l2.336,2.336" stroke="#212121" stroke-linecap="round" stroke-linejoin="round"></path><rect x="2.75" y="2.75" width="12.5" height="12.5" rx="2" ry="2" stroke-linecap="round" stroke-linejoin="round"></rect><path d="M9.158,6.508l-1.263-.421-.421-1.263c-.137-.408-.812-.408-.949,0l-.421,1.263-1.263,.421c-.204,.068-.342,.259-.342,.474s.138,.406,.342,.474l1.263,.421,.421,1.263c.068,.204,.26,.342,.475,.342s.406-.138,.475-.342l.421-1.263,1.263-.421c.204-.068,.342-.259,.342-.474s-.138-.406-.342-.474Z" stroke="none" fill="#212121"></path></g></svg>