<svg xmlns="http://www.w3.org/2000/svg" height="18" width="18" viewBox="0 0 18 18"><title>industry</title><g stroke-width="1.5" fill="none" stroke="#212121" class="nc-icon-wrapper"><path d="M3.431,4.75h.638c.525,0,.96,.405,.997,.929l.607,8.5c.041,.579-.417,1.071-.997,1.071h-1.852c-.58,0-1.039-.492-.997-1.071l.607-8.5c.037-.523,.473-.929,.997-.929Z" stroke-linecap="round" stroke-linejoin="round"></path><path d="M4,2.598c.306-.508,.863-.848,1.5-.848h1.75c.696,0,1.298-.407,1.579-.996" stroke-linecap="round" stroke-linejoin="round" stroke="#212121"></path><path d="M7.759,8.721l3.491-2.971v4.25l5-4.25V14.25c0,.552-.448,1-1,1H4.676" stroke-linecap="round" stroke-linejoin="round"></path><line x1="12.75" y1="12" x2="13.25" y2="12" stroke-linecap="round" stroke-linejoin="round" stroke="#212121"></line><line x1="8.75" y1="12" x2="9.25" y2="12" stroke-linecap="round" stroke-linejoin="round" stroke="#212121"></line></g></svg>