<svg xmlns="http://www.w3.org/2000/svg" height="18" width="18" viewBox="0 0 18 18"><title>layers 3</title><g stroke-width="1.5" fill="none" stroke="#212121" class="nc-icon-wrapper"><path d="M2.665,5.086L8.534,1.995c.292-.154,.64-.154,.932,0l5.87,3.091c.534,.281,.534,1.046,0,1.327l-5.87,3.091c-.292,.154-.64,.154-.932,0L2.665,6.414c-.534-.281-.534-1.046,0-1.327Z" stroke-linecap="round" stroke-linejoin="round"></path><path d="M15.736,9c0,.261-.134,.523-.401,.664l-5.87,3.091c-.292,.154-.64,.154-.932,0l-5.87-3.091c-.267-.141-.401-.402-.401-.664" stroke-linecap="round" stroke-linejoin="round" stroke="#212121"></path><path d="M15.736,12.25c0,.261-.134,.523-.401,.664l-5.87,3.091c-.292,.154-.64,.154-.932,0l-5.87-3.091c-.267-.141-.401-.402-.401-.664" stroke-linecap="round" stroke-linejoin="round" stroke="#212121"></path></g></svg>