<svg xmlns="http://www.w3.org/2000/svg" height="18" width="18" viewBox="0 0 18 18"><title>lightbulb 3</title><g stroke-width="1.5" fill="none" stroke="#212121" class="nc-icon-wrapper"><line x1="9" y1=".75" x2="9" y2="1.75" stroke-linecap="round" stroke-linejoin="round" stroke="#212121"></line><line x1="14.834" y1="3.166" x2="14.127" y2="3.873" stroke-linecap="round" stroke-linejoin="round" stroke="#212121"></line><line x1="17.25" y1="9" x2="16.25" y2="9" stroke-linecap="round" stroke-linejoin="round" stroke="#212121"></line><line x1="3.166" y1="3.166" x2="3.873" y2="3.873" stroke-linecap="round" stroke-linejoin="round" stroke="#212121"></line><line x1=".75" y1="9" x2="1.75" y2="9" stroke-linecap="round" stroke-linejoin="round" stroke="#212121"></line><path d="M13.75,9c0-2.959-2.705-5.286-5.777-4.642-1.872,.392-3.35,1.957-3.658,3.844-.381,2.339,.951,4.417,2.935,5.205v2.343c0,.552,.448,1,1,1h1.5c.552,0,1-.448,1-1v-2.343c1.755-.697,3-2.403,3-4.407Z" stroke-linecap="round" stroke-linejoin="round"></path><line x1="6.897" y1="13.25" x2="11.103" y2="13.25" stroke-linecap="round" stroke-linejoin="round"></line></g></svg>