<svg xmlns="http://www.w3.org/2000/svg" height="18" width="18" viewBox="0 0 18 18"><title>money bill coin</title><g stroke-width="1.5" fill="none" stroke="#212121" class="nc-icon-wrapper"><path d="M8.033,8.751c-.616-.341-1.033-.997-1.033-1.751,0-1.105,.895-2,2-2,.345,0,.67,.087,.953,.241" stroke-linecap="round" stroke-linejoin="round"></path><path d="M4.75,1.75c0,1.657-1.343,3-3,3" stroke-linecap="round" stroke-linejoin="round"></path><path d="M13.25,1.75c0,1.657,1.343,3,3,3" stroke-linecap="round" stroke-linejoin="round"></path><path d="M4.75,12.25c0-1.657-1.343-3-3-3" stroke-linecap="round" stroke-linejoin="round"></path><path d="M7.25,12.25H3.75c-1.105,0-2-.895-2-2V3.75c0-1.105,.895-2,2-2H14.25c1.105,0,2,.895,2,2v1" stroke-linecap="round" stroke-linejoin="round"></path><rect x="9.75" y="10.25" width="6.5" height="3" rx="1" ry="1" stroke-linecap="round" stroke-linejoin="round" stroke="#212121"></rect><rect x="10.75" y="7.25" width="6.5" height="3" rx="1" ry="1" stroke-linecap="round" stroke-linejoin="round" stroke="#212121"></rect><rect x="10.75" y="13.25" width="6.5" height="3" rx="1" ry="1" stroke-linecap="round" stroke-linejoin="round" stroke="#212121"></rect></g></svg>