<svg xmlns="http://www.w3.org/2000/svg" height="18" width="18" viewBox="0 0 18 18"><title>office 2</title><g stroke-width="1.5" fill="none" stroke="#212121" class="nc-icon-wrapper"><path d="M6.25,6.25h4.5c.552,0,1,.448,1,1v9H5.25V7.25c0-.552,.448-1,1-1Z" stroke-linecap="round" stroke-linejoin="round"></path><path d="M5.25,16.25H3.25c-.552,0-1-.448-1-1v-5.5c0-.552,.448-1,1-1h2" stroke-linecap="round" stroke-linejoin="round"></path><path d="M9.25,6.245V1.934c0-.812,.916-1.285,1.578-.816l4,2.833c.265,.187,.422,.492,.422,.816V15.25c0,.552-.448,1-1,1h-2.5" stroke-linecap="round" stroke-linejoin="round"></path><line x1="7.75" y1="8.75" x2="9.25" y2="8.75" stroke-linecap="round" stroke-linejoin="round" stroke="#212121"></line><line x1="7.75" y1="11.25" x2="9.25" y2="11.25" stroke-linecap="round" stroke-linejoin="round" stroke="#212121"></line><line x1="7.75" y1="13.75" x2="9.25" y2="13.75" stroke-linecap="round" stroke-linejoin="round" stroke="#212121"></line></g></svg>