<svg xmlns="http://www.w3.org/2000/svg" height="18" width="18" viewBox="0 0 18 18"><title>pen nib 3</title><g stroke-width="1.5" fill="none" stroke="#212121" class="nc-icon-wrapper"><line x1="10" y1="9.545" x2="5.07" y2="14.475" stroke="#212121" stroke-linecap="round" stroke-linejoin="round"></line><path d="M2.443,14.142c-1.275-1.003-1.607-1.893-1.666-2.538-.174-1.924,1.975-2.951,1.961-5.098-.009-1.377-.904-2.491-1.634-3.202" stroke="#212121" stroke-linecap="round" stroke-linejoin="round"></path><path d="M15.241,8.057l-1.592,4.496c-.117,.33-.397,.575-.74,.645l-7.157,1.481c-.528,.109-.996-.358-.886-.886l1.481-7.157c.071-.343,.316-.623,.645-.74l4.496-1.592" stroke-linecap="round" stroke-linejoin="round"></path><path d="M11.496,2.296l-.301,.301c-.391,.391-.391,1.024,0,1.414l2.169,2.169,2.169,2.169c.391,.391,1.024,.391,1.414,0l.301-.301" stroke-linecap="round" stroke-linejoin="round"></path><circle cx="10" cy="9.545" r=".75" stroke="#212121" stroke-linecap="round" stroke-linejoin="round"></circle></g></svg>