<svg xmlns="http://www.w3.org/2000/svg" height="18" width="18" viewBox="0 0 18 18"><title>pen sparkle</title><g stroke-width="1.5" fill="none" stroke="#212121" class="nc-icon-wrapper"><path d="M2.75,15.25s3.599-.568,4.546-1.515c.947-.947,7.327-7.327,7.327-7.327,.837-.837,.837-2.194,0-3.03-.837-.837-2.194-.837-3.03,0,0,0-6.38,6.38-7.327,7.327s-1.515,4.546-1.515,4.546h0Z" stroke-linecap="round" stroke-linejoin="round"></path><path d="M5.493,3.492l-.946-.315-.316-.947c-.102-.306-.609-.306-.711,0l-.316,.947-.946,.315c-.153,.051-.257,.194-.257,.356s.104,.305,.257,.356l.946,.315,.316,.947c.051,.153,.194,.256,.355,.256s.305-.104,.355-.256l.316-.947,.946-.315c.153-.051,.257-.194,.257-.356s-.104-.305-.257-.356Z" stroke="none" fill="#212121"></path><path d="M16.658,12.99l-1.263-.421-.421-1.263c-.137-.408-.812-.408-.949,0l-.421,1.263-1.263,.421c-.204,.068-.342,.259-.342,.474s.138,.406,.342,.474l1.263,.421,.421,1.263c.068,.204,.26,.342,.475,.342s.406-.138,.475-.342l.421-1.263,1.263-.421c.204-.068,.342-.259,.342-.474s-.138-.406-.342-.474Z" stroke="none" fill="#212121"></path><circle cx="7.75" cy="1.75" r=".75" stroke="none" fill="#212121"></circle></g></svg>