<svg xmlns="http://www.w3.org/2000/svg" height="18" width="18" viewBox="0 0 18 18"><title>print</title><g stroke-width="1.5" fill="none" stroke="#212121" class="nc-icon-wrapper"><path d="M5.75,5.25V2.75c0-.552,.448-1,1-1h4.5c.552,0,1,.448,1,1v2.5" stroke-linecap="round" stroke-linejoin="round" stroke="#212121"></path><path d="M5.75,13.25h-1.5c-1.105,0-2-.895-2-2V7.25c0-1.105,.895-2,2-2H13.75c1.105,0,2,.895,2,2v4c0,1.105-.895,2-2,2h-1.5" stroke-linecap="round" stroke-linejoin="round"></path><path d="M12.25,9.75v5.5c0,.552-.448,1-1,1H6.75c-.552,0-1-.448-1-1v-5.5h6.5Z" stroke-linecap="round" stroke-linejoin="round" stroke="#212121"></path></g></svg>