<svg xmlns="http://www.w3.org/2000/svg" height="18" width="18" viewBox="0 0 18 18"><title>rotation 360</title><g stroke-width="1.5" fill="none" stroke="#212121" class="nc-icon-wrapper"><circle cx="9" cy="9" r="1.75" stroke-linecap="round" stroke-linejoin="round" stroke="#212121"></circle><path d="M11.469,15.207c-.704,.816-1.553,1.293-2.469,1.293-2.428,0-4.397-3.358-4.397-7.5S6.572,1.5,9,1.5s4.397,3.358,4.397,7.5c0,1.384-.22,2.681-.603,3.793" stroke-linecap="round" stroke-linejoin="round"></path><path d="M7.966,4.645c.338-.027,.684-.041,1.034-.041,4.142,0,7.5,1.968,7.5,4.397s-3.358,4.397-7.5,4.397S1.5,11.428,1.5,9c0-1.617,1.489-3.03,3.707-3.794" stroke-linecap="round" stroke-linejoin="round"></path></g></svg>