<svg xmlns="http://www.w3.org/2000/svg" height="18" width="18" viewBox="0 0 18 18"><title>ruler pen</title><g stroke-width="1.5" fill="none" stroke="#212121" class="nc-icon-wrapper"><path d="M9.533,5.437l-3.331-3.331c-.391-.391-1.024-.391-1.414,0l-2.682,2.682c-.391,.391-.391,1.024,0,1.414l3.331,3.331" stroke-linecap="round" stroke-linejoin="round" stroke="#212121"></path><path d="M8.467,12.563l3.331,3.331c.391,.391,1.024,.391,1.414,0l2.682-2.682c.391-.391,.391-1.024,0-1.414l-1.581-1.581" stroke-linecap="round" stroke-linejoin="round" stroke="#212121"></path><line x1="3.416" y1="7.513" x2="5.184" y2="5.745" stroke-linecap="round" stroke-linejoin="round" stroke="#212121"></line><line x1="10.487" y1="14.584" x2="12.255" y2="12.816" stroke-linecap="round" stroke-linejoin="round" stroke="#212121"></line><path d="M2.25,15.75s3.599-.568,4.546-1.515c.947-.947,8.577-8.577,8.577-8.577,.837-.837,.837-2.194,0-3.03-.837-.837-2.194-.837-3.03,0,0,0-7.63,7.63-8.577,8.577s-1.515,4.546-1.515,4.546h0Z" stroke-linecap="round" stroke-linejoin="round"></path><line x1="11.121" y1="3.848" x2="14.152" y2="6.879" stroke-linecap="round" stroke-linejoin="round"></line></g></svg>