<svg xmlns="http://www.w3.org/2000/svg" height="18" width="18" viewBox="0 0 18 18"><title>satellite</title><g stroke-width="1.5" fill="none" stroke="#212121" class="nc-icon-wrapper"><path d="M7.25,13.75c-1.657,0-3-1.343-3-3" stroke-linecap="round" stroke-linejoin="round" stroke="#212121"></path><path d="M7.25,16.75c-3.314,0-6-2.686-6-6" stroke-linecap="round" stroke-linejoin="round" stroke="#212121"></path><path d="M8.043,11.043l-1.086-1.086c-.391-.391-.391-1.024,0-1.414L13.146,2.354c.622-.622,1.621-.784,2.339-.277,.915,.645,1.001,1.937,.238,2.7l-6.266,6.266c-.391,.391-1.024,.391-1.414,0Z" stroke-linecap="round" stroke-linejoin="round"></path><rect x="4.722" y=".847" width="2.5" height="4.25" rx="1" ry="1" transform="translate(12.297 .851) rotate(135)" stroke-linecap="round" stroke-linejoin="round"></rect><line x1="7.5" y1="4.45" x2="9.275" y2="6.225" stroke-linecap="round" stroke-linejoin="round"></line><rect x="13.778" y="9.903" width="2.5" height="4.25" rx="1" ry="1" transform="translate(34.159 9.906) rotate(135)" stroke-linecap="round" stroke-linejoin="round"></rect><line x1="13.55" y1="10.5" x2="11.775" y2="8.725" stroke-linecap="round" stroke-linejoin="round"></line></g></svg>