<svg xmlns="http://www.w3.org/2000/svg" height="18" width="18" viewBox="0 0 18 18"><title>scale</title><g stroke-width="1.5" fill="none" stroke="#212121" class="nc-icon-wrapper"><line x1="7.25" y1="3.75" x2="3.525" y2="3.75" stroke-linecap="round" stroke-linejoin="round" stroke="#212121"></line><line x1="10.75" y1="3.75" x2="14.475" y2="3.75" stroke-linecap="round" stroke-linejoin="round" stroke="#212121"></line><path d="M.775,9.25c-.008,.083-.025,.164-.025,.25,0,1.519,1.231,2.75,2.75,2.75s2.75-1.231,2.75-2.75c0-.086-.018-.167-.025-.25H.775Z" stroke-linecap="round" stroke-linejoin="round" stroke="#212121"></path><path d="M17.225,9.25c.008,.083,.025,.164,.025,.25,0,1.519-1.231,2.75-2.75,2.75-1.519,0-2.75-1.231-2.75-2.75,0-.086,.018-.167,.025-.25h5.45Z" stroke-linecap="round" stroke-linejoin="round" stroke="#212121"></path><polyline points="6.225 9.25 3.525 3.75 .775 9.25" stroke-linecap="round" stroke-linejoin="round" stroke="#212121"></polyline><polyline points="11.775 9.25 14.475 3.75 17.225 9.25" stroke-linecap="round" stroke-linejoin="round" stroke="#212121"></polyline><circle cx="9" cy="3.75" r="1.75" stroke-linecap="round" stroke-linejoin="round"></circle><line x1="9" y1="5.5" x2="9" y2="15.75" stroke-linecap="round" stroke-linejoin="round"></line><line x1="13.25" y1="15.75" x2="4.75" y2="15.75" stroke-linecap="round" stroke-linejoin="round"></line></g></svg>