<svg xmlns="http://www.w3.org/2000/svg" height="18" width="18" viewBox="0 0 18 18"><title>shop</title><g stroke-width="1.5" fill="none" stroke="#212121" class="nc-icon-wrapper"><line x1="3.75" y1="16.25" x2="3.75" y2="9.5" stroke-linecap="round" stroke-linejoin="round"></line><line x1="14.25" y1="9.5" x2="14.25" y2="16.25" stroke-linecap="round" stroke-linejoin="round"></line><path d="M13.668,1.75H4.331c-.359,0-.691,.193-.869,.505l-1.706,2.995c.475,1.031,1.51,1.75,2.72,1.75,.908,0,1.712-.412,2.262-1.049,.55,.637,1.354,1.049,2.262,1.049s1.711-.411,2.261-1.048c.55,.637,1.354,1.048,2.261,1.048,1.209,0,2.245-.719,2.72-1.75l-1.704-2.995c-.178-.312-.51-.505-.869-.505Z" stroke-linecap="round" stroke-linejoin="round" stroke="#212121"></path><path d="M7.25,16v-3c0-.966,.784-1.75,1.75-1.75h0c.966,0,1.75,.784,1.75,1.75v3" stroke-linecap="round" stroke-linejoin="round"></path><line x1="1.75" y1="16.25" x2="16.25" y2="16.25" stroke-linecap="round" stroke-linejoin="round"></line></g></svg>