<svg xmlns="http://www.w3.org/2000/svg" height="18" width="18" viewBox="0 0 18 18"><title>subscription 2</title><g stroke-width="1.5" fill="none" stroke="#212121" class="nc-icon-wrapper"><path d="M1.75,9c0-4.004,3.246-7.25,7.25-7.25,3.031,0,5.627,1.86,6.71,4.5" stroke-linecap="round" stroke-linejoin="round"></path><polyline points="16.12 3.305 15.712 6.25 12.768 5.843" stroke-linecap="round" stroke-linejoin="round"></polyline><path d="M16.25,9c0,4.004-3.246,7.25-7.25,7.25-3.031,0-5.627-1.86-6.71-4.5" stroke-linecap="round" stroke-linejoin="round"></path><polyline points="1.88 14.695 2.288 11.75 5.232 12.157" stroke-linecap="round" stroke-linejoin="round"></polyline><path d="M10.817,6.894c-.394-.933-1.183-1.144-1.779-1.144-.554,0-2.01,.295-1.875,1.692,.094,.981,1.019,1.346,1.827,1.49s1.981,.452,2.01,1.635c.024,1-.875,1.683-1.962,1.683-1.038,0-1.76-.404-2.038-1.317" stroke-linecap="round" stroke-linejoin="round" stroke="#212121"></path><line x1="9" y1="4.991" x2="9" y2="5.636" stroke-linecap="round" stroke-linejoin="round" stroke="#212121"></line><line x1="9" y1="12.25" x2="9" y2="12.894" stroke-linecap="round" stroke-linejoin="round" stroke="#212121"></line></g></svg>