<svg xmlns="http://www.w3.org/2000/svg" height="18" width="18" viewBox="0 0 18 18"><title>text highlight</title><g stroke-width="1.5" fill="none" stroke="#212121" class="nc-icon-wrapper"><line x1="6.545" y1="15.25" x2="14.25" y2="15.25" stroke-linecap="round" stroke-linejoin="round" stroke="#212121"></line><path d="M9.789,12.123l-4.884-2.466c-.539-.272-.716-.957-.375-1.456l3.766-5.523c.565-.829,1.658-1.111,2.554-.659l1.557,.786c.896,.452,1.318,1.499,.986,2.446l-2.208,6.309c-.2,.57-.855,.835-1.395,.562Z" stroke-linecap="round" stroke-linejoin="round"></path><path d="M10.023,12.245c-1.994,.516-2.965,1.989-3.252,2.559l-1.116-.563s-1.116-.563-1.116-.563c.288-.57,.896-2.226,.128-4.136" stroke-linecap="round" stroke-linejoin="round"></path><polyline points="6.77 14.804 6.545 15.25 3.75 15.25 4.539 13.677" stroke-linecap="round" stroke-linejoin="round"></polyline></g></svg>