<svg xmlns="http://www.w3.org/2000/svg" height="18" width="18" viewBox="0 0 18 18"><title>ufo</title><g stroke-width="1.5" fill="none" stroke="#212121" class="nc-icon-wrapper"><circle cx="14.75" cy="1.75" r=".75" stroke="none" fill="#212121"></circle><path d="M3.869,1.894l-.947-.315-.315-.947c-.103-.306-.609-.306-.712,0l-.315,.947-.947,.315c-.153,.051-.256,.194-.256,.356s.104,.305,.256,.356l.947,.315,.315,.947c.051,.153,.194,.256,.356,.256s.305-.104,.356-.256l.315-.947,.947-.315c.153-.051,.256-.194,.256-.356s-.104-.305-.256-.356Z" stroke="none" fill="#212121"></path><path d="M5.223,5.526c-.012-.115-.015-.216-.015-.334,0-1.887,1.53-3.417,3.417-3.417,1.575,0,2.901,1.066,3.297,2.516" stroke-linecap="round" stroke-linejoin="round"></path><path d="M6.865,8.894c-2.701,.164-4.701-.232-4.844-1.07-.187-1.094,2.861-2.527,6.808-3.201,3.947-.674,7.298-.334,7.485,.76,.151,.886-1.822,1.995-4.676,2.743" stroke-linecap="round" stroke-linejoin="round"></path><line x1="7.006" y1="7.689" x2="6" y2="16.25" stroke-linecap="round" stroke-linejoin="round"></line><line x1="11" y1="7" x2="16.25" y2="16.25" stroke-linecap="round" stroke-linejoin="round"></line><ellipse cx="9.002" cy="7.34" rx="2.026" ry=".316" transform="translate(-1.13 1.66) rotate(-9.918)" stroke-linecap="round" stroke-linejoin="round"></ellipse></g></svg>