<svg xmlns="http://www.w3.org/2000/svg" height="18" width="18" viewBox="0 0 18 18"><title>wand sparkle</title><g stroke-width="1.5" fill="none" stroke="#212121" class="nc-icon-wrapper"><rect x="1.168" y="7.414" width="15.653" height="3.182" rx="1" ry="1" transform="translate(-3.733 8.998) rotate(-45)" stroke-linecap="round" stroke-linejoin="round"></rect><line x1="10.387" y1="5.363" x2="12.637" y2="7.613" stroke-linecap="round" stroke-linejoin="round"></line><path d="M7.243,3.492l-.946-.315-.316-.947c-.102-.306-.609-.306-.711,0l-.316,.947-.946,.315c-.153,.051-.257,.194-.257,.356s.104,.305,.257,.356l.946,.315,.316,.947c.051,.153,.194,.256,.355,.256s.305-.104,.355-.256l.316-.947,.946-.315c.153-.051,.257-.194,.257-.356s-.104-.305-.257-.356Z" stroke="none" fill="#212121"></path><path d="M16.658,11.99l-1.263-.421-.421-1.263c-.137-.408-.812-.408-.949,0l-.421,1.263-1.263,.421c-.204,.068-.342,.259-.342,.474s.138,.406,.342,.474l1.263,.421,.421,1.263c.068,.204,.26,.342,.475,.342s.406-.138,.475-.342l.421-1.263,1.263-.421c.204-.068,.342-.259,.342-.474s-.138-.406-.342-.474Z" stroke="none" fill="#212121"></path><circle cx="9.25" cy="1.75" r=".75" stroke="none" fill="#212121"></circle></g></svg>