<svg xmlns="http://www.w3.org/2000/svg" height="18" width="18" viewBox="0 0 18 18"><title>window pointer</title><g stroke-width="1.5" fill="none" stroke="#212121" class="nc-icon-wrapper"><path d="M9.286,15.25H3.75c-1.105,0-2-.895-2-2V4.75c0-1.105,.895-2,2-2H14.25c1.105,0,2,.895,2,2v4.902" stroke-linecap="round" stroke-linejoin="round"></path><circle cx="4.25" cy="5.25" r=".75" stroke="none" fill="#212121"></circle><circle cx="6.75" cy="5.25" r=".75" stroke="none" fill="#212121"></circle><path d="M10.655,10.269l6.397,2.337c.27,.098,.262,.482-.012,.57l-2.928,.937-.937,2.928c-.087,.273-.471,.281-.57,.012l-2.337-6.397c-.088-.241,.146-.474,.386-.386Z" stroke="#212121" stroke-linecap="round" stroke-linejoin="round"></path></g></svg>