<svg xmlns="http://www.w3.org/2000/svg" height="18" width="18" viewBox="0 0 18 18"><title>accessibility</title><g fill="#212121" class="nc-icon-wrapper"><circle cx="9" cy="2.75" r="2.25" data-color="color-2"></circle><path d="M15.123,5.511c-4.033,.69-8.213,.69-12.246,0-.409-.071-.796,.204-.866,.613-.07,.408,.204,.796,.612,.866,1.28,.219,2.577,.364,3.877,.451v9.56c0,.414,.336,.75,.75,.75s.75-.336,.75-.75v-4.5h2v4.5c0,.414,.336,.75,.75,.75s.75-.336,.75-.75V7.44c1.3-.086,2.597-.231,3.877-.451,.408-.07,.683-.458,.612-.866-.069-.409-.457-.684-.866-.613Z" fill="#212121"></path></g></svg>