<svg xmlns="http://www.w3.org/2000/svg" height="18" width="18" viewBox="0 0 18 18"><title>arrow door out 3</title><g fill="#212121" class="nc-icon-wrapper"><path d="M11.75,11.5c-.414,0-.75,.336-.75,.75v2.5c0,.138-.112,.25-.25,.25H5.448l1.725-1.069c.518-.322,.827-.878,.827-1.487V5.557c0-.609-.31-1.166-.827-1.487l-1.725-1.069h5.302c.138,0,.25,.112,.25,.25v2.5c0,.414,.336,.75,.75,.75s.75-.336,.75-.75V3.25c0-.965-.785-1.75-1.75-1.75H4.25c-.965,0-1.75,.785-1.75,1.75V14.75c0,.965,.785,1.75,1.75,1.75h6.5c.965,0,1.75-.785,1.75-1.75v-2.5c0-.414-.336-.75-.75-.75Z" fill="#212121"></path><path d="M17.78,8.47l-2.75-2.75c-.293-.293-.768-.293-1.061,0s-.293,.768,0,1.061l1.47,1.47h-4.189c-.414,0-.75,.336-.75,.75s.336,.75,.75,.75h4.189l-1.47,1.47c-.293,.293-.293,.768,0,1.061,.146,.146,.338,.22,.53,.22s.384-.073,.53-.22l2.75-2.75c.293-.293,.293-.768,0-1.061Z" data-color="color-2"></path></g></svg>