<svg xmlns="http://www.w3.org/2000/svg" height="18" width="18" viewBox="0 0 18 18"><title>aspect ratio square 2</title><g fill="#212121" class="nc-icon-wrapper"><path d="M13.25,2H4.75c-1.517,0-2.75,1.233-2.75,2.75V13.25c0,1.517,1.233,2.75,2.75,2.75H13.25c1.517,0,2.75-1.233,2.75-2.75V4.75c0-1.517-1.233-2.75-2.75-2.75Zm-5,11.5h-3c-.414,0-.75-.336-.75-.75v-3c0-.414,.336-.75,.75-.75s.75,.336,.75,.75v2.25h2.25c.414,0,.75,.336,.75,.75s-.336,.75-.75,.75Zm5.25-5.25c0,.414-.336,.75-.75,.75s-.75-.336-.75-.75v-2.25h-2.25c-.414,0-.75-.336-.75-.75s.336-.75,.75-.75h3c.414,0,.75,.336,.75,.75v3Z" fill="#212121"></path></g></svg>