<svg xmlns="http://www.w3.org/2000/svg" height="18" width="18" viewBox="0 0 18 18"><title>award</title><g fill="#212121" class="nc-icon-wrapper"><path d="M12.077,13.497h-.56l-.428,.359c-.586,.492-1.328,.762-2.09,.762s-1.505-.271-2.09-.762l-.428-.359h-.56c-.321,0-.628-.058-.923-.145v3.898c0,.286,.162,.546,.419,.673,.254,.125,.561,.096,.788-.079l2.793-2.148,2.793,2.148c.134,.103,.295,.156,.457,.156,.113,0,.227-.025,.331-.077,.257-.126,.419-.387,.419-.673v-3.898c-.295,.087-.602,.145-.923,.145Z" data-color="color-2"></path><path d="M15.229,6.536l-.506-.877c-.03-.052-.041-.113-.031-.169l.177-1c.147-.837-.325-1.656-1.125-1.948l-.953-.346c-.055-.02-.102-.059-.131-.111l-.508-.877c-.425-.738-1.316-1.06-2.114-.77l-.953,.347c-.055,.02-.115,.02-.17,0l-.953-.347c-.803-.292-1.69,.032-2.114,.769l-.509,.88c-.028,.05-.075,.089-.129,.109l-.955,.347c-.799,.292-1.271,1.11-1.124,1.949l.176,.996c.011,.059,0,.12-.029,.171l-.507,.878c-.426,.736-.262,1.668,.391,2.216l.775,.651c.046,.038,.076,.091,.087,.15l.177,.998c.147,.838,.872,1.446,1.723,1.446h1.015c.059,0,.115,.021,.16,.059l.777,.652c.326,.274,.726,.411,1.125,.411s.799-.137,1.125-.41l.777-.653c.045-.038,.102-.058,.16-.058h1.015c.851,0,1.575-.608,1.723-1.445l.177-1c.011-.058,.041-.111,.085-.148l.778-.652c.651-.548,.815-1.479,.39-2.215Zm-6.229,2.188c-1.105,0-2-.896-2-2s.895-2,2-2,2,.896,2,2-.895,2-2,2Z" fill="#212121"></path></g></svg>