<svg xmlns="http://www.w3.org/2000/svg" height="18" width="18" viewBox="0 0 18 18"><title>bicycle</title><g fill="#212121" class="nc-icon-wrapper"><path d="M7.761,7.32c-.298,0-.581-.179-.697-.474l-.074-.188c-.038-.095-.131-.159-.233-.159h-1.507c-.414,0-.75-.336-.75-.75s.336-.75,.75-.75h1.507c.724,0,1.363,.435,1.628,1.108l.074,.187c.152,.385-.036,.821-.421,.973-.09,.036-.184,.053-.276,.053Z" data-color="color-2"></path><path d="M13.75,8c-.172,0-.337,.028-.503,.051l-1.596-4.551h2.349c.276,0,.5,.224,.5,.5s-.224,.5-.5,.5c-.414,0-.75,.336-.75,.75s.336,.75,.75,.75c1.103,0,2-.897,2-2s-.897-2-2-2h-3.406c-.243,0-.471,.118-.612,.316-.141,.198-.176,.452-.096,.682l1.148,3.274-4.161,2.805c-.677-.664-1.602-1.077-2.623-1.077-2.068,0-3.75,1.682-3.75,3.75s1.682,3.75,3.75,3.75,3.75-1.682,3.75-3.75c0-.507-.104-.989-.286-1.43l3.834-2.584,.284,.81c-1.092,.656-1.832,1.841-1.832,3.205,0,2.068,1.682,3.75,3.75,3.75s3.75-1.682,3.75-3.75-1.682-3.75-3.75-3.75Zm-7.25,3.75c0,1.241-1.009,2.25-2.25,2.25s-2.25-1.009-2.25-2.25,1.009-2.25,2.25-2.25c.5,0,.958,.17,1.332,.447l-1.752,1.181c-.343,.232-.434,.698-.203,1.042,.145,.215,.382,.331,.623,.331,.145,0,.29-.042,.419-.128l1.752-1.181c.046,.18,.079,.365,.079,.559Zm7.25,2.25c-1.241,0-2.25-1.009-2.25-2.25,0-.706,.334-1.33,.844-1.743l.698,1.991c.108,.309,.398,.502,.708,.502,.083,0,.166-.014,.248-.042,.391-.137,.597-.565,.459-.956l-.702-2.001c1.238,.003,2.244,1.011,2.244,2.25s-1.009,2.25-2.25,2.25Z" fill="#212121"></path></g></svg>