<svg xmlns="http://www.w3.org/2000/svg" height="18" width="18" viewBox="0 0 18 18"><title>bolt slash</title><g fill="#212121" class="nc-icon-wrapper"><path d="M4.178,11h2.822l4-4h-1.147l.752-5.83c.061-.464-.204-.902-.643-1.065-.438-.164-.926-.004-1.184,.387L3.134,9.063c-.253,.384-.274,.875-.056,1.28s.64,.657,1.1,.657Z" fill="#212121"></path><path d="M14.139,7.043l-6.293,6.293-.451,3.494c-.061,.464,.204,.902,.643,1.065,.115,.043,.234,.064,.352,.064,.328,0,.642-.162,.832-.45h0s5.645-8.572,5.645-8.572c.253-.384,.274-.875,.056-1.28-.167-.31-.453-.527-.784-.614Z" fill="#212121"></path><path d="M2,16.75c-.192,0-.384-.073-.53-.22-.293-.293-.293-.768,0-1.061L15.47,1.47c.293-.293,.768-.293,1.061,0s.293,.768,0,1.061L2.53,16.53c-.146,.146-.338,.22-.53,.22Z" data-color="color-2"></path></g></svg>