<svg xmlns="http://www.w3.org/2000/svg" height="18" width="18" viewBox="0 0 18 18"><title>bookmarks</title><g fill="#212121" class="nc-icon-wrapper"><path d="M10.25,4H4.75c-1.517,0-2.75,1.233-2.75,2.75v9.5c0,.283,.159,.542,.412,.669,.252,.128,.555,.102,.783-.065l4.305-3.172,4.305,3.172c.132,.097,.288,.146,.445,.146,.115,0,.231-.026,.338-.081,.253-.127,.412-.387,.412-.669V6.75c0-1.517-1.233-2.75-2.75-2.75Z" fill="#212121"></path><path d="M13.25,1H7.75c-.466,0-.927,.119-1.332,.344-.362,.201-.493,.657-.293,1.02,.202,.363,.658,.493,1.02,.292,.188-.104,.391-.156,.605-.156h5.5c.689,0,1.25,.561,1.25,1.25V13.25c0,.414,.336,.75,.75,.75s.75-.336,.75-.75V3.75c0-1.517-1.233-2.75-2.75-2.75Z" data-color="color-2"></path></g></svg>