<svg xmlns="http://www.w3.org/2000/svg" height="18" width="18" viewBox="0 0 18 18"><title>bug</title><g fill="#212121" class="nc-icon-wrapper"><path d="M14,10.5h2.25c.414,0,.75-.336,.75-.75s-.336-.75-.75-.75h-2.25v-1.085c1.57-.345,2.75-1.743,2.75-3.415,0-.414-.336-.75-.75-.75s-.75,.336-.75,.75c0,.962-.683,1.766-1.588,1.956-.348-.647-.942-1.134-1.662-1.339v-.617c0-1.654-1.346-3-3-3s-3,1.346-3,3v.617c-.72,.206-1.313,.692-1.662,1.339-.906-.19-1.588-.995-1.588-1.956,0-.414-.336-.75-.75-.75s-.75,.336-.75,.75c0,1.672,1.18,3.07,2.75,3.415v1.085H1.75c-.414,0-.75,.336-.75,.75s.336,.75,.75,.75h2.25v.5c0,.195,.031,.382,.052,.571-1.597,.324-2.802,1.739-2.802,3.429,0,.414,.336,.75,.75,.75s.75-.336,.75-.75c0-1.001,.742-1.825,1.703-1.97,.685,1.516,2.096,2.635,3.797,2.894v-5.174c0-.414,.336-.75,.75-.75s.75,.336,.75,.75v5.174c1.702-.259,3.112-1.378,3.797-2.894,.961,.145,1.703,.969,1.703,1.97,0,.414,.336,.75,.75,.75s.75-.336,.75-.75c0-1.691-1.206-3.105-2.802-3.429,.022-.189,.052-.375,.052-.571v-.5ZM7.5,5v-.5c0-.827,.673-1.5,1.5-1.5s1.5,.673,1.5,1.5v.5h-3Z" fill="#212121"></path></g></svg>