<svg xmlns="http://www.w3.org/2000/svg" height="18" width="18" viewBox="0 0 18 18"><title>camera 2</title><g fill="#212121" class="nc-icon-wrapper"><path d="M6.75,2h-2.5c-.414,0-.75-.336-.75-.75s.336-.75,.75-.75h2.5c.414,0,.75,.336,.75,.75s-.336,.75-.75,.75Z" data-color="color-2"></path><path d="M14.25,3H3.75c-1.517,0-2.75,1.233-2.75,2.75v6.5c0,1.517,1.233,2.75,2.75,2.75H14.25c1.517,0,2.75-1.233,2.75-2.75V5.75c0-1.517-1.233-2.75-2.75-2.75ZM4.25,7c-.414,0-.75-.336-.75-.75s.336-.75,.75-.75,.75,.336,.75,.75-.336,.75-.75,.75Zm5.75,5c-1.657,0-3-1.343-3-3s1.343-3,3-3,3,1.343,3,3-1.343,3-3,3Z" fill="#212121"></path></g></svg>