<svg xmlns="http://www.w3.org/2000/svg" height="18" width="18" viewBox="0 0 18 18"><title>chart bar trend up</title><g fill="#212121" class="nc-icon-wrapper"><rect x="12.5" y="2" width="4" height="14" rx="1.75" ry="1.75" fill="#212121"></rect><rect x="7" y="7" width="4" height="9" rx="1.75" ry="1.75" fill="#212121"></rect><rect x="1.5" y="11" width="4" height="5" rx="1.75" ry="1.75" fill="#212121"></rect><path d="M2.75,9.5c.192,0,.384-.073,.53-.22l4.72-4.72v.689c0,.414,.336,.75,.75,.75s.75-.336,.75-.75V2.75c0-.414-.336-.75-.75-.75h-2.5c-.414,0-.75,.336-.75,.75s.336,.75,.75,.75h.689L2.22,8.22c-.293,.293-.293,.768,0,1.061,.146,.146,.338,.22,.53,.22Z" data-color="color-2"></path></g></svg>