<svg xmlns="http://www.w3.org/2000/svg" height="18" width="18" viewBox="0 0 18 18"><title>clipboard</title><g fill="#212121" class="nc-icon-wrapper"><path d="M12.75,2h-.275c-.123-.846-.845-1.5-1.725-1.5h-3.5c-.879,0-1.602,.654-1.725,1.5h-.275c-1.517,0-2.75,1.233-2.75,2.75V14.25c0,1.517,1.233,2.75,2.75,2.75h7.5c1.517,0,2.75-1.233,2.75-2.75V4.75c0-1.517-1.233-2.75-2.75-2.75Zm-5.75,.25c0-.138,.112-.25,.25-.25h3.5c.138,0,.25,.112,.25,.25v1c0,.138-.112,.25-.25,.25h-3.5c-.138,0-.25-.112-.25-.25v-1Z" fill="#212121"></path></g></svg>