<svg xmlns="http://www.w3.org/2000/svg" height="18" width="18" viewBox="0 0 18 18"><title>crosshairs</title><g fill="#212121" class="nc-icon-wrapper"><circle cx="9" cy="9" r="3" data-color="color-2"></circle><path d="M17,8.25h-.789c-.351-3.4-3.061-6.11-6.461-6.461v-.789c0-.414-.336-.75-.75-.75s-.75,.336-.75,.75v.789c-3.4,.351-6.11,3.061-6.461,6.461h-.789c-.414,0-.75,.336-.75,.75s.336,.75,.75,.75h.789c.351,3.4,3.061,6.11,6.461,6.461v.789c0,.414,.336,.75,.75,.75s.75-.336,.75-.75v-.789c3.4-.351,6.11-3.061,6.461-6.461h.789c.414,0,.75-.336,.75-.75s-.336-.75-.75-.75Zm-8,6.5c-3.17,0-5.75-2.58-5.75-5.75S5.83,3.25,9,3.25s5.75,2.58,5.75,5.75-2.58,5.75-5.75,5.75Z" fill="#212121"></path></g></svg>