<svg xmlns="http://www.w3.org/2000/svg" height="18" width="18" viewBox="0 0 18 18"><title>cryptography</title><g fill="#212121" class="nc-icon-wrapper"><path d="M16.25,5.75c-.414,0-.75,.336-.75,.75v5.381c0,.066-.026,.13-.073,.177l-3.369,3.369c-.047,.047-.11,.073-.177,.073H5.75c-.414,0-.75,.336-.75,.75s.336,.75,.75,.75h6.131c.468,0,.907-.182,1.237-.513l3.369-3.369c.331-.331,.513-.77,.513-1.237V6.5c0-.414-.336-.75-.75-.75Z" fill="#212121"></path><path d="M6.75,9.5c-.414,0-.75,.336-.75,.75v2.336c0,.467,.182,.907,.513,1.237l.707,.707c.146,.146,.338,.22,.53,.22s.384-.073,.53-.22c.293-.293,.293-.768,0-1.061l-.707-.707c-.047-.047-.073-.111-.073-.177v-2.336c0-.414-.336-.75-.75-.75Z" fill="#212121"></path><path d="M5,9.437c0-.069,.029-.137,.08-.184l1.305-1.208c.263,.127,.554,.205,.865,.205,1.103,0,2-.897,2-2s-.897-2-2-2-2,.897-2,2c0,.241,.05,.469,.128,.683l-1.317,1.22c-.356,.331-.561,.798-.561,1.284v3.176c0,.055-.019,.11-.052,.153l-.792,1.025c-.253,.328-.192,.799,.136,1.052,.136,.105,.297,.156,.457,.156,.225,0,.447-.1,.595-.292l.793-1.027c.234-.305,.363-.684,.363-1.068v-3.176Z" data-color="color-2"></path><path d="M11.25,8.5c.414,0,.75-.336,.75-.75v-2.336c0-.467-.182-.907-.513-1.237l-.707-.707c-.293-.293-.768-.293-1.061,0s-.293,.768,0,1.061l.707,.707c.047,.047,.073,.111,.073,.177v2.336c0,.414,.336,.75,.75,.75Z" fill="#212121"></path><path d="M13,8.563c0,.069-.029,.137-.08,.184l-1.305,1.208c-.263-.127-.554-.205-.865-.205-1.103,0-2,.897-2,2s.897,2,2,2,2-.897,2-2c0-.241-.05-.469-.128-.683l1.317-1.22c.356-.331,.561-.798,.561-1.284v-3.176c0-.055,.019-.11,.052-.153l.792-1.025c.253-.328,.192-.799-.136-1.052-.326-.253-.799-.193-1.052,.135l-.793,1.027c-.234,.305-.363,.684-.363,1.068v3.176Z" data-color="color-2"></path><path d="M5.942,2.573c.047-.047,.11-.073,.177-.073h6.131c.414,0,.75-.336,.75-.75s-.336-.75-.75-.75H6.119c-.468,0-.907,.182-1.237,.513L1.513,4.881c-.331,.331-.513,.77-.513,1.237v5.381c0,.414,.336,.75,.75,.75s.75-.336,.75-.75V6.119c0-.066,.026-.13,.073-.177l3.369-3.369Z" fill="#212121"></path></g></svg>