<svg xmlns="http://www.w3.org/2000/svg" height="18" width="18" viewBox="0 0 18 18"><title>descending sorting</title><g fill="#212121" class="nc-icon-wrapper"><path d="M14.72,12.22l-1.22,1.22V6.25c0-.414-.336-.75-.75-.75s-.75,.336-.75,.75v7.189l-1.22-1.22c-.293-.293-.768-.293-1.061,0s-.293,.768,0,1.061l2.5,2.5c.146,.146,.338,.22,.53,.22s.384-.073,.53-.22l2.5-2.5c.293-.293,.293-.768,0-1.061s-.768-.293-1.061,0Z" data-color="color-2"></path><path d="M10,9.75c0-.414-.336-.75-.75-.75H2.75c-.414,0-.75,.336-.75,.75s.336,.75,.75,.75h6.5c.414,0,.75-.336,.75-.75Z" fill="#212121"></path><path d="M2.75,7h6.5c.414,0,.75-.336,.75-.75s-.336-.75-.75-.75H2.75c-.414,0-.75,.336-.75,.75s.336,.75,.75,.75Z" fill="#212121"></path><path d="M2.75,3.5H12.75c.414,0,.75-.336,.75-.75s-.336-.75-.75-.75H2.75c-.414,0-.75,.336-.75,.75s.336,.75,.75,.75Z" fill="#212121"></path></g></svg>