<svg xmlns="http://www.w3.org/2000/svg" height="18" width="18" viewBox="0 0 18 18"><title>draw compass</title><g fill="#212121" class="nc-icon-wrapper"><path d="M15.25,17c-.266,0-.523-.142-.66-.392l-1.766-3.25c-.198-.364-.063-.819,.301-1.017,.364-.195,.819-.063,1.017,.301l1.766,3.25c.198,.364,.063,.819-.301,1.017-.114,.062-.236,.091-.357,.091Z" fill="#212121"></path><path d="M13.002,10.543l-2.207-4.061c.434-.45,.705-1.059,.705-1.732,0-1.115-.739-2.052-1.75-2.372v-.878c0-.414-.336-.75-.75-.75s-.75,.336-.75,.75v.878c-1.011,.321-1.75,1.257-1.75,2.372,0,.673,.27,1.283,.705,1.733L2.091,15.892c-.198,.364-.063,.819,.301,1.017,.114,.062,.236,.091,.357,.091,.266,0,.523-.142,.66-.392L8.521,7.202c.155,.03,.315,.048,.479,.048s.323-.018,.478-.048l2.206,4.058c.136,.25,.394,.392,.66,.392,.121,0,.244-.029,.358-.091,.364-.198,.499-.653,.301-1.018Z" fill="#212121"></path><path d="M9,12.5c-2.1,0-4.066-.826-5.536-2.327-.29-.296-.285-.771,.011-1.061,.297-.29,.771-.285,1.061,.011,1.186,1.21,2.771,1.876,4.465,1.876s3.279-.667,4.465-1.876c.29-.296,.765-.301,1.061-.011,.296,.29,.301,.765,.011,1.061-1.47,1.5-3.436,2.327-5.536,2.327Z" data-color="color-2"></path></g></svg>