<svg xmlns="http://www.w3.org/2000/svg" height="18" width="18" viewBox="0 0 18 18"><title>envelope open</title><g fill="#212121" class="nc-icon-wrapper"><path d="M15.578,3.381L9.846,.218c-.529-.292-1.162-.292-1.691,0L2.422,3.381c-.891,.491-1.422,1.376-1.422,2.369,0,0,0,.001,0,.002s0,.001,0,.002v7.496c0,1.517,1.233,2.75,2.75,2.75H14.25c1.517,0,2.75-1.233,2.75-2.75V5.75c0-.993-.531-1.878-1.422-2.369ZM3.146,4.694L8.879,1.531c.076-.042,.166-.042,.242,0l5.732,3.163c.27,.149,.455,.371,.557,.628l-6.303,3.042c-.068,.033-.147,.033-.216,0L2.59,5.323c.101-.258,.286-.479,.557-.628Z" fill="#212121"></path></g></svg>