<svg xmlns="http://www.w3.org/2000/svg" height="18" width="18" viewBox="0 0 18 18"><title>eye closed</title><g fill="#212121" class="nc-icon-wrapper"><path d="M16.666,6.734c-.295-.29-.77-.285-1.061,.011-1.754,1.789-4.1,2.774-6.605,2.774s-4.851-.985-6.605-2.774c-.29-.295-.765-.3-1.061-.011-.296,.29-.301,.765-.011,1.061,.515,.525,1.074,.99,1.669,1.393l-.881,1.441c-.216,.353-.105,.815,.249,1.031,.122,.075,.257,.11,.391,.11,.252,0,.499-.127,.64-.359l.906-1.482c.678,.331,1.388,.588,2.124,.769l-.333,1.655c-.082,.406,.182,.802,.587,.883,.05,.01,.1,.015,.149,.015,.35,0,.663-.246,.734-.602l.339-1.685c.364,.037,.732,.057,1.103,.057s.739-.02,1.103-.057l.339,1.685c.072,.356,.385,.602,.734,.602,.049,0,.099-.005,.149-.015,.406-.082,.669-.477,.587-.883l-.333-1.655c.736-.181,1.446-.438,2.124-.769l.906,1.482c.141,.231,.388,.359,.64,.359,.134,0,.269-.036,.391-.11,.354-.216,.465-.678,.249-1.031l-.881-1.441c.594-.403,1.154-.867,1.669-1.393,.29-.295,.285-.771-.011-1.061Z" fill="#212121"></path></g></svg>