<svg xmlns="http://www.w3.org/2000/svg" height="18" width="18" viewBox="0 0 18 18"><title>facial recognition</title><g fill="#212121" class="nc-icon-wrapper"><path d="M8,10.5c-.414,0-.75-.336-.75-.75s.336-.75,.75-.75c.138,0,.25-.112,.25-.25v-2.5c0-.414,.336-.75,.75-.75s.75,.336,.75,.75v2.5c0,.965-.785,1.75-1.75,1.75Z" data-color="color-2"></path><path d="M5.75,8.25c-.414,0-.75-.336-.75-.75v-1.25c0-.414,.336-.75,.75-.75s.75,.336,.75,.75v1.25c0,.414-.336,.75-.75,.75Z" data-color="color-2"></path><path d="M12.25,8.25c-.414,0-.75-.336-.75-.75v-1.25c0-.414,.336-.75,.75-.75s.75,.336,.75,.75v1.25c0,.414-.336,.75-.75,.75Z" data-color="color-2"></path><path d="M9,13.5c-.983,0-1.917-.312-2.7-.9-.331-.249-.398-.719-.149-1.05,.248-.33,.718-.399,1.05-.149,1.045,.784,2.555,.784,3.6,0,.332-.25,.802-.181,1.05,.149,.249,.331,.182,.801-.149,1.05-.783,.589-1.717,.9-2.7,.9Z" data-color="color-2"></path><path d="M2.75,7.5c-.414,0-.75-.336-.75-.75v-2c0-1.517,1.233-2.75,2.75-2.75h2c.414,0,.75,.336,.75,.75s-.336,.75-.75,.75h-2c-.689,0-1.25,.561-1.25,1.25v2c0,.414-.336,.75-.75,.75Z" fill="#212121"></path><path d="M15.25,7.5c-.414,0-.75-.336-.75-.75v-2c0-.689-.561-1.25-1.25-1.25h-2c-.414,0-.75-.336-.75-.75s.336-.75,.75-.75h2c1.517,0,2.75,1.233,2.75,2.75v2c0,.414-.336,.75-.75,.75Z" fill="#212121"></path><path d="M13.25,16h-2c-.414,0-.75-.336-.75-.75s.336-.75,.75-.75h2c.689,0,1.25-.561,1.25-1.25v-2c0-.414,.336-.75,.75-.75s.75,.336,.75,.75v2c0,1.517-1.233,2.75-2.75,2.75Z" fill="#212121"></path><path d="M6.75,16h-2c-1.517,0-2.75-1.233-2.75-2.75v-2c0-.414,.336-.75,.75-.75s.75,.336,.75,.75v2c0,.689,.561,1.25,1.25,1.25h2c.414,0,.75,.336,.75,.75s-.336,.75-.75,.75Z" fill="#212121"></path></g></svg>