<svg xmlns="http://www.w3.org/2000/svg" height="18" width="18" viewBox="0 0 18 18"><title>filters</title><g fill="#212121" class="nc-icon-wrapper"><path d="M11.75,6c-2.337,0-4.348,1.567-5.01,3.722-.899-.686-1.49-1.757-1.49-2.972,0-2.068,1.683-3.75,3.75-3.75,1.327,0,2.528,.679,3.214,1.817,.213,.354,.674,.468,1.029,.255,.355-.214,.47-.675,.256-1.03-.945-1.568-2.669-2.542-4.499-2.542C6.105,1.5,3.75,3.855,3.75,6.75s2.355,5.25,5.25,5.25c.316,0,.627-.037,.933-.092-.313,1.754-1.841,3.092-3.683,3.092-2.067,0-3.75-1.682-3.75-3.75,0-.734,.212-1.445,.613-2.055,.228-.346,.131-.811-.215-1.039-.347-.227-.812-.132-1.039,.214-.562,.855-.859,1.851-.859,2.879,0,2.895,2.355,5.25,5.25,5.25s5.25-2.355,5.25-5.25c0-1.275-.456-2.472-1.267-3.415,.467-.209,.978-.335,1.517-.335,2.067,0,3.75,1.682,3.75,3.75s-1.683,3.75-3.75,3.75c-.066,0-.132-.001-.197-.005-.408-.022-.768,.293-.791,.708-.022,.414,.294,.768,.707,.791,.093,.005,.188,.007,.281,.007,2.895,0,5.25-2.355,5.25-5.25s-2.355-5.25-5.25-5.25Z" fill="#212121"></path></g></svg>