<svg xmlns="http://www.w3.org/2000/svg" height="18" width="18" viewBox="0 0 18 18"><title>flag 7</title><g fill="#212121" class="nc-icon-wrapper"><path d="M14.25,5h-1.25v-.75c0-.965-.785-1.75-1.75-1.75H4v7.5h7.146c.223,0,.334,.27,.177,.427l-1.673,1.673c.302,.246,.681,.4,1.1,.4h3.5c.965,0,1.75-.785,1.75-1.75V6.75c0-.965-.785-1.75-1.75-1.75Z" fill="#212121"></path><path d="M3.75,17c-.414,0-.75-.336-.75-.75V1.75c0-.414,.336-.75,.75-.75s.75,.336,.75,.75v14.5c0,.414-.336,.75-.75,.75Z" data-color="color-2"></path></g></svg>