<svg xmlns="http://www.w3.org/2000/svg" height="18" width="18" viewBox="0 0 18 18"><title>folder</title><g fill="#212121" class="nc-icon-wrapper"><path d="M15.75,9.844c-.414,0-.75-.336-.75-.75v-2.844c0-.689-.561-1.25-1.25-1.25h-5.386c-.228,0-.443-.104-.585-.281l-.603-.752c-.238-.297-.594-.467-.975-.467h-1.951c-.689,0-1.25,.561-1.25,1.25v4c0,.414-.336,.75-.75,.75s-.75-.336-.75-.75V4.75c0-1.516,1.233-2.75,2.75-2.75h1.951c.838,0,1.62,.375,2.145,1.029l.378,.471h5.026c1.517,0,2.75,1.234,2.75,2.75v2.844c0,.414-.336,.75-.75,.75Z" data-color="color-2"></path><rect x="1.5" y="6" width="15" height="10" rx="2.75" ry="2.75" fill="#212121"></rect></g></svg>