<svg xmlns="http://www.w3.org/2000/svg" height="18" width="18" viewBox="0 0 18 18"><title>gauge 3</title><g fill="#212121" class="nc-icon-wrapper"><path d="M9,8.25c-.205,0-.399,.042-.582,.107L4.404,4.343c-.293-.293-.768-.293-1.061,0s-.293,.768,0,1.061l4.014,4.014c-.065,.183-.107,.377-.107,.582,0,.965,.785,1.75,1.75,1.75s1.75-.785,1.75-1.75-.785-1.75-1.75-1.75Z" data-color="color-2"></path><path d="M14.657,4.343c-.006-.006-.014-.008-.02-.013-1.447-1.439-3.44-2.33-5.637-2.33-1.154,0-2.268,.241-3.311,.715-.377,.171-.543,.616-.372,.993s.617,.543,.993,.372c.619-.281,1.269-.459,1.939-.536v1.205c0,.414,.336,.75,.75,.75s.75-.336,.75-.75v-1.203c1.231,.142,2.356,.63,3.28,1.363l-.848,.848c-.293,.293-.293,.768,0,1.061,.146,.146,.338,.22,.53,.22s.384-.073,.53-.22l.848-.848c.733,.924,1.22,2.049,1.363,3.28h-1.203c-.414,0-.75,.336-.75,.75s.336,.75,.75,.75h1.187c-.138,1.204-.587,2.337-1.341,3.286l-.854-.854c-.293-.293-.768-.293-1.061,0s-.293,.768,0,1.061l1.414,1.414c.146,.146,.338,.22,.53,.22s.384-.073,.53-.22c1.511-1.511,2.343-3.52,2.343-5.657,0-2.197-.891-4.189-2.33-5.637-.006-.006-.007-.014-.013-.02Z" fill="#212121"></path><path d="M4.757,13.182l-.854,.854c-.754-.948-1.203-2.082-1.341-3.286h1.187c.414,0,.75-.336,.75-.75s-.336-.75-.75-.75h-1.205c.077-.671,.254-1.321,.536-1.939,.171-.377,.005-.822-.372-.993-.376-.17-.821-.005-.993,.372-.475,1.043-.715,2.157-.715,3.311,0,2.137,.832,4.146,2.343,5.657,.146,.146,.338,.22,.53,.22s.384-.073,.53-.22l1.414-1.414c.293-.293,.293-.768,0-1.061s-.768-.293-1.061,0Z" fill="#212121"></path></g></svg>