<svg xmlns="http://www.w3.org/2000/svg" height="18" width="18" viewBox="0 0 18 18"><title>gear 2</title><g fill="#212121" class="nc-icon-wrapper"><path d="M14.5,8.25h-5.067L6.899,3.862c-.207-.359-.667-.481-1.024-.274-.359,.207-.481,.666-.274,1.024l2.534,4.388-2.534,4.389c-.207,.359-.084,.817,.274,1.024,.118,.068,.247,.101,.375,.101,.259,0,.511-.134,.65-.375l2.534-4.389h5.067c.414,0,.75-.336,.75-.75s-.336-.75-.75-.75Z" data-color="color-2"></path><path d="M16.25,8.25h-1.049c-.072-.597-.225-1.169-.453-1.702l.906-.523c.359-.207,.481-.666,.274-1.024-.207-.359-.666-.481-1.024-.274l-.913,.527c-.354-.471-.773-.889-1.243-1.243l.527-.914c.207-.359,.084-.817-.274-1.024-.358-.208-.817-.085-1.024,.274l-.523,.906c-.533-.229-1.105-.381-1.702-.453V1.75c0-.414-.336-.75-.75-.75s-.75,.336-.75,.75v1.049c-.597,.072-1.169,.225-1.702,.453l-.523-.906c-.208-.359-.667-.482-1.024-.274-.359,.207-.481,.666-.274,1.024l.527,.914c-.471,.354-.889,.772-1.243,1.243l-.913-.527c-.357-.207-.817-.085-1.024,.274-.207,.359-.084,.817,.274,1.024l.906,.523c-.228,.533-.381,1.105-.453,1.702H1.75c-.414,0-.75,.336-.75,.75s.336,.75,.75,.75h1.049c.072,.597,.225,1.169,.453,1.702l-.906,.523c-.359,.207-.481,.666-.274,1.024,.139,.241,.391,.375,.65,.375,.127,0,.256-.032,.375-.101l.913-.527c.354,.471,.773,.889,1.243,1.243l-.527,.914c-.207,.359-.084,.817,.274,1.024,.118,.068,.247,.101,.375,.101,.259,0,.511-.134,.65-.375l.523-.906c.533,.229,1.105,.381,1.702,.453v1.049c0,.414,.336,.75,.75,.75s.75-.336,.75-.75v-1.049c.597-.072,1.169-.225,1.702-.453l.523,.906c.139,.241,.391,.375,.65,.375,.127,0,.256-.032,.375-.101,.359-.207,.481-.666,.274-1.024l-.527-.914c.471-.354,.889-.772,1.243-1.243l.913,.527c.118,.068,.247,.101,.375,.101,.259,0,.511-.134,.65-.375,.207-.359,.084-.817-.274-1.024l-.906-.523c.228-.533,.381-1.105,.453-1.702h1.049c.414,0,.75-.336,.75-.75s-.336-.75-.75-.75Zm-7.25,5.5c-2.619,0-4.75-2.131-4.75-4.75s2.131-4.75,4.75-4.75,4.75,2.131,4.75,4.75-2.131,4.75-4.75,4.75Z" fill="#212121"></path></g></svg>