<svg xmlns="http://www.w3.org/2000/svg" height="18" width="18" viewBox="0 0 18 18"><title>handshake</title><g fill="#212121" class="nc-icon-wrapper"><path d="M2.744,6.887c-.272,0-.534-.148-.667-.407-.189-.369-.044-.821,.324-1.01l1.922-1.84c.422-.406,.976-.63,1.562-.63h1.458c.71,0,1.386,.341,1.808,.911l.232,.313c.246,.333,.176,.803-.157,1.049-.332,.246-.802,.177-1.049-.157l-.231-.313c-.141-.189-.366-.303-.603-.303h-1.458c-.195,0-.38,.075-.521,.21l-1.867,1.8c-.124,.119-.261,.217-.41,.293-.11,.056-.227,.083-.343,.083Z" fill="#212121"></path><path d="M15.25,12.5h-2.905c-.414,0-.75-.336-.75-.75s.336-.75,.75-.75h2.905c.414,0,.75,.336,.75,.75s-.336,.75-.75,.75Z" data-color="color-2"></path><path d="M12.878,8.842l-1.648-2.122c-.254-.328-.725-.387-1.052-.132-.327,.254-.386,.725-.132,1.052l1.648,2.122c.229,.294,.313,.672,.233,1.036s-.316,.67-.647,.842l-3.273,1.692c-.527,.274-1.178,.133-1.549-.328l-1.083-1.349c-.334-.416-.832-.654-1.364-.654h-.51V6.25c0-.965-.785-1.75-1.75-1.75s-1.75,.785-1.75,1.75v6c0,.965,.785,1.75,1.75,1.75,.879,0,1.602-.654,1.725-1.5h.535c.076,0,.147,.034,.195,.094l1.083,1.349c.535,.667,1.336,1.027,2.15,1.027,.427,0,.858-.099,1.257-.305l3.274-1.693c.728-.376,1.247-1.051,1.423-1.852,.176-.8-.011-1.63-.514-2.278Z" fill="#212121"></path><path d="M16.25,4.5c-.458,0-.871,.181-1.183,.469l-1.389-1.339c-.422-.406-.976-.63-1.562-.63h-1.807c-.603,0-1.19,.248-1.61,.679l-2.496,2.558c-.78,.8-.772,2.093,.018,2.884,.398,.397,.922,.602,1.451,.602,.41,0,.822-.123,1.178-.373l2.831-1.985c.339-.238,.421-.706,.184-1.045-.238-.339-.706-.421-1.045-.184l-2.831,1.985c-.22,.153-.517,.128-.707-.062-.212-.212-.214-.561-.005-.775l2.496-2.558c.14-.144,.335-.226,.537-.226h1.807c.195,0,.38,.075,.521,.21l1.863,1.796v5.744c0,.965,.785,1.75,1.75,1.75s1.75-.785,1.75-1.75V6.25c0-.965-.785-1.75-1.75-1.75Z" data-color="color-2"></path></g></svg>