<svg xmlns="http://www.w3.org/2000/svg" height="18" width="18" viewBox="0 0 18 18"><title>hot drink</title><g fill="#212121" class="nc-icon-wrapper"><path d="M6.771,4.986c-.1,0-.202-.02-.299-.062-.38-.166-.553-.608-.388-.987,.116-.265,.263-.511,.438-.731,.221-.278,.433-.446,.603-.582,.14-.112,.251-.2,.373-.348,.311-.379,.48-.901,.502-1.551,.015-.414,.374-.742,.775-.724,.414,.014,.738,.362,.724,.775-.034,.986-.317,1.81-.841,2.45-.222,.271-.431,.438-.598,.571-.145,.115-.249,.198-.364,.343-.094,.118-.173,.251-.237,.397-.123,.282-.399,.45-.688,.45Z" data-color="color-2"></path><path d="M10.712,4.98c-.234,0-.464-.104-.608-.304-.242-.335-.184-.792,.152-1.034,.123-.088,.181-.13,.244-.198,.157-.172,.239-.409,.251-.723,.016-.414,.379-.741,.778-.721,.414,.016,.737,.365,.721,.778-.026,.672-.242,1.236-.642,1.676-.169,.185-.32,.293-.441,.38-.136,.097-.296,.145-.454,.145Z" data-color="color-2"></path><path d="M15.25,16H2.75c-.414,0-.75-.336-.75-.75s.336-.75,.75-.75H15.25c.414,0,.75,.336,.75,.75s-.336,.75-.75,.75Z" fill="#212121"></path><path d="M15.25,6H3.75c-.414,0-.75,.336-.75,.75v3.5c0,3.17,2.58,5.75,5.75,5.75h.5c2.741,0,5.036-1.929,5.609-4.5h.391c1.517,0,2.75-1.233,2.75-2.75s-1.233-2.75-2.75-2.75Zm0,4h-.25v-2.5h.25c.689,0,1.25,.561,1.25,1.25s-.561,1.25-1.25,1.25Z" fill="#212121"></path></g></svg>