<svg xmlns="http://www.w3.org/2000/svg" height="18" width="18" viewBox="0 0 18 18"><title>image</title><g fill="#212121" class="nc-icon-wrapper"><path d="M13.194,8.384c-1.072-1.072-2.816-1.072-3.889,0L3.196,14.494c.367,.457,.923,.756,1.554,.756H13.25c1.105,0,2-.896,2-2v-2.811l-2.056-2.056Z" data-color="color-2"></path><circle cx="6.25" cy="7.25" r="1.25" data-color="color-2"></circle><path d="M13.25,16H4.75c-1.517,0-2.75-1.233-2.75-2.75V4.75c0-1.517,1.233-2.75,2.75-2.75H13.25c1.517,0,2.75,1.233,2.75,2.75V13.25c0,1.517-1.233,2.75-2.75,2.75ZM4.75,3.5c-.689,0-1.25,.561-1.25,1.25V13.25c0,.689,.561,1.25,1.25,1.25H13.25c.689,0,1.25-.561,1.25-1.25V4.75c0-.689-.561-1.25-1.25-1.25H4.75Z" fill="#212121"></path></g></svg>