<svg xmlns="http://www.w3.org/2000/svg" height="18" width="18" viewBox="0 0 18 18"><title>keyboard</title><g fill="#212121" class="nc-icon-wrapper"><path d="M15.25,4H2.75c-1.517,0-2.75,1.233-2.75,2.75v4.5c0,1.517,1.233,2.75,2.75,2.75H15.25c1.517,0,2.75-1.233,2.75-2.75V6.75c0-1.517-1.233-2.75-2.75-2.75Zm-7,3.5c0-.276,.224-.5,.5-.5h.5c.276,0,.5,.224,.5,.5v.5c0,.276-.224,.5-.5,.5h-.5c-.276,0-.5-.224-.5-.5v-.5Zm-2.75,0c0-.276,.224-.5,.5-.5h.5c.276,0,.5,.224,.5,.5v.5c0,.276-.224,.5-.5,.5h-.5c-.276,0-.5-.224-.5-.5v-.5Zm-1,3c0,.276-.224,.5-.5,.5h-.5c-.276,0-.5-.224-.5-.5v-.5c0-.276,.224-.5,.5-.5h.5c.276,0,.5,.224,.5,.5v.5Zm0-2.5c0,.276-.224,.5-.5,.5h-.5c-.276,0-.5-.224-.5-.5v-.5c0-.276,.224-.5,.5-.5h.5c.276,0,.5,.224,.5,.5v.5Zm7.25,3H6.25c-.414,0-.75-.336-.75-.75s.336-.75,.75-.75h5.5c.414,0,.75,.336,.75,.75s-.336,.75-.75,.75Zm.75-3c0,.276-.224,.5-.5,.5h-.5c-.276,0-.5-.224-.5-.5v-.5c0-.276,.224-.5,.5-.5h.5c.276,0,.5,.224,.5,.5v.5Zm2.5,2.5c0,.276-.224,.5-.5,.5h-.5c-.276,0-.5-.224-.5-.5v-.5c0-.276,.224-.5,.5-.5h.5c.276,0,.5,.224,.5,.5v.5Zm0-2.5c0,.276-.224,.5-.5,.5h-.5c-.276,0-.5-.224-.5-.5v-.5c0-.276,.224-.5,.5-.5h.5c.276,0,.5,.224,.5,.5v.5Z" fill="#212121"></path></g></svg>