<svg xmlns="http://www.w3.org/2000/svg" height="18" width="18" viewBox="0 0 18 18"><title>lock</title><g fill="#212121" class="nc-icon-wrapper"><path d="M12.25,9c-.414,0-.75-.336-.75-.75v-3.25c0-1.378-1.122-2.5-2.5-2.5s-2.5,1.122-2.5,2.5v3.25c0,.414-.336,.75-.75,.75s-.75-.336-.75-.75v-3.25c0-2.206,1.794-4,4-4s4,1.794,4,4v3.25c0,.414-.336,.75-.75,.75Z" data-color="color-2"></path><path d="M12.75,7.5H5.25c-1.517,0-2.75,1.233-2.75,2.75v4c0,1.517,1.233,2.75,2.75,2.75h7.5c1.517,0,2.75-1.233,2.75-2.75v-4c0-1.517-1.233-2.75-2.75-2.75Zm-3,5.25c0,.414-.336,.75-.75,.75s-.75-.336-.75-.75v-1c0-.414,.336-.75,.75-.75s.75,.336,.75,.75v1Z" fill="#212121"></path></g></svg>