<svg xmlns="http://www.w3.org/2000/svg" height="18" width="18" viewBox="0 0 18 18"><title>microphone</title><g fill="#212121" class="nc-icon-wrapper"><path d="M9,12c2.206,0,4-1.794,4-4v-3c0-2.206-1.794-4-4-4s-4,1.794-4,4v3c0,2.206,1.794,4,4,4Z" fill="#212121"></path><path d="M15.25,7.25c-.414,0-.75,.336-.75,.75,0,3.033-2.467,5.5-5.5,5.5s-5.5-2.467-5.5-5.5c0-.414-.336-.75-.75-.75s-.75,.336-.75,.75c0,3.606,2.742,6.583,6.25,6.958v1.292c0,.414,.336,.75,.75,.75s.75-.336,.75-.75v-1.292c3.508-.376,6.25-3.352,6.25-6.958,0-.414-.336-.75-.75-.75Z" data-color="color-2"></path></g></svg>