<svg xmlns="http://www.w3.org/2000/svg" height="18" width="18" viewBox="0 0 18 18"><title>msgs</title><g fill="#212121" class="nc-icon-wrapper"><path d="M5.707,14.875c.094,.018,.191,.025,.385,.039,.403,.051,.787-.234,.842-.645s-.234-.788-.645-.842c-.067-.009-.136-.014-.204-.018-.035-.002-.069-.002-.101-.008-.605-.115-1.188-.332-1.729-.645-.244-.141-.547-.132-.783,.021-.273,.178-.763,.384-1.295,.531,.333-.887,.424-1.888,.062-2.568-.483-.836-.738-1.785-.738-2.742C1.5,4.966,3.967,2.5,6.998,2.5c1.933,0,3.689,.993,4.698,2.656,.215,.353,.675,.466,1.03,.252,.354-.215,.468-.676,.253-1.03-1.284-2.115-3.52-3.377-5.981-3.377C3.14,1,0,4.139,0,7.998c0,1.221,.325,2.428,.927,3.47,.167,.314-.065,1.605-.707,2.248-.209,.209-.276,.522-.17,.798,.105,.276,.364,.465,.659,.481,.073,.004,.146,.006,.222,.006,.992,0,2.162-.337,2.958-.738,.577,.288,1.187,.494,1.818,.613Z" data-color="color-2"></path><path d="M17.295,14.367c.461-.797,.705-1.704,.705-2.621,0-2.895-2.355-5.25-5.25-5.25s-5.251,2.355-5.251,5.25,2.355,5.25,5.251,5.25c.325,0,.651-.03,.97-.091,.438-.083,.864-.222,1.27-.414,.597,.281,1.425,.508,2.135,.508,.057,0,.112-.001,.166-.004,.296-.016,.555-.205,.66-.481,.106-.276,.039-.589-.17-.798-.376-.376-.547-1.168-.485-1.349Z" fill="#212121"></path></g></svg>