<svg xmlns="http://www.w3.org/2000/svg" height="18" width="18" viewBox="0 0 18 18"><title>paintbrush</title><g fill="#212121" class="nc-icon-wrapper"><path d="M16.314,1.935c-.914-.913-2.399-.911-3.311,0L7.945,6.995c.777,.239,1.497,.644,2.088,1.238,.597,.599,.988,1.317,1.22,2.075l5.061-5.062c.913-.912,.913-2.397,0-3.311Z" fill="#212121"></path><path d="M8.97,9.291c-.669-.671-1.554-1.041-2.494-1.041h-.006c-.936,.002-1.817,.372-2.48,1.043-.952,.962-1.119,1.933-1.252,2.712-.149,.869-.247,1.442-1.347,2.043-.266,.145-.418,.435-.387,.736,.032,.301,.241,.554,.53,.641,1.058,.318,2.185,.58,3.306,.58,1.438,0,2.867-.43,4.13-1.724,1.371-1.375,1.371-3.614,0-4.989Z" data-color="color-2"></path></g></svg>