<svg xmlns="http://www.w3.org/2000/svg" height="18" width="18" viewBox="0 0 18 18"><title>password 2</title><g fill="#212121" class="nc-icon-wrapper"><path d="M15.25,3c-.414,0-.75,.336-.75,.75V14.25c0,.414,.336,.75,.75,.75s.75-.336,.75-.75V3.75c0-.414-.336-.75-.75-.75Z" data-color="color-2"></path><path d="M6.01,7.483l-1.01,.328v-1.062c0-.414-.336-.75-.75-.75s-.75,.336-.75,.75v1.062l-1.01-.328c-.394-.126-.816,.087-.944,.481s.087,.817,.481,.945l1.009,.328-.624,.858c-.244,.335-.17,.804,.166,1.048,.133,.097,.287,.143,.439,.143,.232,0,.461-.107,.607-.309l.624-.859,.624,.859c.146,.202,.375,.309,.607,.309,.152,0,.307-.046,.439-.143,.336-.244,.41-.712,.166-1.048l-.624-.858,1.009-.328c.395-.128,.609-.551,.481-.945-.127-.394-.545-.61-.944-.481Z" fill="#212121"></path><path d="M12.26,7.483l-1.01,.328v-1.062c0-.414-.336-.75-.75-.75s-.75,.336-.75,.75v1.062l-1.01-.328c-.392-.126-.816,.087-.944,.481s.087,.817,.481,.945l1.009,.328-.624,.858c-.244,.335-.17,.804,.166,1.048,.133,.097,.287,.143,.439,.143,.232,0,.461-.107,.607-.309l.624-.859,.624,.859c.146,.202,.375,.309,.607,.309,.152,0,.307-.046,.439-.143,.336-.244,.41-.712,.166-1.048l-.624-.858,1.009-.328c.395-.128,.609-.551,.481-.945-.127-.394-.547-.61-.944-.481Z" fill="#212121"></path></g></svg>