<svg xmlns="http://www.w3.org/2000/svg" height="18" width="18" viewBox="0 0 18 18"><title>pen nib 3</title><g fill="#212121" class="nc-icon-wrapper"><path d="M2.443,14.892c-.163,0-.326-.052-.463-.161C.786,13.792,.13,12.763,.031,11.672c-.111-1.229,.504-2.146,1.047-2.956,.471-.702,.916-1.365,.911-2.205-.006-.868-.479-1.767-1.407-2.669-.297-.289-.303-.764-.015-1.061s.765-.302,1.061-.015c1.227,1.194,1.853,2.45,1.861,3.735,.009,1.303-.615,2.231-1.165,3.051-.482,.718-.862,1.285-.799,1.984,.06,.663,.525,1.342,1.382,2.016,.326,.256,.382,.728,.125,1.053-.148,.188-.368,.286-.59,.286Z" data-color="color-2"></path><path d="M10.765,3.765l-4.023,1.424c-.574,.203-1.007,.699-1.13,1.295l-1.481,7.157c-.048,.232-.035,.467,.024,.688l4.401-4.401c-.033-.123-.056-.25-.056-.384,0-.827,.673-1.5,1.5-1.5s1.5,.673,1.5,1.5-.673,1.5-1.5,1.5c-.133,0-.26-.023-.384-.056l-4.4,4.4c.125,.033,.252,.056,.382,.056,.102,0,.204-.01,.306-.031l7.156-1.481c.596-.123,1.093-.556,1.295-1.129l1.424-4.023L10.765,3.765Z" fill="#212121"></path><path d="M16.241,9.392c-.448,0-.896-.17-1.237-.512l-4.338-4.338c-.331-.331-.513-.77-.513-1.237s.182-.907,.513-1.238l.301-.301c.293-.293,.768-.293,1.061,0s.293,.768,0,1.061l-.301,.301c-.064,.064-.073,.138-.073,.177s.01,.113,.073,.177l4.338,4.338c.098,.098,.257,.097,.354,0l.3-.301c.293-.294,.768-.293,1.061,0,.293,.292,.293,.768,0,1.061l-.301,.301c-.341,.342-.79,.512-1.238,.512Z" data-color="color-2"></path></g></svg>