<svg xmlns="http://www.w3.org/2000/svg" height="18" width="18" viewBox="0 0 18 18"><title>pen sparkle</title><g fill="#212121" class="nc-icon-wrapper"><path d="M5.493,3.492l-.946-.315-.316-.947c-.102-.306-.609-.306-.711,0l-.316,.947-.946,.315c-.153,.051-.257,.194-.257,.356s.104,.305,.257,.356l.946,.315,.316,.947c.051,.153,.194,.256,.355,.256s.305-.104,.355-.256l.316-.947,.946-.315c.153-.051,.257-.194,.257-.356s-.104-.305-.257-.356Z" data-color="color-2"></path><path d="M16.658,12.99l-1.263-.421-.421-1.263c-.137-.408-.812-.408-.949,0l-.421,1.263-1.263,.421c-.204,.068-.342,.259-.342,.474s.138,.406,.342,.474l1.263,.421,.421,1.263c.068,.204,.26,.342,.475,.342s.406-.138,.475-.342l.421-1.263,1.263-.421c.204-.068,.342-.259,.342-.474s-.138-.406-.342-.474Z" data-color="color-2"></path><circle cx="7.75" cy="1.75" r=".75" data-color="color-2"></circle><path d="M15.151,2.848c-.998-.998-2.739-.998-3.737,0L3.605,10.657c-.862,.863-1.401,3.406-1.594,4.459-.044,.242,.034,.49,.208,.665,.142,.142,.333,.22,.53,.22,.045,0,.09-.004,.134-.012,1.053-.191,3.595-.729,4.46-1.593l7.808-7.809c1.03-1.03,1.03-2.708,0-3.738Z" fill="#212121"></path></g></svg>