<svg xmlns="http://www.w3.org/2000/svg" height="18" width="18" viewBox="0 0 18 18"><title>pen 3</title><g fill="#212121" class="nc-icon-wrapper"><path d="M15.152,2.848c-.998-.998-2.74-.997-3.738,0L3.605,10.657c-.863,.864-1.401,3.406-1.593,4.459-.044,.242,.034,.491,.208,.665,.142,.142,.333,.22,.53,.22,.044,0,.089-.004,.134-.012,1.053-.191,3.595-.729,4.459-1.593l5.495-5.495,.217,.217c.487,.487,.487,1.28,0,1.768l-1.586,1.586c-.293,.293-.293,.768,0,1.061,.146,.146,.338,.22,.53,.22s.384-.073,.53-.22l1.586-1.586c1.072-1.072,1.072-2.816,0-3.889l-.217-.217,1.253-1.253c1.03-1.031,1.03-2.707,0-3.738Zm-1.061,2.677l-1.253,1.253-1.617-1.617,1.253-1.253c.216-.216,.503-.334,.809-.334s.592,.119,.808,.334c.445,.446,.445,1.171,0,1.617Z" fill="#212121"></path></g></svg>