<svg xmlns="http://www.w3.org/2000/svg" height="18" width="18" viewBox="0 0 18 18"><title>rocket</title><g fill="#212121" class="nc-icon-wrapper"><path d="M3.504,17H1.75c-.414,0-.75-.336-.75-.75v-1.754c0-.981,.578-1.877,1.473-2.282,.375-.171,.821-.004,.992,.374,.171,.377,.003,.822-.374,.992-.359,.163-.591,.522-.591,.916v1.004h1.004c.394,0,.753-.232,.916-.591,.17-.377,.616-.544,.992-.374,.377,.171,.545,.615,.374,.992-.405,.895-1.301,1.473-2.282,1.473Z" data-color="color-2"></path><path d="M13.775,10.712c3.636-3.994,3.236-8.497,3.175-9.006-.041-.345-.312-.616-.657-.657-.511-.063-5.011-.461-9.006,3.175l-1.013-.181c-1.536-.273-3.107,.37-4.008,1.641L.388,8.336c-.191,.27-.183,.632,.019,.893,.146,.188,.366,.291,.593,.291,.09,0,.181-.016,.268-.049,.013-.005,1.068-.391,2.636-.329-.17,.438-.291,.825-.377,1.139-.071,.26,.002,.538,.193,.729l3.272,3.272c.143,.143,.334,.22,.53,.22,.066,0,.133-.009,.198-.027,.313-.086,.7-.207,1.137-.377,.058,1.555-.324,2.625-.328,2.636-.118,.309-.02,.658,.241,.86,.135,.104,.297,.157,.459,.157,.152,0,.304-.046,.434-.138l2.654-1.88c1.27-.899,1.913-2.471,1.639-4.003l-.182-1.016Zm-2.525-5.712c.966,0,1.75,.783,1.75,1.75s-.784,1.75-1.75,1.75-1.75-.783-1.75-1.75,.784-1.75,1.75-1.75ZM2.7,7.668l.791-1.116c.566-.799,1.551-1.206,2.521-1.032l.034,.006c-.615,.74-1.106,1.482-1.477,2.173-.688-.067-1.331-.079-1.868-.032Zm8.751,6.84l-1.119,.792c.048-.536,.036-1.18-.032-1.868,.691-.371,1.433-.862,2.173-1.477l.007,.038c.172,.963-.232,1.95-1.03,2.515Z" fill="#212121"></path></g></svg>