<svg xmlns="http://www.w3.org/2000/svg" height="18" width="18" viewBox="0 0 18 18"><title>scale</title><g fill="#212121" class="nc-icon-wrapper"><path d="M13.25,15h-3.5V5.5c0-.414-.336-.75-.75-.75s-.75,.336-.75,.75V15h-3.5c-.414,0-.75,.336-.75,.75s.336,.75,.75,.75H13.25c.414,0,.75-.336,.75-.75s-.336-.75-.75-.75Z" fill="#212121"></path><path d="M7.25,3H3.525c-.284,0-.544,.161-.671,.415L.104,8.915c-.185,.371-.035,.821,.335,1.006,.371,.186,.822,.035,1.006-.335L3.519,5.439l2.032,4.141c.13,.266,.397,.419,.674,.419,.111,0,.224-.024,.33-.077,.372-.183,.525-.632,.343-1.004l-2.169-4.419h2.521c.414,0,.75-.336,.75-.75s-.336-.75-.75-.75Z" data-color="color-2"></path><path d="M17.896,8.915l-2.75-5.5c-.107-.213-.309-.354-.538-.396-.034-.011-.077-.019-.133-.019h-3.725c-.414,0-.75,.336-.75,.75s.336,.75,.75,.75h2.521l-2.169,4.419c-.183,.372-.029,.821,.343,1.004,.106,.052,.219,.077,.33,.077,.277,0,.543-.154,.674-.419l2.032-4.141,2.073,4.146c.186,.371,.636,.521,1.006,.335,.371-.186,.521-.636,.335-1.006Z" data-color="color-2"></path><path d="M6.919,9H.097c-.035,.077-.064,.156-.075,.237-.012,.086-.021,.173-.021,.263,0,1.93,1.57,3.5,3.5,3.5s3.5-1.57,3.5-3.5c0-.089-.01-.176-.029-.32-.006-.064-.031-.122-.052-.18Z" data-color="color-2"></path><path d="M17.919,9h-6.822c-.035,.077-.064,.156-.075,.237-.012,.086-.021,.173-.021,.263,0,1.93,1.57,3.5,3.5,3.5s3.5-1.57,3.5-3.5c0-.089-.01-.176-.029-.32-.006-.064-.031-.122-.052-.18Z" data-color="color-2"></path><circle cx="9" cy="3.75" r="2.25" fill="#212121"></circle></g></svg>