<svg xmlns="http://www.w3.org/2000/svg" height="18" width="18" viewBox="0 0 18 18"><title>scissors coupon 2</title><g fill="#212121" class="nc-icon-wrapper"><path d="M14.25,5h-2.588c-.121,.098-.253,.186-.398,.259l-.973,.491,.973,.492c1.106,.558,1.553,1.914,.994,3.021-.385,.763-1.155,1.237-2.009,1.237-.349,0-.698-.083-1.011-.24l-2.023-1.022c-.031,.252-.087,.504-.168,.751-.33,1.015-1.037,1.841-1.99,2.326-.558,.284-1.184,.434-1.809,.434h-.001c-.255,0-.503-.032-.747-.078v.079c0,1.517,1.233,2.75,2.75,2.75H14.25c1.517,0,2.75-1.233,2.75-2.75V7.75c0-1.517-1.233-2.75-2.75-2.75Z" fill="#212121"></path><path d="M10.588,7.581l-3.624-1.831,3.624-1.831c.37-.187,.518-.638,.331-1.008-.187-.37-.638-.518-1.008-.331l-4.61,2.329-.465-.235c.26-.216,.479-.481,.636-.792,.303-.595,.355-1.272,.148-1.907-.207-.635-.648-1.151-1.244-1.454C3.147-.103,1.64,.388,1.016,1.617c-.303,.596-.356,1.273-.149,1.908s.649,1.151,1.244,1.454c0,0,0,0,.001,0,0,0,0,0,0,0l1.525,.771-1.525,.771s0,0-.001,0c0,0,0,0,0,0-.595,.302-1.037,.819-1.244,1.454s-.154,1.312,.149,1.908c.44,.867,1.321,1.367,2.232,1.366,.381,0,.767-.087,1.129-.271,.595-.303,1.037-.819,1.244-1.454,.207-.635,.154-1.312-.148-1.907-.158-.31-.376-.576-.636-.792l.465-.235,4.61,2.329c.109,.055,.224,.081,.338,.081,.274,0,.538-.15,.67-.412,.187-.37,.039-.821-.331-1.008ZM2.353,2.297c.176-.347,.528-.546,.893-.546,.152,0,.307,.035,.452,.108,.491,.25,.688,.853,.438,1.345-.121,.238-.328,.415-.582,.498-.253,.083-.524,.062-.762-.059h-.002c-.238-.122-.414-.328-.497-.582-.083-.254-.062-.525,.06-.763Zm1.345,7.344c-.491,.25-1.095,.053-1.345-.438-.121-.238-.143-.509-.06-.763,.083-.254,.259-.46,.498-.582,.143-.073,.297-.109,.452-.109,.104,0,.208,.017,.311,.05,.254,.083,.46,.259,.582,.498,.25,.492,.053,1.095-.438,1.345Z" data-color="color-2"></path></g></svg>