<svg xmlns="http://www.w3.org/2000/svg" height="18" width="18" viewBox="0 0 18 18"><title>side profile</title><g fill="#212121" class="nc-icon-wrapper"><path d="M17.1,9.3l-1.354-1.806c-.072-1.944-.972-3.749-2.49-4.984-1.587-1.289-3.665-1.783-5.701-1.359C5.005,1.684,2.935,3.753,2.401,6.302c-.599,2.868,.639,5.7,3.099,7.191v2.756c0,.414,.336,.75,.75,.75h5c.414,0,.75-.336,.75-.75v-1.75h.89c1.435,0,2.64-1.121,2.742-2.551l.078-1.075,1.068-.427c.217-.086,.381-.269,.443-.494,.063-.225,.019-.466-.122-.653Zm-4.6-1.3c-.552,0-1-.448-1-1s.448-1,1-1,1,.448,1,1-.448,1-1,1Z" fill="#212121"></path></g></svg>