<svg xmlns="http://www.w3.org/2000/svg" height="18" width="18" viewBox="0 0 18 18"><title>sliders</title><g fill="#212121" class="nc-icon-wrapper"><path d="M16.25,4.5h-2.357c-.335-1.29-1.5-2.25-2.893-2.25s-2.558,.96-2.893,2.25H1.75c-.414,0-.75,.336-.75,.75s.336,.75,.75,.75h6.357c.335,1.29,1.5,2.25,2.893,2.25s2.558-.96,2.893-2.25h2.357c.414,0,.75-.336,.75-.75s-.336-.75-.75-.75Zm-5.25,2.25c-.827,0-1.5-.673-1.5-1.5s.673-1.5,1.5-1.5,1.5,.673,1.5,1.5-.673,1.5-1.5,1.5Z" data-color="color-2"></path><path d="M16.25,12h-6.357c-.335-1.29-1.5-2.25-2.893-2.25s-2.558,.96-2.893,2.25H1.75c-.414,0-.75,.336-.75,.75s.336,.75,.75,.75h2.357c.335,1.29,1.5,2.25,2.893,2.25s2.558-.96,2.893-2.25h6.357c.414,0,.75-.336,.75-.75s-.336-.75-.75-.75Z" fill="#212121"></path></g></svg>