<svg xmlns="http://www.w3.org/2000/svg" height="18" width="18" viewBox="0 0 18 18"><title>square dotted arrow bottom right</title><g fill="#212121" class="nc-icon-wrapper"><circle cx="2.75" cy="9" r=".75" fill="#212121"></circle><circle cx="9" cy="2.75" r=".75" fill="#212121"></circle><circle cx="2.75" cy="2.75" r=".75" fill="#212121"></circle><circle cx="2.75" cy="5.875" r=".75" fill="#212121"></circle><circle cx="2.75" cy="12.125" r=".75" fill="#212121"></circle><circle cx="2.75" cy="15.25" r=".75" fill="#212121"></circle><circle cx="15.25" cy="2.75" r=".75" fill="#212121"></circle><circle cx="15.25" cy="5.875" r=".75" fill="#212121"></circle><circle cx="12.125" cy="2.75" r=".75" fill="#212121"></circle><circle cx="5.875" cy="2.75" r=".75" fill="#212121"></circle><circle cx="5.875" cy="15.25" r=".75" fill="#212121"></circle><path d="M16,9.25c0-.414-.336-.75-.75-.75h-6c-.414,0-.75,.336-.75,.75v6c0,.414,.336,.75,.75,.75s.75-.336,.75-.75v-4.189l4.72,4.72c.146,.146,.338,.22,.53,.22s.384-.073,.53-.22c.293-.293,.293-.768,0-1.061l-4.72-4.72h4.189c.414,0,.75-.336,.75-.75Z" data-color="color-2"></path></g></svg>