<svg xmlns="http://www.w3.org/2000/svg" height="18" width="18" viewBox="0 0 18 18"><title>subscription 2</title><g fill="#212121" class="nc-icon-wrapper"><path d="M1.75,9.75c.414,0,.75-.336,.75-.75,0-3.584,2.916-6.5,6.5-6.5,2.144,0,4.131,1.076,5.333,2.802l-1.462-.203c-.404-.052-.789,.23-.846,.641-.057,.41,.23,.789,.641,.846l2.944,.407c.034,.004,.068,.007,.103,.007,.162,0,.321-.053,.453-.152,.158-.12,.263-.298,.29-.496l.407-2.945c.057-.41-.23-.789-.641-.846-.404-.049-.789,.23-.846,.641l-.117,.847c-1.499-1.887-3.792-3.049-6.259-3.049C4.589,1,1,4.589,1,9c0,.414,.336,.75,.75,.75Z" fill="#212121"></path><path d="M16.25,8.25c-.414,0-.75,.336-.75,.75,0,3.584-2.916,6.5-6.5,6.5-2.15,0-4.13-1.075-5.331-2.802l1.461,.202c.404,.05,.789-.23,.846-.641s-.23-.789-.641-.846l-2.944-.407c-.194-.025-.396,.025-.556,.145-.158,.12-.263,.298-.29,.496l-.407,2.945c-.057,.41,.23,.789,.641,.846,.034,.004,.069,.007,.104,.007,.368,0,.69-.272,.742-.647l.117-.843c1.497,1.887,3.786,3.046,6.259,3.046,4.411,0,8-3.589,8-8,0-.414-.336-.75-.75-.75Z" fill="#212121"></path><path d="M9.038,11.5c-.953,0-1.202-.397-1.32-.786-.121-.396-.536-.619-.937-.499-.396,.121-.619,.54-.499,.936,.291,.955,.983,1.56,1.972,1.765,.012,.404,.339,.729,.746,.729s.736-.327,.746-.732c.529-.121,1.007-.366,1.359-.728,.431-.441,.659-1.022,.645-1.636-.031-1.256-.915-2.048-2.628-2.354-1.152-.206-1.197-.671-1.213-.824-.027-.293,.063-.431,.135-.51,.227-.249,.718-.361,.994-.361,.798,0,1.017,.517,1.089,.686,.162,.382,.605,.56,.982,.399,.382-.162,.561-.602,.398-.983-.336-.793-.961-1.312-1.758-1.507v-.104c0-.414-.336-.75-.75-.75s-.75,.336-.75,.75v.126c-.469,.121-.959,.342-1.316,.735-.4,.441-.579,1.016-.517,1.662,.062,.654,.464,1.804,2.441,2.156,1.269,.227,1.384,.591,1.392,.915,.006,.212-.068,.398-.218,.551-.222,.227-.594,.363-.994,.363Z" data-color="color-2"></path></g></svg>