<svg xmlns="http://www.w3.org/2000/svg" height="18" width="18" viewBox="0 0 18 18"><title>toggle 3</title><g fill="#212121" class="nc-icon-wrapper"><path d="M12,3.5H6c-.414,0-.75,.336-.75,.75v.076c.246-.039,.493-.076,.75-.076,2.623,0,4.75,2.127,4.75,4.75s-2.127,4.75-4.75,4.75c-.257,0-.504-.036-.75-.076v.076c0,.414,.336,.75,.75,.75h6c3.033,0,5.5-2.467,5.5-5.5s-2.467-5.5-5.5-5.5Z" fill="#212121"></path><path d="M6,14.5c-3.033,0-5.5-2.467-5.5-5.5S2.967,3.5,6,3.5s5.5,2.467,5.5,5.5-2.467,5.5-5.5,5.5Zm0-9.5c-2.206,0-4,1.794-4,4s1.794,4,4,4,4-1.794,4-4-1.794-4-4-4Z" data-color="color-2"></path></g></svg>