<svg xmlns="http://www.w3.org/2000/svg" height="18" width="18" viewBox="0 0 18 18"><title>trash</title><g fill="#212121" class="nc-icon-wrapper"><path d="M15.25,3.5h-3.25v-.75c0-.965-.785-1.75-1.75-1.75h-2.5c-.965,0-1.75,.785-1.75,1.75v.75H2.75c-.414,0-.75,.336-.75,.75s.336,.75,.75,.75H15.25c.414,0,.75-.336,.75-.75s-.336-.75-.75-.75Zm-7.75-.75c0-.138,.112-.25,.25-.25h2.5c.138,0,.25,.112,.25,.25v.75h-3v-.75Z" data-color="color-2"></path><path d="M13.5,6H4.5c-.206,0-.402,.084-.544,.234s-.216,.35-.205,.556l.4,7.604c.077,1.461,1.283,2.606,2.746,2.606h4.205c1.463,0,2.669-1.145,2.746-2.605l.4-7.605c.011-.206-.063-.406-.205-.556s-.338-.234-.544-.234Z" fill="#212121"></path></g></svg>