<svg xmlns="http://www.w3.org/2000/svg" height="18" width="18" viewBox="0 0 18 18"><title>window chart line</title><g fill="#212121" class="nc-icon-wrapper"><path d="M14.25,2H3.75c-1.517,0-2.75,1.233-2.75,2.75V13.25c0,1.517,1.233,2.75,2.75,2.75H14.25c1.517,0,2.75-1.233,2.75-2.75V4.75c0-1.517-1.233-2.75-2.75-2.75Zm-7.5,2.5c.414,0,.75,.336,.75,.75s-.336,.75-.75,.75-.75-.336-.75-.75,.336-.75,.75-.75Zm-3.25,.75c0-.414,.336-.75,.75-.75s.75,.336,.75,.75-.336,.75-.75,.75-.75-.336-.75-.75Zm10.421,.835l-2.25,4.5c-.123,.245-.369,.403-.642,.414-.277,.012-.531-.129-.672-.364l-.841-1.402-1.364,2.388c-.124,.216-.345,.356-.593,.375-.247,.018-.489-.085-.644-.279l-.44-.55-1.16,1.325c-.148,.169-.356,.256-.565,.256-.175,0-.351-.061-.493-.186-.312-.273-.344-.747-.071-1.058l1.75-2c.146-.167,.356-.25,.581-.256,.222,.005,.43,.108,.569,.281l.311,.389,1.452-2.542c.132-.231,.377-.375,.644-.378,.245,0,.514,.136,.651,.364l.797,1.328,1.639-3.278c.186-.37,.636-.52,1.006-.335,.371,.186,.521,.636,.335,1.006Z" fill="#212121"></path></g></svg>