<svg xmlns="http://www.w3.org/2000/svg" id="a" width="865.76" height="682.89" viewBox="0 0 865.76 682.89">
  <rect x="102.61" y="45.16" width="5.41" height="405.6" fill="#e5e5e5" stroke="#002346" stroke-miterlimit="10"/>
  <rect x="290.64" y="45.16" width="5.41" height="405.6" fill="#e5e5e5" stroke="#002346" stroke-miterlimit="10"/>
  <path d="m359.48,44.93l-317.8.46c-6,0-10.88-4.51-10.88-10.09h0c0-5.57,4.85-10.08,10.84-10.09l317.8-.46c6,0,10.88,4.51,10.88,10.09h0c0,5.57-4.85,10.08-10.84,10.09Z" fill="#fff" stroke="#002346" stroke-miterlimit="10"/>
  <rect x="49.69" y="54.52" width="301.74" height="6.4" fill="#fff" stroke="#002346" stroke-miterlimit="10"/>
  <rect x="49.69" y="76.78" width="301.74" height="6.4" fill="#fff" stroke="#002346" stroke-miterlimit="10"/>
  <rect x="49.69" y="99.05" width="301.74" height="6.4" fill="#fff" stroke="#002346" stroke-miterlimit="10"/>
  <rect x="49.69" y="121.31" width="301.74" height="6.4" fill="#fff" stroke="#002346" stroke-miterlimit="10"/>
  <rect x="49.69" y="143.58" width="301.74" height="6.4" fill="#fff" stroke="#002346" stroke-miterlimit="10"/>
  <rect x="49.69" y="165.85" width="301.74" height="6.4" fill="#fff" stroke="#002346" stroke-miterlimit="10"/>
  <rect x="49.69" y="188.11" width="301.74" height="6.4" fill="#fff" stroke="#002346" stroke-miterlimit="10"/>
  <rect x="49.69" y="210.38" width="301.74" height="6.4" fill="#fff" stroke="#002346" stroke-miterlimit="10"/>
  <rect x="49.69" y="232.65" width="301.74" height="6.4" fill="#fff" stroke="#002346" stroke-miterlimit="10"/>
  <rect x="49.69" y="254.91" width="301.74" height="6.4" fill="#fff" stroke="#002346" stroke-miterlimit="10"/>
  <rect x="49.69" y="277.18" width="301.74" height="6.4" fill="#fff" stroke="#002346" stroke-miterlimit="10"/>
  <rect x="49.69" y="299.45" width="301.74" height="6.4" fill="#fff" stroke="#002346" stroke-miterlimit="10"/>
  <rect x="49.69" y="321.71" width="301.74" height="6.4" fill="#fff" stroke="#002346" stroke-miterlimit="10"/>
  <rect x="49.69" y="343.98" width="301.74" height="6.4" fill="#fff" stroke="#002346" stroke-miterlimit="10"/>
  <rect x="49.69" y="366.24" width="301.74" height="6.4" fill="#fff" stroke="#002346" stroke-miterlimit="10"/>
  <rect x="49.69" y="388.51" width="301.74" height="6.4" fill="#fff" stroke="#002346" stroke-miterlimit="10"/>
  <rect x="49.69" y="410.78" width="301.74" height="6.4" fill="#fff" stroke="#002346" stroke-miterlimit="10"/>
  <rect x="49.69" y="433.04" width="301.74" height="6.4" fill="#fff" stroke="#002346" stroke-miterlimit="10"/>
  <rect x="30.8" y="451.01" width="339.52" height="11.32" fill="#fff" stroke="#002346" stroke-miterlimit="10"/>
  <line x1="41.68" y1="45.39" x2="41.68" y2="403.23" fill="none" stroke="#0d2445" stroke-linecap="round" stroke-linejoin="round"/>
  <circle cx="41.82" cy="407.15" r="4" fill="#09a7c3" stroke="#002346" stroke-miterlimit="10" data-primary="true"/>
  <rect x="702.18" y="558.52" width="21.82" height="39.34" fill="#e3e4e5" stroke="#002346" stroke-miterlimit="10"/>
  <rect x="798.6" y="558.52" width="21.82" height="39.34" fill="#e3e4e5" stroke="#002346" stroke-miterlimit="10"/>
  <path d="m654.21,322.67h174.16c3.63,0,6.58,2.95,6.58,6.58v222.7c0,3.63-2.95,6.58-6.58,6.58h-174.16v-235.86Z" fill="#e3e4e5" stroke="#002346" stroke-miterlimit="10"/>
  <rect x="621.11" y="322.67" width="176.05" height="235.86" rx="6.58" ry="6.58" fill="#fff" stroke="#002346" stroke-miterlimit="10"/>
  <rect x="636.66" y="558.52" width="21.82" height="39.34" fill="#fff" stroke="#002346" stroke-miterlimit="10"/>
  <rect x="762.14" y="558.52" width="21.82" height="39.34" fill="#fff" stroke="#002346" stroke-miterlimit="10"/>
  <path d="m632.94,386.48v-45.48c0-3.9,3.17-7.07,7.07-7.07h138.25c3.9,0,7.07,3.17,7.07,7.07v45.48c0,3.9-3.17,7.07-7.07,7.07h-138.25c-3.9,0-7.07-3.17-7.07-7.07Z" fill="#e3e4e5" stroke="#002346" stroke-miterlimit="10"/>
  <circle cx="709.14" cy="363.74" r="7.07" fill="#fff" stroke="#002346" stroke-miterlimit="10"/>
  <path d="m632.94,462.11v-45.48c0-3.9,3.17-7.07,7.07-7.07h138.25c3.9,0,7.07,3.17,7.07,7.07v45.48c0,3.9-3.17,7.07-7.07,7.07h-138.25c-3.9,0-7.07-3.17-7.07-7.07Z" fill="#e3e4e5" stroke="#002346" stroke-miterlimit="10"/>
  <circle cx="709.14" cy="439.37" r="7.07" fill="#fff" stroke="#002346" stroke-miterlimit="10"/>
  <path d="m632.94,537.74v-45.48c0-3.9,3.17-7.07,7.07-7.07h138.25c3.9,0,7.07,3.17,7.07,7.07v45.48c0,3.9-3.17,7.07-7.07,7.07h-138.25c-3.9,0-7.07-3.17-7.07-7.07Z" fill="#e3e4e5" stroke="#002346" stroke-miterlimit="10"/>
  <circle cx="709.14" cy="515" r="7.07" fill="#fff" stroke="#002346" stroke-miterlimit="10"/>
  <path d="m776.61,302.64v17.66c0,1.14-.93,2.07-2.07,2.07h-94.03c-2.93,0-5.31-2.38-5.31-5.31v-11.18c0-2.93,2.38-5.31,5.31-5.31h94.03c1.14,0,2.07.93,2.07,2.07Z" fill="#ecc741" stroke="#002346" stroke-miterlimit="10" data-secondary="true"/>
  <path d="m776.61,303.88v15.16h-32.31c-1.53,0-2.76-1.24-2.76-2.76v-9.64c0-1.53,1.24-2.76,2.76-2.76h32.31Z" fill="#fff" stroke="#002346" stroke-miterlimit="10"/>
  <path d="m785.45,280.84v17.66c0,1.14-.93,2.07-2.07,2.07h-94.03c-2.93,0-5.31-2.38-5.31-5.31v-11.18c0-2.93,2.38-5.31,5.31-5.31h94.03c1.14,0,2.07.93,2.07,2.07Z" fill="#09a7c3" stroke="#002346" stroke-miterlimit="10" data-primary="true"/>
  <path d="m785.45,282.08v15.16h-32.31c-1.53,0-2.76-1.24-2.76-2.76v-9.64c0-1.53,1.24-2.76,2.76-2.76h32.31Z" fill="#fff" stroke="#002346" stroke-miterlimit="10"/>
  <path d="m769.66,259.04v17.66c0,1.14-.93,2.07-2.07,2.07h-94.03c-2.93,0-5.31-2.38-5.31-5.31v-11.18c0-2.93,2.38-5.31,5.31-5.31h94.03c1.14,0,2.07.93,2.07,2.07Z" fill="#e5e5e5" stroke="#002346" stroke-miterlimit="10"/>
  <path d="m769.66,260.29v15.16h-32.31c-1.53,0-2.76-1.24-2.76-2.76v-9.64c0-1.53,1.24-2.76,2.76-2.76h32.31Z" fill="#fff" stroke="#002346" stroke-miterlimit="10"/>
  <path d="m459.01,240.41s34.57-9.3,60.28,22.19c25.71,31.49,9.73,70.25-31,69.14-40.73-1.11-50.21-42.74-50.21-42.74l20.93-48.58Z" fill="#002346" stroke="#002346" stroke-miterlimit="10"/>
  <path d="m404.83,266.32s-9.83-10.45-7.37-26.98c1.66-11.21,6.57-14.92,6.57-14.92,0,0-7.87-15.1,14.69-14.61,22.56.49,41.05-1.44,51.1,17.97,5.92,11.43,3.57,36.27,3.57,36.27l-68.55,2.28Z" fill="#002346" stroke="#002346" stroke-miterlimit="10"/>
  <path d="m648.85,616.25v6.76c0,2.62,1.81,4.89,4.37,5.47,6.16,1.4,19.44,3.61,43.49,4.2,0,0,27.59.5,41.26-3.18,2.44-.66,4.14-2.88,4.14-5.41v-5.38s-93.26-2.45-93.26-2.45Z" fill="#fff" stroke="#002346" stroke-miterlimit="10"/>
  <path d="m160.85,537.62s-2.01,3.76,6.4,9.66l34.61,26.08s24.2,16.3,29.72,18.94l-16.55-14.3-33.11-30.72s-15.93-12.92-21.07-9.66Z" fill="#002346" stroke="#002346" stroke-miterlimit="10"/>
  <path d="m246.75,594.93s3.52-1.68-8.71-10.81l-6.64-5.5-3.84,4.4,1.5,4.77,14.8,7.15h2.88Z" fill="#002346" stroke="#002346" stroke-miterlimit="10"/>
  <path d="m277.22,551.67s-14.42,15.3-3.26,38.25c0,0,15.05,38.88,93.3,37.62l21.07,3.26s27.46,3.01,47.03,1.13c0,0,58.31,5.64,92.68,0,0,0,72.86-9.53,107.47-17.81,0,0,56.93-14.17,39.5-71.61l-5.39-16.43s-.38-15.68-21.95-32.1l-27.84-17.93s-44.03-29.14-64.53-35.45l-211.62,28.43-66.47,82.64Z" fill="#fff" stroke="#002346" stroke-miterlimit="10"/>
  <path d="m520.64,497.99l74.24-3.39s41.63.25,50.91,6.65" fill="none" stroke="#002346" stroke-linecap="round" stroke-linejoin="round"/>
  <path d="m530.4,325.12c3.32,1.31,6.14,3.68,7.95,6.76,7.79,13.24,10.38,39.95,10.38,39.95,2.24,14.13,2.99,33.04,3.19,39.7.04,1.19.03,2.39.02,3.58-.08,8.85,5.56,19.68,5.56,19.68l-39.25,45.77c-.88,5.77-2.88,4.26-2.88,4.26-.5-4.51-3.76-5.39-3.76-5.39l-4.89-3.76-17.43-4.39c-7.27-2.26-12.29-1.25-12.29-1.25l-26.59-16.43-88.16-21.32-10.66-1.5c-7.78-1.88-12.67,2.01-12.67,2.01l2.57-5.76c1.41-3.16,2.38-6.51,2.87-9.94,4.87-34.02,14.32-68.93,17.73-79.08,1.36-4.04,4.03-7.51,7.6-9.84,17.06-6.85,45.11-15.7,80.7-16.28,34.93-.56,62.81,7.08,79.98,13.23Z" fill="#09a7c3" stroke="#002346" stroke-linecap="round" stroke-linejoin="round" data-primary="true"/>
  <path d="m338.92,432.78s-1.88,3.01,4.26,6.9c0,0,.54-6.4.83-9.09,0,0-3.22.69-5.1,2.19Z" fill="#09a7c3" stroke="#002346" stroke-linecap="round" stroke-linejoin="round" data-primary="true"/>
  <path d="m545.84,429.27s7.8.36,10.97,4.49c1.13,1.47,1.23,3.48.28,5.07-1.35,2.27-4.68,5.4-12.8,6.01l1.55-15.57Z" fill="#09a7c3" stroke="#002346" stroke-linecap="round" stroke-linejoin="round" data-primary="true"/>
  <path d="m344.02,430.59s-1.33,15.49-4.47,23.01l24.7-20.94-11.04-2.13s-4.98-.75-9.2.06Z" fill="#f0b1bf" stroke="#002346" stroke-miterlimit="10"/>
  <path d="m465.2,472.78l-90.6-6.78c-2.75-.21-4.92-2.41-5.07-5.16l-5.11-89.13c-.19-3.23,2.45-5.92,5.68-5.8l21.77.78,48.53,1.74,24.43.87c2.93.1,5.26,2.5,5.29,5.43l.98,92.52c.03,3.22-2.69,5.77-5.9,5.53Z" fill="#fff" stroke="#002346" stroke-miterlimit="10"/>
  <path d="m443.51,368.42h0c0,1.46-1.21,2.62-2.66,2.57l-50.03-1.76c-1.39-.05-2.48-1.19-2.48-2.57v-.18c0-1.46,1.21-2.63,2.67-2.57l50.03,1.93c1.38.05,2.47,1.19,2.47,2.57Z" fill="#ecc741" stroke="#002346" stroke-miterlimit="10" data-secondary="true"/>
  <path d="m317.73,568.6l-1.76,6.27-8.53,36.62,40.63-13.79,4.14-10.28,9.91-20.06-.13-8.9-31.48-4.39s-8.28,5.14-8.28,5.64-3.26,4.51-4.51,8.9Z" fill="#fff" stroke="#002346" stroke-miterlimit="10"/>
  <path d="m304.19,630.67s-2.88-29.22,22.82-35.24c0,0,19.56-9.28,34.99,14.8,0,0,4.64,1.5,5.39,6.27l-63.2,14.17Z" fill="#09a7c3" stroke="#002346" stroke-linecap="round" stroke-linejoin="round" data-primary="true"/>
  <path d="m293.28,543.89s-.81,2.65-3.08,3.42c-.34.12-.68.23-1.02.36-3.01,1.17-14.95,6.17-25.74,15.85-2.9,2.6-5.52,5.49-7.88,8.58l-7.06,9.28s-5.89,8.9-17.18-1.76c0,0,10.03-20.06-9.66-45.65,0,0,14.67-.88,28.22-10.28l17.93-9.91s5.39-4.14,8.4-1.38c0,0,2.28.96,5.94,5.29,1.92,2.27,3.58,4.75,5,7.36l4.23,7.81c1.14,2.1,1.88,4.39,2.14,6.77.15,1.42.14,2.93-.25,4.25Z" fill="#fff" stroke="#002346" stroke-miterlimit="10"/>
  <ellipse cx="695.48" cy="617.48" rx="3.81" ry="46.65" transform="translate(59.92 1296.48) rotate(-88.49)" fill="#e6e6e6" stroke="#002346" stroke-miterlimit="10"/>
  <path d="m703.85,536.69l-.28,11.33-1.53,61.32-.12,4.66c-.04,1.46-1.23,2.62-2.68,2.62h-21.65c-1.49,0-2.69-1.21-2.68-2.69l.02-4.58.2-61.32.04-12.12,28.7.78Z" fill="#fff" stroke="#002346" stroke-miterlimit="10"/>
  <path d="m703.57,548.03l-1.46,58.22c-.04,1.73-1.46,3.1-3.18,3.1h-20.82c-1.76,0-3.19-1.43-3.18-3.19l.19-58.13h28.46Z" fill="#09a7c3" stroke="#002346" stroke-linecap="round" stroke-linejoin="round" data-primary="true"/>
  <polyline points="509.04 436.12 509.98 408.58 511.11 377.48" fill="none" stroke="#002346" stroke-linecap="round" stroke-linejoin="round"/>
  <circle cx="449.91" cy="320.29" r="25.96" fill="#fff" stroke="#002346" stroke-miterlimit="10"/>
  <path d="m430.72,286.56h35.49v26.77c0,9.79-7.95,17.74-17.74,17.74h0c-9.79,0-17.74-7.95-17.74-17.74v-26.77h0Z" fill="#f0b1bf" stroke="#002346" stroke-miterlimit="10"/>
  <rect x="403.51" y="216.2" width="65.46" height="89.16" rx="32.28" ry="32.28" fill="#f0b1bf" stroke="#002346" stroke-miterlimit="10"/>
  <path d="m520.64,497.99l-5.59.46c-4.18.34-8.39.27-12.55-.23-51.56-6.19-79.43,7.8-79.43,7.8-28.97,10.78-43.27,45.02-43.27,45.02,1.08-10.76-8.72-20.43-15.5-25.76-5.89-4.63-13.53-6.51-20.87-4.98-16.96,3.54-20.94,22.58-20.94,22.58l3.23-17.85c.35-1.92,1.35-3.66,2.83-4.93l21.65-18.48-36.62-26.21,25.96-21.82,42.64-36.24c12.04-10.41,26.96,3.89,26.96,3.89l43.27,31.85,22.31,15.37c1.38.95,3.04,1.44,4.72,1.37,6.01-.22,9.84,1.45,9.84,1.45l14.77,3.72c4.36,1.1,8.32,3.45,11.28,6.83,3.06,3.5,5.68,8.7,5.3,16.16Z" fill="#ecc741" stroke="#002346" stroke-miterlimit="10" data-secondary="true"/>
  <path d="m313.59,475.42s-5.27,6.14-10.03,13.04c0,0-9.53,13.67-27.34,23.95,0,0,2.53.93,6.69,6.18,1.57,1.99,2.96,4.11,4.17,6.34l4.24,7.82c1.05,1.95,1.77,4.06,2.07,6.26.22,1.59.29,3.37-.12,4.89l32.17-16.69.33-2.05c.32-1.99,1.33-3.8,2.86-5.11l28.1-23.94s0-11.66-9.78-22.95c0,0-10.53-13.54-33.36,2.26Z" fill="#f0b1bf" stroke="#002346" stroke-miterlimit="10"/>
  <path d="m356.73,496.11l27.54-21.19s5.64-5.39,14.8,5.27l19.69,25.46" fill="none" stroke="#002346" stroke-linecap="round" stroke-linejoin="round"/>
  <path d="m322.5,542.89l-4.77,25.71s3.48-6.76,12.52-7.93c9.14-1.19,17.86,4.13,21.24,12.71,1.5,3.8,2.18,8.53.73,14.04l5.25-6.71c3.16-4.04,6.61-7.86,10.33-11.38,4.11-3.88,9.97-10.52,12-18.28,0,0,1.09-6.41-4.28-14.18,0,0-6.15-8.24-11.22-11.58,0,0-14.74-12.55-30.91-.23,0,0-8.27,6.17-10.9,17.84Z" fill="#f0b1bf" stroke="#002346" stroke-miterlimit="10"/>
  <path d="m221.67,533.98s-2.71-3.48-9.98-2.29c-3.01.49-6.06.72-9.11.64l-23.54-.6s-7.02,0-10.78,1.88c0,0,9.66,1.38,27.84,22.07,0,0,15.55,19.94,32.23,28.47,0,0,8.45-7.18,4.41-28.3,0,0-2.91-12.21-11.06-21.86Z" fill="#09a7c3" stroke="#002346" stroke-linecap="round" stroke-linejoin="round" data-primary="true"/>
  <path d="m168.25,533.61s-3.64-.75-5.52,1.38l-1.88,2.63s6.65,0,14.42,6.52l29.22,27.59s10.78,9.78,27.09,20.57c0,0,6.83,3.66,11.52,5.36.94.34,1.99-.02,2.52-.88l1.14-1.85s-12.16-6.27-18.43-10.78c0,0-13.67-6.02-32.23-28.47,0,0-16.93-19.81-27.84-22.07Z" fill="#fff" stroke="#002346" stroke-miterlimit="10"/>
  <line x1="474.73" y1="468.46" x2="496.31" y2="484.32" fill="none" stroke="#002346" stroke-linecap="round" stroke-linejoin="round"/>
  <path d="m300.17,640.2s-.97-1.27-.49-3.46c.24-1.11.81-2.13,1.61-2.95l8.7-8.99c2.07-2.13,4.35-4.05,6.83-5.68,6.23-4.11,17.97-10.07,32.26-8.9,0,0,17.56.88,19.69,8.28,0,0,.5,3.14-7.65,10.28,0,0-11.04,12.54-18.81,11.91l-22.82-4.26s-15.68,4.39-19.31,3.76Z" fill="#fff" stroke="#002346" stroke-miterlimit="10"/>
  <path d="m359.24,615.75s-15.3-4.46-32.09,2.59c-7.61,3.2-14.17,8.45-19.07,15.09l-3.89,5.27s-1.63,1.5-4.01,1.5c0,0,5.39,1,15.3.88l26.84-.38s4.26-.38,8.15-4.39l8.03-6.9s15.17-11.54.75-13.67Z" fill="#002346" stroke="#002346" stroke-miterlimit="10"/>
  <path d="m509.35,437.3v-1.63c21.57-8.03,36.49-6.4,36.49-6.4l-3.14,32.23c-.26,3.71-1.33,7-2.61,9.71-3.2,6.75-10.17,10.9-17.63,10.5-.21-.01-.32-.02-.32-.02-10.16-1-16.93-8.28-16.93-8.28l-21.7-24.08-4.89-1.76c-1.82-.69-3.14-2.07-4-3.28-.58-.81-1-1.58-1.27-2.24-6.18-1.82-22.66-7.02-22.2-11.79.05-.48.27-.98.75-1.5-7.27-1.25-7.02-4.39-7.02-4.39-.38-2.76,5.77-2.26,5.77-2.26l6.52.38c-13.42-1.25-11.79-5.89-11.79-5.89.38-5.14,15.8-1.5,15.8-1.5l15.05,2.64c.87.15,1.75-.15,2.34-.79.38-.42.4-1.05.04-1.49l-.63-.78c-.24-.3-.57-.52-.93-.63l-10.89-3.45c-.96-.3-1.87-.72-2.71-1.26-3.13-2.03-2.76-4.15-2.76-4.15.13-4.64,16.68.88,16.68.88,7.02,2.01,13.17,5.89,13.17,5.89,6.65,5.52,3.76,14.55,3.76,14.55l15.05,10.78Z" fill="#f0b1bf" stroke="#002346" stroke-miterlimit="10"/>
  <line x1="457.18" y1="422.5" x2="481.76" y2="428.14" fill="none" stroke="#002346" stroke-linecap="round" stroke-linejoin="round"/>
  <line x1="451.92" y1="428.77" x2="478.88" y2="435.54" fill="none" stroke="#002346" stroke-linecap="round" stroke-linejoin="round"/>
  <path d="m509.35,437.3l13.17,6.27s15.68,5.89,17.93,8.28" fill="none" stroke="#002346" stroke-linecap="round" stroke-linejoin="round"/>
  <line x1="473.36" y1="442.06" x2="480.76" y2="443.94" fill="none" stroke="#002346" stroke-linecap="round" stroke-linejoin="round"/>
  <line x1="389.59" y1="342.61" x2="386.82" y2="365.7" fill="none" stroke="#002346" stroke-linecap="round" stroke-linejoin="round"/>
  <ellipse cx="689.5" cy="536.3" rx="1.32" ry="14.36" transform="translate(134.6 1210.93) rotate(-88.44)" fill="#fff" stroke="#002346" stroke-miterlimit="10"/>
  <path d="m469.03,266.56s-30.98,7.27-47.96-12.72c-11.66-13.73-9.08-21.38-9.08-21.38-1.3,1.27-2.7,2.84-4.04,4.75-2.92,4.16-4.39,8.24-5.16,11.2-.31-1.53-.6-3.71-.64-6.33-.05-3.61.42-8.09,2.54-11.62,4.24-7.06,8.81-5.7,8.81-5.7,1.23-1.48,10.38-12.12,25.42-12.01,17.94.13,27.45,15.44,27.97,16.3,2.42,10.33,4.85,20.65,7.27,30.98l-5.14,6.52Z" fill="#002346" stroke="#002346" stroke-miterlimit="10"/>
  <path d="m463.41,260.1c-3.98,2.52-5.17,7.78-2.65,11.76,2.52,3.98,7.78,5.17,11.76,2.65,3.98-2.52,5.17-7.78,2.65-11.76-2.52-3.98-7.78-5.17-11.76-2.65Z" fill="#f0b1bf" stroke="#002346" stroke-miterlimit="10"/>
  <path d="m469.12,263.06s3.7,5.52-2.67,8.59" fill="none" stroke="#002346" stroke-linecap="round" stroke-linejoin="round"/>
  <path d="m416.08,275.34c-.31,1.19-1.53,1.9-2.72,1.59-1.19-.31-1.9-1.53-1.59-2.72.31-1.19,1.53-1.9,2.72-1.59,1.19.31,1.9,1.53,1.59,2.72Z" fill="#002346" stroke="#002346" stroke-miterlimit="10"/>
  <path d="m436.33,275.34c-.31,1.19-1.53,1.9-2.72,1.59-1.19-.31-1.9-1.53-1.59-2.72.31-1.19,1.53-1.9,2.72-1.59,1.19.31,1.9,1.53,1.59,2.72Z" fill="#002346" stroke="#002346" stroke-miterlimit="10"/>
  <polyline points="422.83 275.52 418.18 284.39 421.75 285.35" fill="none" stroke="#002346" stroke-linecap="round" stroke-linejoin="round"/>
  <path d="m426.06,258.16h0c-.39,1.48.58,2.97,2.09,3.21,2.28.37,5.58,1.11,8.51,2.6,1.09.55,2.42.19,3.01-.88h0c.57-1.02.18-2.2-.71-2.96-1.83-1.55-4.75-3.85-10.24-3.91-1.23-.01-2.34.74-2.66,1.93Z" fill="#002346" stroke="#002346" stroke-miterlimit="10"/>
  <path d="m415.13,258h0c.1,1.49-.69,2.89-1.71,3.01-1.54.18-3.78.67-5.86,1.91-.77.46-1.61,0-1.88-1.1h0c-.27-1.05.11-2.19.78-2.86,1.37-1.39,3.52-3.43,7.14-3.07.81.08,1.46.91,1.54,2.11Z" fill="#002346" stroke="#002346" stroke-miterlimit="10"/>
  <path d="m420.04,292.23l14.06-3.78s1.74,5.4-5.42,7.37c-7.15,1.97-8.64-3.59-8.64-3.59Z" fill="#fff" stroke="#002346" stroke-miterlimit="10"/>
  <path d="m590.07,658.14h-153.25c-2.1,0-3.9-1.5-4.29-3.57l-20.54-109.92c-.4-2.16,1.27-4.15,3.46-4.13l151.42,1.41c2.42.02,4.47,1.78,4.86,4.17l18.34,112.04Z" fill="#fff" stroke="#002346" stroke-miterlimit="10"/>
  <path d="m669.1,654.42h0c0,2.05-1.66,3.71-3.71,3.71h-75.32l-18.34-112.04c-.39-2.39-2.45-4.15-4.86-4.17l6.24-.15c2.57-.06,4.79,1.79,5.2,4.32l16.82,104.61h70.27c2.05,0,3.71,1.66,3.71,3.71Z" fill="#e6e6e6" stroke="#002346" stroke-miterlimit="10"/>
  <rect x="602.55" y="652.79" width="13.37" height="3.27" fill="#fff" stroke="#002346" stroke-miterlimit="10"/>
  <path d="m391.24,198.17l-24.42-28.37v-52.89c0-6.74-5.47-12.21-12.21-12.21H69.96c-6.74,0-12.21,5.47-12.21,12.21v125.9c0,6.74,5.47,12.21,12.21,12.21h284.65c6.74,0,12.21-5.47,12.21-12.21v-53.97l24.42,9.34Z" fill="#fff" stroke="#002346" stroke-miterlimit="10"/>
  <path d="m212.05,154.03s-.03-.08-.05-.12c-8.38-19.41-25.88-33.95-47.1-38.24-.01,0-.02,0-.03,0-4.2-.85-8.55-1.29-13-1.29-16.04,0-30.73,5.76-42.12,15.34-14.28,12.01-23.36,30.01-23.36,50.14,0,.74.01,1.48.04,2.21v.02c1,29.86,21.98,54.64,50,61.41.03,0,.06.02.1.03,4.92,1.18,10.06,1.81,15.34,1.81,25.05,0,46.82-14.07,57.83-34.74.02-.03.03-.06.05-.09,4.85-9.15,7.6-19.58,7.6-30.65,0-9.17-1.88-17.9-5.29-25.82Zm-18.55,45.65c-7.41,15.54-23.27,26.28-41.64,26.28-.35,0-.69,0-1.04-.01-.26,0-.51-.01-.77-.03-.17,0-.34-.01-.51-.02-.36-.02-.72-.04-1.07-.07-.18,0-.36-.03-.54-.04-.26-.02-.52-.04-.78-.07-.39-.04-.77-.08-1.16-.13h-.01c-.31-.04-.61-.08-.92-.13-.11-.01-.23-.03-.35-.05h-.01c-.21-.03-.43-.07-.64-.11-.06-.01-.13-.03-.2-.03-.14-.03-.28-.05-.42-.08-.29-.05-.59-.11-.88-.17-.26-.05-.52-.11-.78-.17-.06,0-.12-.02-.17-.04-.03,0-.05,0-.07-.02-.03,0-.06-.01-.09-.02-.07-.02-.13-.03-.2-.05,0,0-.02,0-.03,0-.03,0-.07-.01-.1-.03-.09-.02-.19-.04-.27-.06-.2-.05-.4-.1-.6-.15-.25-.06-.51-.13-.76-.2-.27-.07-.53-.15-.78-.22-.05-.02-.1-.03-.15-.05-.08-.02-.15-.04-.22-.07-.01,0-.03,0-.05-.01-.09-.03-.19-.06-.28-.09-.27-.08-.54-.17-.81-.26-.05-.02-.1-.03-.14-.05-.17-.05-.34-.11-.51-.18-.18-.06-.36-.13-.54-.19-.35-.13-.71-.26-1.05-.4-.05-.02-.1-.04-.15-.06-.24-.09-.47-.19-.7-.29-.06-.03-.13-.05-.19-.08-.12-.05-.25-.11-.37-.16-.14-.06-.28-.12-.42-.19-.19-.08-.37-.16-.56-.26-.02,0-.03-.01-.05-.02-.13-.06-.27-.13-.41-.19-.12-.05-.24-.11-.36-.17-.14-.07-.29-.14-.43-.21-.15-.07-.29-.14-.43-.22-.33-.17-.66-.35-.99-.52-.15-.08-.3-.16-.45-.25-.14-.08-.28-.16-.42-.24-.16-.09-.31-.18-.47-.27-.16-.09-.32-.19-.48-.28-.07-.04-.14-.09-.22-.13-.24-.15-.48-.29-.72-.45-.09-.05-.18-.11-.27-.18-.18-.11-.35-.23-.53-.35-.08-.05-.15-.1-.23-.15-.04-.02-.07-.05-.11-.07-.04-.03-.08-.05-.12-.08-.15-.1-.3-.21-.45-.31-.04-.03-.08-.05-.11-.08-.11-.07-.21-.14-.3-.22-.18-.12-.35-.25-.53-.38-.16-.11-.31-.22-.46-.34-.24-.19-.49-.37-.73-.57-.18-.14-.35-.28-.53-.43h0c-.15-.12-.29-.24-.44-.36-.06-.05-.12-.1-.18-.15-.22-.18-.44-.37-.65-.56-.04-.03-.08-.07-.11-.1-.16-.14-.32-.28-.48-.43-.08-.07-.16-.15-.25-.23-.04-.03-.08-.07-.12-.11-.11-.11-.23-.21-.34-.32-.07-.06-.14-.13-.21-.19-.19-.19-.38-.37-.56-.55-.1-.09-.19-.19-.29-.28-.16-.17-.33-.34-.49-.51-.15-.15-.29-.3-.43-.45-.08-.08-.15-.16-.22-.24-.09-.1-.18-.19-.27-.29-.03-.03-.06-.07-.09-.1-.03-.04-.07-.08-.11-.12-.1-.11-.19-.21-.28-.32-.08-.09-.17-.19-.25-.28-.15-.18-.3-.35-.45-.53-.13-.15-.25-.29-.37-.44-.08-.09-.15-.19-.23-.28-.11-.13-.21-.26-.31-.39-.13-.17-.27-.34-.39-.51-.16-.2-.31-.4-.46-.61-.13-.17-.25-.34-.37-.51-.09-.12-.18-.25-.27-.37-.21-.29-.41-.59-.61-.9-.14-.2-.27-.4-.4-.61-.01-.02-.03-.04-.04-.06-.12-.18-.24-.37-.35-.55-.13-.21-.26-.41-.38-.62-.03-.05-.06-.1-.08-.14-.15-.24-.29-.48-.42-.71-.03-.05-.06-.11-.09-.16-.12-.21-.24-.42-.35-.62-.06-.11-.12-.21-.18-.32-.1-.18-.2-.37-.29-.55-.05-.1-.11-.21-.16-.31,0-.01-.01-.03-.02-.04-.07-.14-.14-.28-.21-.42-.1-.19-.19-.37-.28-.56-.16-.33-.32-.66-.46-.99-.04-.08-.08-.16-.11-.24-.03-.05-.05-.11-.07-.16-.1-.21-.19-.41-.27-.61-.12-.27-.23-.55-.34-.83-.03-.08-.06-.15-.09-.23-.13-.32-.25-.64-.37-.97-.01-.02-.02-.04-.03-.06-.08-.21-.15-.41-.22-.62-.05-.12-.09-.24-.13-.35-.05-.16-.11-.31-.16-.47-.06-.19-.13-.39-.19-.59-.08-.24-.15-.48-.22-.72-.04-.11-.07-.23-.1-.35-.08-.27-.15-.54-.22-.81-.04-.14-.08-.28-.11-.42-.07-.26-.13-.52-.19-.78-.01-.05-.03-.09-.03-.14-.05-.24-.11-.48-.16-.72,0-.02-.02-.05-.02-.07-.03-.13-.06-.27-.09-.41,0-.03-.02-.07-.02-.11-.05-.25-.11-.51-.15-.76-.01-.05-.02-.09-.03-.14-.05-.28-.1-.56-.15-.84-.02-.11-.04-.22-.05-.34-.04-.26-.08-.52-.11-.77-.03-.16-.05-.31-.06-.46,0-.08-.02-.16-.03-.24-.01-.08-.02-.15-.03-.23,0-.04,0-.08,0-.12,0-.05-.02-.09-.02-.14-.02-.12-.03-.24-.04-.36-.03-.21-.05-.43-.06-.64-.02-.16-.03-.31-.04-.46-.03-.35-.05-.7-.07-1.06-.02-.32-.04-.64-.05-.97,0-.07,0-.14,0-.21,0-.04,0-.08,0-.12,0-.11,0-.21,0-.32,0-.08,0-.16,0-.23,0-.3-.01-.59-.01-.89s0-.59,0-.88c0-.11,0-.21,0-.31,0-.2,0-.4.02-.6,0-.11,0-.21.01-.32v-.08c0-.1,0-.21.02-.31,0-.08,0-.17.02-.26,0-.21.02-.42.04-.63,0-.05,0-.11.01-.17,0-.05,0-.11.02-.17,0-.05,0-.11.01-.17,0-.03,0-.05,0-.07,0-.13.03-.27.04-.4,0-.08.01-.16.02-.24,0-.03,0-.06,0-.09,0-.11.02-.21.03-.32l.03-.24c.01-.11.03-.23.04-.35h0c0-.07.01-.13.02-.2,0-.01,0-.03,0-.05,0-.02,0-.03,0-.05,0,0,0-.02,0-.03,0-.02,0-.03,0-.05,0-.02,0-.04,0-.06,0-.07.02-.13.03-.2.01-.11.03-.21.04-.31.02-.13.03-.26.05-.38,0-.02,0-.03,0-.05,0-.02,0-.04,0-.06,0-.02,0-.05.01-.07.03-.21.06-.41.1-.62.02-.12.04-.25.06-.37,0-.04.02-.09.03-.13,0-.04.01-.08.02-.13,0-.03,0-.05.01-.08,0,0,0-.02,0-.03.01-.08.03-.16.04-.24.04-.19.07-.37.11-.55,0-.02,0-.03.01-.05.03-.16.06-.32.1-.48.02-.11.04-.21.07-.32,0-.01,0-.03.01-.04,0-.02,0-.03,0-.05,0-.03.01-.06.02-.09,0-.02,0-.04.01-.06.01-.06.03-.11.04-.17.02-.09.04-.19.07-.28,0-.05.03-.11.04-.16.02-.1.05-.2.08-.3,0-.05.02-.09.03-.14.03-.13.07-.27.1-.4.03-.13.07-.27.11-.4.02-.08.04-.16.07-.24.03-.11.06-.22.09-.33.06-.22.13-.45.2-.67,0-.03.02-.05.02-.08.01-.03.03-.07.03-.11,0-.03.02-.05.03-.08,0-.02,0-.03.01-.04.01-.03.02-.06.03-.09.01-.05.03-.09.04-.14h0c.02-.06.04-.13.06-.19.07-.2.13-.4.2-.61.02-.05.03-.1.05-.15.01-.05.03-.1.05-.15,0-.03.02-.07.03-.1.03-.09.06-.18.1-.27.04-.13.08-.25.13-.37,0,0,0-.01.01-.02.02-.06.04-.11.06-.17.11-.3.22-.6.34-.9,0,0,0,0,0,0,0,0,0-.01,0-.02,0-.02.02-.04.03-.05.11-.27.22-.55.33-.82l.06-.15c.03-.06.05-.13.08-.19.11-.25.22-.5.33-.75.03-.08.07-.15.1-.22.01-.04.03-.07.05-.11.09-.19.18-.37.27-.56,0-.02.02-.04.03-.06t0,0s.04-.09.06-.13c.09-.19.19-.39.29-.58.05-.11.11-.23.17-.34.01-.03.03-.05.04-.08.05-.1.1-.19.15-.29.02-.04.04-.08.06-.11.03-.07.06-.13.11-.2.06-.13.13-.26.2-.39.02-.03.03-.06.05-.09.03-.06.07-.13.11-.19.15-.28.31-.56.48-.85,0-.02.02-.03.03-.05.05-.1.11-.19.17-.29.01-.02.03-.05.04-.07.07-.13.15-.26.23-.38.03-.05.06-.1.09-.15.02-.04.04-.08.07-.11.05-.08.1-.16.15-.23.03-.05.06-.11.11-.16,0-.01,0-.02.02-.03,0,0,0,0,0-.02.03-.04.05-.08.08-.12,0,0,0-.02.02-.03.03-.06.08-.12.12-.19.01-.02.03-.04.04-.06.05-.1.12-.19.18-.28.04-.06.08-.12.12-.19.14-.22.29-.44.44-.65.04-.07.08-.13.13-.19,0-.02.02-.03.03-.05,0,0,0,0,0-.01.15-.22.31-.44.47-.65.03-.04.06-.08.09-.13.01-.03.03-.05.05-.08.02-.03.04-.05.06-.08,0,0,0,0,0,0,.01-.03.03-.05.05-.07.02-.03.04-.05.06-.08.03-.05.06-.09.1-.13.11-.14.21-.28.32-.42.02-.03.03-.05.06-.08.03-.05.06-.09.1-.13.25-.32.5-.64.76-.96.26-.32.52-.63.79-.93,0,0,0-.01.01-.02,0,0,0-.01.01-.02.02-.03.04-.05.06-.07.04-.05.09-.11.14-.16.08-.1.17-.2.26-.29.05-.06.1-.12.16-.18.01-.02.03-.04.05-.06h0c.04-.05.08-.11.13-.15h0s0-.01,0-.01c0,0,.01-.01.02-.02.01-.01.03-.03.03-.04,0,0,0,0,.01-.01.16-.17.31-.34.47-.51.04-.05.09-.1.14-.15.05-.05.1-.11.15-.16t0,0s0-.01.02-.02c.08-.08.16-.16.24-.24.2-.21.4-.41.61-.61.11-.1.21-.2.31-.31.02-.03.04-.04.06-.06.12-.13.25-.24.37-.36.05-.05.09-.09.14-.13.3-.28.6-.56.91-.83.15-.14.31-.27.46-.4.15-.14.31-.27.47-.4.03-.03.07-.06.1-.09.25-.21.5-.42.76-.62.16-.13.33-.27.5-.4.13-.11.27-.21.4-.31.21-.16.43-.32.65-.48.13-.1.26-.19.39-.28.11-.08.23-.16.34-.24.04-.04.09-.07.13-.1.24-.17.49-.34.74-.51.26-.18.53-.35.8-.52.1-.06.2-.13.3-.19.18-.12.37-.23.55-.35.13-.08.25-.16.38-.23.13-.08.26-.16.39-.23.16-.09.31-.18.47-.27.14-.08.29-.16.43-.24.01,0,.03-.02.04-.03.04-.03.09-.05.13-.07.02-.01.03-.03.05-.03.21-.12.42-.23.63-.34.05-.03.1-.05.15-.08.05-.03.09-.05.13-.07.14-.08.29-.15.43-.22.32-.17.65-.33.98-.48.08-.04.16-.08.24-.11.21-.1.43-.2.64-.29.21-.1.43-.19.65-.28.1-.05.2-.09.3-.13.69-.29,1.39-.57,2.1-.83.24-.09.48-.17.72-.26.09-.03.19-.06.28-.1.08-.03.17-.05.25-.08.23-.08.46-.15.69-.22.05-.02.09-.03.13-.04.05-.02.1-.03.15-.05.23-.07.46-.14.69-.21.11-.03.22-.06.33-.1.04,0,.08-.02.13-.03.3-.08.6-.16.9-.24.06-.02.13-.04.19-.05.23-.06.47-.12.7-.17.12-.03.24-.06.36-.09.34-.08.69-.15,1.03-.22.7-.15,1.41-.27,2.12-.38.03,0,.06-.01.09-.01.08-.02.16-.03.24-.04.27-.04.55-.08.83-.11.12-.02.24-.03.37-.05.03,0,.06,0,.09,0,.21-.03.43-.05.65-.08.09-.01.19-.02.27-.03.29-.03.59-.06.89-.08.04,0,.08,0,.11,0,.08,0,.16-.01.25-.02.02,0,.04,0,.06,0,.16-.02.33-.03.49-.03.04,0,.08,0,.12,0,.16,0,.33-.02.5-.03.04,0,.08,0,.12,0,.08,0,.16,0,.23-.01.15,0,.3-.01.46-.01.09,0,.19,0,.28,0,.08,0,.17,0,.25,0,.29,0,.59-.01.89-.01,3.9,0,7.68.48,11.29,1.4,14.9,3.75,26.92,14.75,32.08,29.04.01.03.03.07.04.11,1.75,4.86,2.7,10.1,2.7,15.57,0,7.03-1.57,13.69-4.39,19.65-.03.06-.05.12-.08.18Z" fill="#09a7c3" stroke="#002346" stroke-linecap="round" stroke-linejoin="round" data-primary="true"/>
  <path d="m128.72,139.49c.06-.04.13-.07.19-.1-.02,0-.03.02-.05.03-.06.03-.12.06-.17.09.01,0,.02-.02.03-.02Z" fill="none" stroke="red" stroke-miterlimit="10"/>
  <path d="m135.89,136.29c.09-.03.19-.06.28-.1-.34.12-.67.24-1,.36.07-.03.14-.05.21-.08.17-.06.34-.12.51-.18Z" fill="none" stroke="red" stroke-miterlimit="10"/>
  <path d="m146.55,133.96c.24-.03.48-.05.72-.06-.29.02-.59.05-.89.08.06,0,.11-.01.17-.02Z" fill="none" stroke="red" stroke-miterlimit="10"/>
  <path d="m149.6,133.77c-.23,0-.46.01-.69.03-.04,0-.08,0-.12,0,.11,0,.23-.01.35-.02.15,0,.3-.01.46-.01Z" fill="none" stroke="red" stroke-miterlimit="10"/>
  <path d="m128.72,139.49c.06-.04.13-.07.19-.1-.02,0-.03.02-.05.03-.06.03-.12.06-.17.09.01,0,.02-.02.03-.02Z" fill="none" stroke="red" stroke-miterlimit="10"/>
  <path d="m135.89,136.29c.09-.03.19-.06.28-.1-.34.12-.67.24-1,.36.07-.03.14-.05.21-.08.17-.06.34-.12.51-.18Z" fill="none" stroke="red" stroke-miterlimit="10"/>
  <path d="m146.55,133.96c.24-.03.48-.05.72-.06-.29.02-.59.05-.89.08.06,0,.11-.01.17-.02Z" fill="none" stroke="red" stroke-miterlimit="10"/>
  <path d="m149.14,133.78c.15,0,.3-.01.46-.01-.23,0-.46.01-.69.03-.04,0-.08,0-.12,0,.11,0,.23-.01.35-.02Z" fill="none" stroke="red" stroke-miterlimit="10"/>
  <path d="m138.41,135.49c-.11.03-.22.06-.33.1.03,0,.06-.02.1-.03.08-.02.16-.05.24-.07Z" fill="none" stroke="red" stroke-miterlimit="10"/>
  <path d="m144.17,134.25h0c-.08.01-.16.02-.24.04-.03,0-.06,0-.09.01.11-.02.21-.03.32-.05Z" fill="none" stroke="red" stroke-miterlimit="10"/>
  <path d="m212.05,154.03l-16.82,10.15c-5.16-14.29-17.18-25.29-32.08-29.04l1.71-19.48c21.28,4.29,38.82,18.89,47.19,38.36Z" fill="#ecc741" stroke="#002346" stroke-miterlimit="10" data-secondary="true"/>
  <path d="m217.34,179.86c0,11.07-2.75,21.51-7.6,30.65l-16.24-10.83c2.87-6,4.47-12.73,4.47-19.83,0-5.47-.95-10.7-2.7-15.57l16.73-10.37s.03.08.05.12c3.41,7.92,5.29,16.65,5.29,25.82Z" fill="#438dca" stroke="#002346" stroke-miterlimit="10"/>
  <path d="m164.9,115.68l-1.74,19.47c-3.61-.91-7.4-1.4-11.29-1.4-11.25,0-21.56,4.03-29.56,10.72l-12.56-14.75c11.39-9.58,26.08-15.34,42.12-15.34,4.45,0,8.8.44,13,1.29.01,0,.02,0,.03,0Z" fill="#39b54a" stroke="#002346" stroke-miterlimit="10"/>
  <path d="m105.75,179.86c0,.53,0,1.06.03,1.58l-19.36.65c-.03-.74-.04-1.49-.04-2.23,0-20.12,9.08-38.12,23.36-50.14l12.46,14.84c-10.06,8.45-16.44,21.13-16.44,35.3Z" fill="#e6e6e6" stroke="#002346" stroke-miterlimit="10"/>
  <path d="m141.22,224.73h0s-4.7,18.8-4.7,18.8c-28.07-6.74-49.1-31.55-50.1-61.44v-.02l19.36-.66c0,.07,0,.14,0,.21,0,.32.03.65.05.97.02.35.04.71.07,1.06,0,.15.03.31.04.46.02.21.04.43.06.64,0,.12.02.24.04.36,0,.05,0,.09.02.14,0,.11.02.23.04.35,0,.08.02.16.03.24.02.16.04.31.06.46.03.26.07.52.11.77.02.11.03.22.05.34.05.28.1.56.15.84,0,.05.01.09.03.14.05.25.09.51.15.76,0,.03.01.07.02.11.03.14.05.27.09.41,0,.03,0,.05.02.07.05.24.11.48.16.72,0,.05.02.1.03.14.06.26.13.52.19.78.03.14.07.28.11.42.07.27.15.54.22.81.03.11.06.23.1.35.07.24.14.48.22.72.06.19.13.39.19.59.05.16.1.31.16.47.04.12.08.24.13.35.07.21.14.42.22.62,0,.02.01.04.03.06.11.33.24.65.37.97.03.08.06.16.09.23.11.28.22.56.34.83.08.2.17.41.27.61.06.14.12.27.18.41.15.33.3.67.46.99.09.19.18.38.28.56.06.14.13.28.21.42,0,.01.02.03.02.04.05.1.11.21.16.31.09.18.19.37.29.55.05.11.11.21.18.32.11.21.23.42.35.62.03.05.05.11.09.16.14.24.28.48.42.71.03.05.05.1.08.14.13.21.25.41.38.62.11.18.23.37.35.55,0,.02.03.04.04.06.13.2.26.4.4.61.2.3.4.6.61.9.09.13.18.25.27.37.12.17.24.34.37.51.15.2.3.4.46.61.13.17.26.34.39.51.11.13.21.26.31.39.08.09.15.19.23.28.12.15.24.29.37.44.15.18.3.35.45.53.08.1.16.19.25.28.09.11.19.21.28.32.03.04.07.08.11.12.03.03.06.07.09.1.09.1.18.19.27.29.07.08.14.16.22.24.14.15.28.3.43.45.16.17.33.34.49.51.1.1.19.19.29.28.19.19.37.37.56.55.07.07.13.13.21.19.11.11.22.21.34.32.04.04.08.08.12.11.08.08.16.16.25.23.16.14.32.29.48.43.04.03.08.07.11.1.21.19.43.38.65.56.06.05.12.1.18.15.15.12.29.24.44.36,0,0,0,0,0,0,.18.15.35.29.53.43.24.19.49.38.73.57.15.12.3.23.46.34.17.13.35.26.53.38.1.08.2.15.3.22.04.03.08.05.11.08.15.11.3.21.45.31.04.03.08.06.12.08.03.03.07.05.11.07.08.05.15.11.23.15.17.12.35.23.53.35.09.06.18.12.27.18.24.16.48.3.72.45.08.05.15.09.22.13.16.09.32.19.48.28.16.09.31.18.47.27.14.08.28.16.42.24.15.08.3.17.45.25.33.18.66.35.99.52.18.09.36.18.54.27.11.05.22.11.33.16.12.06.24.12.36.17.13.07.27.13.41.19.02,0,.03.02.05.02.19.09.37.18.56.26.14.06.28.13.42.19.12.05.25.11.37.16.07.03.13.05.19.08.24.1.47.2.7.29.05.02.1.04.15.06.35.14.7.27,1.05.4.18.07.36.13.54.19.17.06.34.12.51.18.05.02.09.03.14.05.27.09.54.18.81.26.09.03.19.06.28.09.02,0,.03,0,.05.01.07.02.15.05.22.07.05.02.1.03.15.05.26.08.52.15.78.22.25.07.51.14.76.2.2.05.4.11.6.15.12.03.24.06.37.09Z" fill="#002346" stroke="#002346" stroke-miterlimit="10"/>
  <circle cx="241.34" cy="151.43" r="8.84" fill="#09a7c3" stroke="#002346" stroke-linecap="round" stroke-linejoin="round" data-primary="true"/>
  <rect x="263.24" y="143.64" width="76.22" height="4.63" rx="2.32" ry="2.32" fill="#e6e6e6" stroke="#002346" stroke-miterlimit="10"/>
  <rect x="262.81" y="154.59" width="76.22" height="4.63" rx="2.32" ry="2.32" fill="#e6e6e6" stroke="#002346" stroke-miterlimit="10"/>
  <rect x="264.08" y="208.7" width="76.22" height="4.63" rx="2.32" ry="2.32" fill="#e6e6e6" stroke="#002346" stroke-miterlimit="10"/>
  <rect x="263.66" y="219.65" width="76.22" height="4.63" rx="2.32" ry="2.32" fill="#e6e6e6" stroke="#002346" stroke-miterlimit="10"/>
  <circle cx="241.34" cy="185.12" r="8.84" fill="#438dca" stroke="#002346" stroke-miterlimit="10"/>
  <circle cx="241.34" cy="216.7" r="8.84" fill="#ecc741" stroke="#002346" stroke-miterlimit="10" data-secondary="true"/>
  <rect x="262.81" y="177.33" width="39.16" height="4.63" rx="2.32" ry="2.32" fill="#e6e6e6" stroke="#002346" stroke-miterlimit="10"/>
  <rect x="307.45" y="177.33" width="22.74" height="4.63" rx="2.32" ry="2.32" fill="#e6e6e6" stroke="#002346" stroke-miterlimit="10"/>
  <rect x="262.81" y="188.28" width="76.22" height="4.63" rx="2.32" ry="2.32" fill="#e6e6e6" stroke="#002346" stroke-miterlimit="10"/>
  <path d="m709.62,47.91h-214.99c-5.53,0-10.02,4.48-10.02,10.02v91.5c0,5.53,4.48,10.02,10.02,10.02h11.72l-7.79,32.41,41.16-32.41h169.9c5.53,0,10.02-4.48,10.02-10.02V57.93c0-5.53-4.48-10.02-10.02-10.02Z" fill="#fff" stroke="#002346" stroke-miterlimit="10"/>
  <line x1="511.95" y1="140.07" x2="700.99" y2="140.07" fill="none" stroke="#002346" stroke-linecap="round" stroke-linejoin="round"/>
  <polyline points="516.28 72.69 520.66 66.56 525.34 72.02" fill="none" stroke="#002346" stroke-linecap="round" stroke-linejoin="round"/>
  <line x1="520.65" y1="148.76" x2="520.65" y2="66.92" fill="none" stroke="#002346" stroke-linecap="round" stroke-linejoin="round"/>
  <path d="m520.84,130.98s21.53,9.09,25.88-11.55l4.35-28.25s3.26-18.11,16.66-17.02c0,0,9.09.94,11.23,16.54.23,1.69.34,3.4.36,5.11.05,3.24.38,11.59,2.58,17.59,2.05,5.6,9.19,7.45,13.61,3.44.91-.82,1.8-1.87,2.65-3.2l16.3-19.19s11.23-13.04,23.18,5.79l9.78,13.04s9.78,9.05,19.56-.36c0,0,9.42-10.5,19.56-10.14" fill="none" stroke="#002346" stroke-linecap="round" stroke-linejoin="round"/>
                
    </svg>