<svg xmlns="http://www.w3.org/2000/svg" xmlns:xlink="http://www.w3.org/1999/xlink" viewBox="0 0 200 200"><defs><style>.cls-1{isolation:isolate;}.cls-10,.cls-11,.cls-2,.cls-28,.cls-3,.cls-31,.cls-37,.cls-38,.cls-39,.cls-4,.cls-40,.cls-41,.cls-44,.cls-45,.cls-48,.cls-49,.cls-5,.cls-63,.cls-64,.cls-67,.cls-68,.cls-69,.cls-70,.cls-71{mix-blend-mode:screen;}.cls-2{fill:url(#Безымянный_градиент_374);}.cls-3{fill:url(#Безымянный_градиент_374-2);}.cls-4{fill:url(#Безымянный_градиент_374-3);}.cls-5{fill:url(#Безымянный_градиент_374-4);}.cls-12,.cls-13,.cls-14,.cls-15,.cls-16,.cls-17,.cls-18,.cls-19,.cls-20,.cls-21,.cls-22,.cls-23,.cls-24,.cls-25,.cls-26,.cls-27,.cls-29,.cls-30,.cls-32,.cls-33,.cls-34,.cls-35,.cls-36,.cls-42,.cls-43,.cls-46,.cls-47,.cls-50,.cls-51,.cls-52,.cls-53,.cls-54,.cls-55,.cls-56,.cls-57,.cls-58,.cls-59,.cls-6,.cls-60,.cls-61,.cls-62,.cls-65,.cls-66,.cls-7,.cls-72,.cls-73,.cls-74,.cls-75,.cls-76,.cls-77,.cls-78,.cls-79,.cls-8,.cls-80,.cls-81,.cls-82,.cls-9{mix-blend-mode:color-dodge;}.cls-6{fill:url(#Безымянный_градиент_374-5);}.cls-7{fill:url(#Безымянный_градиент_374-6);}.cls-8{fill:url(#Безымянный_градиент_374-7);}.cls-9{fill:url(#Безымянный_градиент_374-8);}.cls-10{fill:url(#Безымянный_градиент_374-9);}.cls-11{fill:url(#Безымянный_градиент_374-10);}.cls-12{fill:url(#Безымянный_градиент_374-11);}.cls-13{fill:url(#Безымянный_градиент_374-12);}.cls-14{fill:url(#Безымянный_градиент_374-13);}.cls-15{fill:url(#Безымянный_градиент_374-14);}.cls-16{fill:url(#Безымянный_градиент_374-15);}.cls-17{fill:url(#Безымянный_градиент_374-16);}.cls-18{fill:url(#Безымянный_градиент_374-17);}.cls-19{fill:url(#Безымянный_градиент_374-18);}.cls-20{fill:url(#Безымянный_градиент_374-19);}.cls-21{fill:url(#Безымянный_градиент_374-20);}.cls-22{fill:url(#Безымянный_градиент_374-21);}.cls-23{fill:url(#Безымянный_градиент_374-22);}.cls-24{fill:url(#Безымянный_градиент_374-23);}.cls-25{fill:url(#Безымянный_градиент_374-24);}.cls-26{fill:url(#Безымянный_градиент_374-25);}.cls-27{fill:url(#Безымянный_градиент_374-26);}.cls-28{fill:url(#Безымянный_градиент_374-27);}.cls-29{fill:url(#Безымянный_градиент_374-28);}.cls-30{fill:url(#Безымянный_градиент_374-29);}.cls-31{fill:url(#Безымянный_градиент_374-30);}.cls-32{fill:url(#Безымянный_градиент_374-31);}.cls-33{fill:url(#Безымянный_градиент_374-32);}.cls-34{fill:url(#Безымянный_градиент_374-33);}.cls-35{fill:url(#Безымянный_градиент_374-34);}.cls-36{fill:url(#Безымянный_градиент_374-35);}.cls-37{fill:url(#Безымянный_градиент_374-36);}.cls-38{fill:url(#Безымянный_градиент_374-37);}.cls-39{fill:url(#Безымянный_градиент_374-38);}.cls-40{fill:url(#Безымянный_градиент_374-39);}.cls-41{fill:url(#Безымянный_градиент_374-40);}.cls-42{fill:url(#Безымянный_градиент_374-41);}.cls-43{fill:url(#Безымянный_градиент_374-42);}.cls-44{fill:url(#Безымянный_градиент_374-43);}.cls-45{fill:url(#Безымянный_градиент_374-44);}.cls-46{fill:url(#Безымянный_градиент_374-45);}.cls-47{fill:url(#Безымянный_градиент_374-46);}.cls-48{fill:url(#Безымянный_градиент_374-47);}.cls-49{fill:url(#Безымянный_градиент_374-48);}.cls-50{fill:url(#Безымянный_градиент_374-49);}.cls-51{fill:url(#Безымянный_градиент_374-50);}.cls-52{fill:url(#Безымянный_градиент_374-51);}.cls-53{fill:url(#Безымянный_градиент_374-52);}.cls-54{fill:url(#Безымянный_градиент_374-53);}.cls-55{fill:url(#Безымянный_градиент_374-54);}.cls-56{fill:url(#Безымянный_градиент_374-55);}.cls-57{fill:url(#Безымянный_градиент_374-56);}.cls-58{fill:url(#Безымянный_градиент_374-57);}.cls-59{fill:url(#Безымянный_градиент_374-58);}.cls-60{fill:url(#Безымянный_градиент_374-59);}.cls-61{fill:url(#Безымянный_градиент_374-60);}.cls-62{fill:url(#Безымянный_градиент_374-61);}.cls-63{fill:url(#Безымянный_градиент_374-62);}.cls-64{fill:url(#Безымянный_градиент_374-63);}.cls-65{fill:url(#Безымянный_градиент_374-64);}.cls-66{fill:url(#Безымянный_градиент_374-65);}.cls-67{fill:url(#Безымянный_градиент_374-66);}.cls-68{fill:url(#Безымянный_градиент_374-67);}.cls-69{fill:url(#Безымянный_градиент_374-68);}.cls-70{fill:url(#Безымянный_градиент_374-69);}.cls-71{fill:url(#Безымянный_градиент_374-70);}.cls-72{fill:url(#Безымянный_градиент_374-71);}.cls-73{fill:url(#Безымянный_градиент_374-72);}.cls-74{fill:url(#Безымянный_градиент_374-73);}.cls-75{fill:url(#Безымянный_градиент_374-74);}.cls-76{fill:url(#Безымянный_градиент_374-75);}.cls-77{fill:url(#Безымянный_градиент_374-76);}.cls-78{fill:url(#Безымянный_градиент_374-77);}.cls-79{fill:url(#Безымянный_градиент_374-78);}.cls-80{fill:url(#Безымянный_градиент_374-79);}.cls-81{fill:url(#Безымянный_градиент_374-80);}.cls-82{fill:url(#Безымянный_градиент_374-81);}</style><linearGradient id="Безымянный_градиент_374" x1="-1.44" y1="115.26" x2="-0.92" y2="-57.08" gradientUnits="userSpaceOnUse"><stop offset="0" stop-color="#faf9f9"/><stop offset="0.42" stop-color="#f8f7f7"/><stop offset="0.6" stop-color="#f1f0f0"/><stop offset="0.73" stop-color="#e5e3e3"/><stop offset="0.84" stop-color="#d3d2d2"/><stop offset="0.94" stop-color="#bdbbbb"/><stop offset="1" stop-color="#a9a7a7"/></linearGradient><linearGradient id="Безымянный_градиент_374-2" x1="0.51" y1="115.26" x2="1.03" y2="-57.08" xlink:href="#Безымянный_градиент_374"/><linearGradient id="Безымянный_градиент_374-3" x1="2.88" y1="115.27" x2="3.4" y2="-57.07" xlink:href="#Безымянный_градиент_374"/><linearGradient id="Безымянный_градиент_374-4" x1="31.85" y1="115.36" x2="32.37" y2="-56.98" xlink:href="#Безымянный_градиент_374"/><linearGradient id="Безымянный_градиент_374-5" x1="82.81" y1="115.51" x2="83.33" y2="-56.83" xlink:href="#Безымянный_градиент_374"/><linearGradient id="Безымянный_градиент_374-6" x1="84.7" y1="2.96" x2="81.07" y2="-153.8" xlink:href="#Безымянный_градиент_374"/><linearGradient id="Безымянный_градиент_374-7" x1="33.58" y1="115.36" x2="34.1" y2="-56.98" xlink:href="#Безымянный_градиент_374"/><linearGradient id="Безымянный_градиент_374-8" x1="42.64" y1="115.39" x2="43.16" y2="-56.95" xlink:href="#Безымянный_градиент_374"/><linearGradient id="Безымянный_градиент_374-9" x1="44.37" y1="115.39" x2="44.89" y2="-56.95" xlink:href="#Безымянный_градиент_374"/><linearGradient id="Безымянный_градиент_374-10" x1="46.44" y1="3.85" x2="42.8" y2="-152.91" xlink:href="#Безымянный_градиент_374"/><linearGradient id="Безымянный_градиент_374-11" x1="28.78" y1="115.35" x2="29.3" y2="-56.99" xlink:href="#Безымянный_градиент_374"/><linearGradient id="Безымянный_градиент_374-12" x1="30.61" y1="115.35" x2="31.13" y2="-56.99" xlink:href="#Безымянный_градиент_374"/><linearGradient id="Безымянный_градиент_374-13" x1="32.85" y1="115.36" x2="33.37" y2="-56.98" xlink:href="#Безымянный_градиент_374"/><linearGradient id="Безымянный_градиент_374-14" x1="35.5" y1="4.11" x2="31.87" y2="-152.66" xlink:href="#Безымянный_градиент_374"/><linearGradient id="Безымянный_градиент_374-15" x1="36.21" y1="115.37" x2="36.73" y2="-56.97" xlink:href="#Безымянный_градиент_374"/><linearGradient id="Безымянный_градиент_374-16" x1="38.16" y1="115.37" x2="38.68" y2="-56.96" xlink:href="#Безымянный_градиент_374"/><linearGradient id="Безымянный_градиент_374-17" x1="40.53" y1="115.38" x2="41.05" y2="-56.96" xlink:href="#Безымянный_градиент_374"/><linearGradient id="Безымянный_градиент_374-18" x1="19.3" y1="115.32" x2="19.82" y2="-57.02" xlink:href="#Безымянный_градиент_374"/><linearGradient id="Безымянный_градиент_374-19" x1="17.7" y1="119.72" x2="18.24" y2="-57.72" xlink:href="#Безымянный_градиент_374"/><linearGradient id="Безымянный_градиент_374-20" x1="15.5" y1="116.26" x2="16.03" y2="-59.81" xlink:href="#Безымянный_градиент_374"/><linearGradient id="Безымянный_градиент_374-21" x1="9.26" y1="115.29" x2="9.78" y2="-57.05" xlink:href="#Безымянный_градиент_374"/><linearGradient id="Безымянный_градиент_374-22" x1="10.99" y1="115.29" x2="11.51" y2="-57.05" xlink:href="#Безымянный_градиент_374"/><linearGradient id="Безымянный_градиент_374-23" x1="12.93" y1="115.3" x2="13.45" y2="-57.04" xlink:href="#Безымянный_градиент_374"/><linearGradient id="Безымянный_градиент_374-24" x1="66.11" y1="115.46" x2="66.63" y2="-56.88" xlink:href="#Безымянный_градиент_374"/><linearGradient id="Безымянный_градиент_374-25" x1="67.76" y1="3.36" x2="64.13" y2="-153.41" xlink:href="#Безымянный_градиент_374"/><linearGradient id="Безымянный_градиент_374-26" x1="69.72" y1="3.31" x2="66.08" y2="-153.45" xlink:href="#Безымянный_градиент_374"/><linearGradient id="Безымянный_градиент_374-27" x1="50.28" y1="115.41" x2="50.8" y2="-56.93" xlink:href="#Безымянный_градиент_374"/><linearGradient id="Безымянный_градиент_374-28" x1="52.89" y1="3.7" x2="49.26" y2="-153.06" xlink:href="#Безымянный_градиент_374"/><linearGradient id="Безымянный_градиент_374-29" x1="56.32" y1="115.43" x2="56.84" y2="-56.91" xlink:href="#Безымянный_градиент_374"/><linearGradient id="Безымянный_градиент_374-30" x1="57.94" y1="115.44" x2="58.46" y2="-56.91" xlink:href="#Безымянный_градиент_374"/><linearGradient id="Безымянный_градиент_374-31" x1="59.68" y1="115.44" x2="60.2" y2="-56.9" xlink:href="#Безымянный_градиент_374"/><linearGradient id="Безымянный_градиент_374-32" x1="61.63" y1="115.45" x2="62.15" y2="-56.89" xlink:href="#Безымянный_градиент_374"/><linearGradient id="Безымянный_градиент_374-33" x1="64" y1="115.45" x2="64.52" y2="-56.89" xlink:href="#Безымянный_градиент_374"/><linearGradient id="Безымянный_градиент_374-34" x1="98.97" y1="115.56" x2="99.49" y2="-56.78" xlink:href="#Безымянный_градиент_374"/><linearGradient id="Безымянный_градиент_374-35" x1="99.05" y1="2.63" x2="95.42" y2="-154.13" xlink:href="#Безымянный_градиент_374"/><linearGradient id="Безымянный_градиент_374-36" x1="96.49" y1="2.69" x2="92.86" y2="-154.07" xlink:href="#Безымянный_градиент_374"/><linearGradient id="Безымянный_градиент_374-37" x1="98.53" y1="2.65" x2="94.89" y2="-154.12" xlink:href="#Безымянный_градиент_374"/><linearGradient id="Безымянный_градиент_374-38" x1="100.48" y1="2.6" x2="96.85" y2="-154.17" xlink:href="#Безымянный_градиент_374"/><linearGradient id="Безымянный_градиент_374-39" x1="101.61" y1="115.57" x2="102.13" y2="-56.77" xlink:href="#Безымянный_градиент_374"/><linearGradient id="Безымянный_градиент_374-40" x1="103.35" y1="115.57" x2="103.87" y2="-56.77" xlink:href="#Безымянный_градиент_374"/><linearGradient id="Безымянный_градиент_374-41" x1="105.3" y1="115.58" x2="105.82" y2="-56.76" xlink:href="#Безымянный_градиент_374"/><linearGradient id="Безымянный_градиент_374-42" x1="107.67" y1="115.58" x2="108.19" y2="-56.76" xlink:href="#Безымянный_градиент_374"/><linearGradient id="Безымянный_градиент_374-43" x1="86.44" y1="115.52" x2="86.96" y2="-56.82" xlink:href="#Безымянный_градиент_374"/><linearGradient id="Безымянный_градиент_374-44" x1="76.76" y1="3.15" x2="73.13" y2="-153.62" xlink:href="#Безымянный_градиент_374"/><linearGradient id="Безымянный_градиент_374-45" x1="78.51" y1="3.11" x2="74.88" y2="-153.66" xlink:href="#Безымянный_градиент_374"/><linearGradient id="Безымянный_градиент_374-46" x1="80.47" y1="3.06" x2="76.83" y2="-153.7" xlink:href="#Безымянный_градиент_374"/><linearGradient id="Безымянный_градиент_374-47" x1="136.72" y1="115.67" x2="137.24" y2="-56.67" xlink:href="#Безымянный_градиент_374"/><linearGradient id="Безымянный_градиент_374-48" x1="138.45" y1="115.68" x2="138.97" y2="-56.66" xlink:href="#Безымянный_градиент_374"/><linearGradient id="Безымянный_градиент_374-49" x1="147.43" y1="115.7" x2="147.95" y2="-56.64" xlink:href="#Безымянный_градиент_374"/><linearGradient id="Безымянный_градиент_374-50" x1="149.16" y1="115.71" x2="149.68" y2="-56.63" xlink:href="#Безымянный_градиент_374"/><linearGradient id="Безымянный_градиент_374-51" x1="151.1" y1="115.72" x2="151.62" y2="-56.62" xlink:href="#Безымянный_градиент_374"/><linearGradient id="Безымянный_градиент_374-52" x1="133.56" y1="115.66" x2="134.08" y2="-56.68" xlink:href="#Безымянный_градиент_374"/><linearGradient id="Безымянный_градиент_374-53" x1="135.39" y1="115.67" x2="135.91" y2="-56.67" xlink:href="#Безымянный_градиент_374"/><linearGradient id="Безымянный_градиент_374-54" x1="137.63" y1="115.67" x2="138.15" y2="-56.66" xlink:href="#Безымянный_градиент_374"/><linearGradient id="Безымянный_градиент_374-55" x1="145.32" y1="115.7" x2="145.84" y2="-56.64" xlink:href="#Безымянный_градиент_374"/><linearGradient id="Безымянный_градиент_374-56" x1="120.34" y1="115.62" x2="120.86" y2="-56.72" xlink:href="#Безымянный_градиент_374"/><linearGradient id="Безымянный_градиент_374-57" x1="122.02" y1="115.63" x2="122.54" y2="-56.71" xlink:href="#Безымянный_градиент_374"/><linearGradient id="Безымянный_градиент_374-58" x1="124.08" y1="115.63" x2="124.6" y2="-56.71" xlink:href="#Безымянный_градиент_374"/><linearGradient id="Безымянный_градиент_374-59" x1="111.92" y1="115.6" x2="112.44" y2="-56.74" xlink:href="#Безымянный_градиент_374"/><linearGradient id="Безымянный_градиент_374-60" x1="115.78" y1="115.61" x2="116.3" y2="-56.73" xlink:href="#Безымянный_градиент_374"/><linearGradient id="Безымянный_градиент_374-61" x1="117.72" y1="115.62" x2="118.24" y2="-56.72" xlink:href="#Безымянный_градиент_374"/><linearGradient id="Безымянный_градиент_374-62" x1="170.65" y1="115.77" x2="171.17" y2="-56.56" xlink:href="#Безымянный_градиент_374"/><linearGradient id="Безымянный_градиент_374-63" x1="172.63" y1="115.78" x2="173.15" y2="-56.56" xlink:href="#Безымянный_градиент_374"/><linearGradient id="Безымянный_градиент_374-64" x1="174.57" y1="115.79" x2="175.09" y2="-56.55" xlink:href="#Безымянный_градиент_374"/><linearGradient id="Безымянный_градиент_374-65" x1="155.07" y1="115.73" x2="155.59" y2="-56.61" xlink:href="#Безымянный_градиент_374"/><linearGradient id="Безымянный_градиент_374-66" x1="157.51" y1="115.73" x2="158.03" y2="-56.6" xlink:href="#Безымянный_градиент_374"/><linearGradient id="Безымянный_градиент_374-67" x1="161.11" y1="115.75" x2="161.63" y2="-56.59" xlink:href="#Безымянный_градиент_374"/><linearGradient id="Безымянный_градиент_374-68" x1="162.73" y1="115.75" x2="163.25" y2="-56.59" xlink:href="#Безымянный_градиент_374"/><linearGradient id="Безымянный_градиент_374-69" x1="164.47" y1="115.76" x2="164.99" y2="-56.58" xlink:href="#Безымянный_градиент_374"/><linearGradient id="Безымянный_градиент_374-70" x1="166.42" y1="115.76" x2="166.93" y2="-56.58" xlink:href="#Безымянный_градиент_374"/><linearGradient id="Безымянный_градиент_374-71" x1="168.79" y1="115.77" x2="169.31" y2="-56.57" xlink:href="#Безымянный_градиент_374"/><linearGradient id="Безымянный_градиент_374-72" x1="179.98" y1="115.8" x2="180.5" y2="-56.54" xlink:href="#Безымянный_градиент_374"/><linearGradient id="Безымянный_градиент_374-73" x1="182.27" y1="0.7" x2="178.64" y2="-156.06" xlink:href="#Безымянный_градиент_374"/><linearGradient id="Безымянный_градиент_374-74" x1="184.47" y1="0.65" x2="180.84" y2="-156.11" xlink:href="#Безымянный_градиент_374"/><linearGradient id="Безымянный_градиент_374-75" x1="186.19" y1="0.61" x2="182.55" y2="-156.15" xlink:href="#Безымянный_градиент_374"/><linearGradient id="Безымянный_градиент_374-76" x1="188.11" y1="0.57" x2="184.48" y2="-156.2" xlink:href="#Безымянный_градиент_374"/><linearGradient id="Безымянный_градиент_374-77" x1="190.21" y1="0.52" x2="186.58" y2="-156.24" xlink:href="#Безымянный_градиент_374"/><linearGradient id="Безымянный_градиент_374-78" x1="202.85" y1="0.23" x2="199.22" y2="-156.54" xlink:href="#Безымянный_градиент_374"/><linearGradient id="Безымянный_градиент_374-79" x1="196.62" y1="0.37" x2="192.99" y2="-156.4" xlink:href="#Безымянный_градиент_374"/><linearGradient id="Безымянный_градиент_374-80" x1="198.38" y1="0.33" x2="194.74" y2="-156.44" xlink:href="#Безымянный_градиент_374"/><linearGradient id="Безымянный_градиент_374-81" x1="200.33" y1="0.29" x2="196.69" y2="-156.48" xlink:href="#Безымянный_градиент_374"/></defs><g class="cls-1"><g id="Layer_1" data-name="Layer 1"><path class="cls-2" d="M-3.43,64.14a.8.8,0,0,0-.58.77.8.8,0,0,0,.8.8.8.8,0,0,0,.8-.8A.8.8,0,0,0-3,64.14V54.31H1.48V-94.24H1.05V53.88H-3.43Z"/><path class="cls-3" d="M-1.06,66.05V56.31H3.42V-94.95H3V55.88H-1.49V66.05a.81.81,0,0,0-.59.77.8.8,0,0,0,.81.8.8.8,0,0,0,.8-.8A.83.83,0,0,0-1.06,66.05Z"/><path class="cls-4" d="M5.05,61.23H.57V77.1H5.48V64.54H2.94V71.7a.8.8,0,1,0,.42,0V65H5.05V76.67H1v-15H5.48V-83.41H5.05Z"/><path class="cls-5" d="M41,101.72V87.14L35.89,82V53.38H23.23V-99.89h-.42V53.8H35.47V82.22l5.09,5.09v14.41a.79.79,0,0,0-.58.76.8.8,0,1,0,1.6,0A.78.78,0,0,0,41,101.72Z"/><path class="cls-6" d="M85.53,115.91V100.53l-5.1-5.1V76h3.89V48.33L80.19,44.5V32.68h4.52V-100a.79.79,0,0,0,.59-.76.8.8,0,0,0-.8-.81.8.8,0,0,0-.8.81.79.79,0,0,0,.59.76V32.25H79.77V44.68l4.12,3.83V75.58H80v20l5.1,5.09v15.2a.8.8,0,1,0,1,.77A.79.79,0,0,0,85.53,115.91Z"/><path class="cls-7" d="M87.26,113.19V100.48l-5.09-5.09V78h4.48V47.24l-4.48-4.53v-8h4.48V-107a.8.8,0,0,0,.59-.77.8.8,0,0,0-.8-.8.8.8,0,0,0-.8.8.8.8,0,0,0,.59.77V34.33H81.74v8.56l4.48,4.52V77.55H81.74v18l5.1,5.1v12.5a.8.8,0,0,0,.16,1.58.8.8,0,0,0,.81-.8A.79.79,0,0,0,87.26,113.19Z"/><path class="cls-8" d="M42.73,98.15V86.26l-5.1-5.09V51.42H25V-99.89h-.43V51.85H37.2V81.34l5.1,5.1V98.15a.79.79,0,0,0-.59.76.8.8,0,1,0,1.6,0A.79.79,0,0,0,42.73,98.15Z"/><path class="cls-9" d="M45.26,84.21V69.64l-5.1-5.1v-20h4.48V-103.19h-.42V44.11H39.74v20.6l5.1,5.1v14.4a.81.81,0,0,0-.59.77.8.8,0,0,0,1.6,0A.81.81,0,0,0,45.26,84.21Z"/><path class="cls-10" d="M47,80.65V68.76l-5.1-5.09V46.26h4.48V-104.06H46V45.83H41.48v18l5.09,5.1V80.65a.79.79,0,0,0-.58.77.8.8,0,1,0,1-.77Z"/><path class="cls-11" d="M48.94,79.94V68.05L43.84,63V48.26h4.48v-153h-.43V47.84H43.41V63.13l5.1,5.1V79.94a.8.8,0,1,0,.43,0Z"/><path class="cls-12" d="M26.89,44.61a.8.8,0,0,0,.77-.59h4.23V36.64l-5.1-5.1v-20h4.48V-89.77h-.42V11.11H26.37v20.6l5.09,5.1v6.78h-3.8a.8.8,0,1,0-.77,1Z"/><path class="cls-13" d="M28.1,30.84l5.1,5.1V46.06H30.78a.79.79,0,0,0-.76-.59.81.81,0,1,0,.76,1h2.85V35.76l-5.1-5.1V13.26H33V-90.64h-.43V12.83H28.1Z"/><path class="cls-14" d="M30,30.13l5.1,5.1V48.6a.8.8,0,1,0,.42,0V35.05L30.47,30V15.26H35V-91.35h-.43V14.84H30Z"/><path class="cls-15" d="M32.59,26.39a.8.8,0,1,0,.43,0V17.5H37.5V-83.8h-.43V17.07H32.59Z"/><path class="cls-16" d="M34.33,29.05a.8.8,0,1,0,.42,0V19.22h4.48V-84.68h-.42V18.79H34.33Z"/><path class="cls-17" d="M36.26,31a.81.81,0,1,0,.43,0V21.22h4.48V-85.39h-.43V20.8H36.26Z"/><path class="cls-18" d="M38.32,42h4.91V29.45H40.69v7.16a.8.8,0,1,0,.42,0V29.87H42.8V41.59h-4v-15h4.48V-73.85H42.8v100H38.32Z"/><path class="cls-19" d="M21.86,98.23V86.34l-5.1-5.09V66.55h4.48V-99.89h-.42v166H16.34V81.42l5.1,5.1V98.23a.8.8,0,1,0,.42,0Z"/><path class="cls-20" d="M20.28,102.17v-14l-5.1-5.1V64.58h4.48V-101.86h-.43v166H14.76V83.25l5.09,5.09v13.83a.8.8,0,1,0,1,.77A.8.8,0,0,0,20.28,102.17Z"/><path class="cls-21" d="M18.07,98.83V89.08L13,84V62.83h4.48V-103.61H17v166H12.55V84.16l5.1,5.1v9.57a.8.8,0,1,0,.42,0Z"/><path class="cls-22" d="M12,60.11v-21L6.87,34V14h4.48V-87.33h-.43V13.55H6.44v20.6l5.1,5.1V60.11a.8.8,0,1,0,.42,0Z"/><path class="cls-23" d="M12.69,56.19a.8.8,0,1,0,1.6,0,.79.79,0,0,0-.59-.76V38.2L8.6,33.1V15.69h4.48V-88.2h-.42V15.27H8.18v18l5.09,5.1v17A.79.79,0,0,0,12.69,56.19Z"/><path class="cls-24" d="M10.12,32.57l5.09,5.1V51.31a.81.81,0,1,0,.43,0V37.49l-5.1-5.1V17.7H15V-88.91H14.6V17.27H10.12Z"/><path class="cls-25" d="M68.69,96.79V82.21l-5.09-5.1v-20h4.48V-103.52h-.43V56.68H63.17V77.29l5.1,5.09V96.79a.8.8,0,1,0,.42,0Z"/><path class="cls-26" d="M70.43,93.22V81.34l-5.1-5.1V58.83h4.48V-104.39h-.42V58.4H64.91v18l5.1,5.1V93.22a.8.8,0,1,0,.42,0Z"/><path class="cls-27" d="M72.37,92.51V80.62l-5.1-5.09V60.84h4.48V-105.1h-.42V60.41H66.85V75.7l5.09,5.1V92.51a.81.81,0,1,0,.43,0Z"/><path class="cls-28" d="M54.9,56.16H47.17a.81.81,0,1,0,0,.43h8.15V49.21l-5.09-5.1v-20h4.48V-77.2h-.43V23.68H49.8V44.29l5.1,5.09Z"/><path class="cls-29" d="M52,25.83h4.48V-78.07H56V25.4H51.54v18l5.09,5.1V58.63H50.29a.8.8,0,0,0-.77-.59.81.81,0,0,0,0,1.61.8.8,0,0,0,.77-.59h6.77V48.33L52,43.24Z"/><path class="cls-30" d="M59,66.43V47.62l-5.1-5.1V27.83h4.48V-78.78H58V27.4H53.48V42.7l5.09,5.1V66.43a.79.79,0,0,0-.59.76.8.8,0,1,0,1.6,0A.78.78,0,0,0,59,66.43Z"/><path class="cls-31" d="M56,39a.79.79,0,0,0-.58.77.8.8,0,1,0,1-.77V30.07h4.48V-71.23H60.5V29.64H56Z"/><path class="cls-32" d="M57.76,41.62a.8.8,0,1,0,.43,0V31.79h4.47V-72.11h-.42V31.36H57.76Z"/><path class="cls-33" d="M60.12,43.54V33.79H64.6V-72.82h-.42V33.37H59.7V43.54a.8.8,0,1,0,.42,0Z"/><path class="cls-34" d="M66.66,42H64.12v7.17a.78.78,0,0,0-.59.76.8.8,0,1,0,1-.76V42.44h1.69V54.16H62.18v-15h4.48V-103.52h-.42V38.72H61.76V54.59h4.9Z"/><path class="cls-35" d="M108.09,114.33V99.76L103,94.66V66H90.34V-100.78h-.43V66.42h12.66V94.84l5.1,5.09v14.4a.8.8,0,1,0,.42,0Z"/><path class="cls-36" d="M109.83,110.77V98.88l-5.1-5.09V64H92.07V-100.78h-.43V64.47h12.67V94l5.1,5.1v11.71a.8.8,0,1,0,.42,0Z"/><path class="cls-37" d="M94,57.23a.79.79,0,0,0,.76-.59H99V49.26l-5.09-5.1v-20h4.48V-112.16H98V23.73H93.47V44.34l5.1,5.09v6.78H94.76a.79.79,0,0,0-.76-.58.8.8,0,1,0,0,1.6Z"/><path class="cls-38" d="M95.21,43.46l5.09,5.1V58.68H97.89a.81.81,0,0,0-.77-.58.8.8,0,1,0,.77,1h2.84V48.38l-5.1-5.1V25.88h4.48V-113h-.42V25.45H95.21Z"/><path class="cls-39" d="M97.14,42.75l5.1,5.1V61.22a.81.81,0,1,0,.43,0V47.67l-5.1-5.09V27.88h4.48V-113.75h-.43V27.46H97.14Z"/><path class="cls-40" d="M99.69,39a.81.81,0,0,0-.58.77.8.8,0,1,0,1-.77V30.12h4.48V-106.2h-.43V29.7H99.69Z"/><path class="cls-41" d="M101.43,41.67a.8.8,0,1,0,.43,0V31.84h4.47V-107.07h-.42V31.42h-4.48Z"/><path class="cls-42" d="M103.37,43.59a.8.8,0,1,0,.42,0V33.85h4.48V-107.78h-.42V33.42h-4.48Z"/><path class="cls-43" d="M105.43,54.64h4.9V42.07h-2.54v7.16a.81.81,0,0,0-.59.77.8.8,0,1,0,1-.77V42.5h1.69V54.21h-4.06v-15h4.48V-96.25h-.42v135h-4.48Z"/><path class="cls-44" d="M89,110.85V99l-5.1-5.1V79.17h4.48V-100.78h-.43V78.75H83.44V94l5.1,5.1v11.71a.8.8,0,1,0,.43,0Z"/><path class="cls-45" d="M79.07,72.73v-21L74,46.6v-20h4.48V-106.14H78V26.17H73.54v20.6l5.1,5.1V72.73a.81.81,0,1,0,.43,0Z"/><path class="cls-46" d="M79.79,68.82a.8.8,0,1,0,1-.77V50.82l-5.09-5.1V28.32h4.48V-107h-.43V27.89H75.28v18l5.1,5.1v17A.8.8,0,0,0,79.79,68.82Z"/><path class="cls-47" d="M77.22,45.19l5.1,5.1V63.93a.8.8,0,1,0,.42,0V50.11L77.65,45V30.32h4.48v-138H81.7V29.89H77.22Z"/><path class="cls-48" d="M145.85,79.25V64.67l-5.1-5.09V30.91H128.09V-68.68h-.43v100h12.66V59.75l5.1,5.1v14.4a.8.8,0,1,0,.43,0Z"/><path class="cls-49" d="M147.58,75.68V63.8l-5.09-5.1V29H129.82V-68.68h-.42V29.38h12.66v29.5l5.1,5.09V75.68a.8.8,0,1,0,.42,0Z"/><path class="cls-50" d="M150.12,61.75V47.17L145,42.08v-20h4.48V-87.81h-.43V21.65h-4.48v20.6l5.1,5.1v14.4a.8.8,0,0,0,.21,1.57.8.8,0,0,0,.81-.8A.82.82,0,0,0,150.12,61.75Z"/><path class="cls-51" d="M151.85,58.18V46.3l-5.09-5.1V23.79h4.48V-88.68h-.43V23.37h-4.48v18l5.1,5.1v11.7a.8.8,0,1,0,.42,0Z"/><path class="cls-52" d="M153.79,57.47V45.59l-5.1-5.1V25.8h4.49V-89.39h-.43V25.37h-4.48v15.3l5.1,5.1v11.7a.81.81,0,0,0-.59.77.8.8,0,0,0,1.6,0A.81.81,0,0,0,153.79,57.47Z"/><path class="cls-53" d="M131.75,22.14a.81.81,0,0,0,.77-.58h4.23V14.17l-5.1-5.1v-20h4.48v-83h-.43v82.58h-4.48V9.25l5.1,5.1v6.78h-3.8a.8.8,0,1,0-.77,1Z"/><path class="cls-54" d="M133,8.38l5.1,5.09V23.6h-2.42a.8.8,0,1,0,0,.42h2.84V13.3l-5.1-5.1V-9.21h4.49V-94.82h-.43V-9.63H133Z"/><path class="cls-55" d="M134.9,7.67,140,12.76V26.13a.81.81,0,1,0,.43,0V12.59l-5.1-5.1V-7.2h4.48V-95.53h-.42v87.9H134.9Z"/><path class="cls-56" d="M148.09,7h-2.55v7.17a.81.81,0,1,0,.43,0V7.41h1.69V19.12h-4v-15h4.48v-109h-.43V3.68h-4.48V19.55h4.91Z"/><path class="cls-57" d="M118.18,40.92h3.89V13.24L118,9.41V-2.41h4.52V-67.88a.79.79,0,0,0,.58-.77.79.79,0,0,0-.79-.8.8.8,0,0,0-.81.8.8.8,0,0,0,.59.77v65h-4.52V9.59l4.13,3.84V40.5h-3.89v20l5.09,5.1V80.86h0a.48.48,0,0,0-.14.87.64.64,0,0,0,.34.12.89.89,0,0,0,.38-.13.52.52,0,0,0-.09-.86l-.06,0V65.44l-5.1-5.1Z"/><path class="cls-58" d="M119.92,42.89h4.48V12.15l-4.48-4.52v-8h4.49V-74.9a.81.81,0,0,0,.58-.77.8.8,0,0,0-.8-.8.8.8,0,0,0-.8.8.8.8,0,0,0,.59.77V-.75h-4.49V7.8L124,12.33V42.47h-4.48v18l5.1,5.1V78.85H125V65.4l-5.1-5.1Z"/><path class="cls-59" d="M126.72,75.76V63.88l-5.1-5.1V44.09h4.48V-68.68h-.43V43.66H121.2V59l5.09,5.1v11.7a.81.81,0,0,0-.58.77.79.79,0,0,0,.79.8.8.8,0,0,0,.22-1.57Z"/><path class="cls-60" d="M116.82,37.65v-21l-5.1-5.1v-20h4.48v-83h-.42V-8.92H111.3V11.69l0,0v45h-4.48V77.34l5.1,5.1v14.4a.79.79,0,0,0-.59.76.8.8,0,1,0,1.6,0,.79.79,0,0,0-.58-.76V82.26l-5.1-5.1v-20h4.48v-45l1.31,1.31v45h-4.48v18l5.09,5.1V93.27a.81.81,0,1,0,.43,0V81.39l-5.1-5.1V58.88h4.48v-45L115,15.39V60.46h-4.48v15.3l5.09,5.09V92.56a.8.8,0,1,0,1,.77.8.8,0,0,0-.59-.77V80.67l-5.1-5.09V60.88h4.48V15.81l1,1V37.65a.81.81,0,1,0,.43,0Z"/><path class="cls-61" d="M117.54,33.73a.81.81,0,1,0,1-.77V15.74l-5.1-5.1V-6.77h4.48V-92.38h-.43V-7.2H113v18l5.09,5.1V33A.8.8,0,0,0,117.54,33.73Z"/><path class="cls-62" d="M115,10.1l5.1,5.1V28.84a.81.81,0,0,0-.59.77.8.8,0,0,0,1.6,0,.82.82,0,0,0-.58-.77V15l-5.1-5.09V-4.76h4.48V-93.09h-.43v87.9H115Z"/><path class="cls-63" d="M173.55,74.32V59.75l-5.1-5.1v-20h4.48V-86.49h-.42V34.22H168V62.76a.8.8,0,1,0,.42,0V55.25l1.32,1.31V69.47a.78.78,0,0,0-.59.77.8.8,0,1,0,1-.77V57l2.93,2.94v14.4a.79.79,0,0,0-.58.77.8.8,0,1,0,1-.77Z"/><path class="cls-64" d="M175.29,70.75V58.87l-5.1-5.1V36.37h4.48V-87.36h-.43V35.94h-4.47V54l5.09,5.1v11.7a.8.8,0,1,0,.43,0Z"/><path class="cls-65" d="M177.23,70V58.16l-5.1-5.1V38.37h4.48V-88.07h-.43v126H171.7v15.3l5.1,5.1V70a.81.81,0,0,0-.59.77.8.8,0,1,0,1.6,0A.82.82,0,0,0,177.23,70Z"/><path class="cls-66" d="M159.75,33.7H152a.81.81,0,0,0-.77-.59.8.8,0,1,0,.77,1h8.15V26.74l-5.1-5.09v-20h4.48v-83h-.42V1.21h-4.48V21.82l5.09,5.1Z"/><path class="cls-67" d="M156.82,3.36h4.48v-85.6h-.43V2.94h-4.48V21l5.1,5.09V36.17h-6.34a.8.8,0,1,0,0,.42h6.77V25.87l-5.1-5.1Z"/><path class="cls-68" d="M163.86,44V25.16l-5.1-5.1V5.37h4.48V-83h-.43V4.94h-4.48v15.3l5.1,5.09V44a.8.8,0,1,0,.43,0Z"/><path class="cls-69" d="M160.88,16.5a.79.79,0,0,0-.59.76.8.8,0,1,0,1.6,0,.79.79,0,0,0-.58-.76V7.61h4.48v-83h-.43V7.18h-4.48Z"/><path class="cls-70" d="M162.62,19.16a.8.8,0,1,0,.42,0V9.33h4.48V-76.28h-.43V8.9h-4.47Z"/><path class="cls-71" d="M165,21.08V11.33h4.48V-77H169v87.9h-4.48V21.08a.81.81,0,1,0,.43,0Z"/><path class="cls-72" d="M171.52,19.56H169v7.16a.8.8,0,1,0,.42,0V20h1.69V31.7H167v-15h4.48V-65.46h-.43V16.26h-4.48V32.12h4.91Z"/><path class="cls-73" d="M177.83,38.68h4.48V-94.74h-.43v133H177.4v18l5.1,5.1V71.49h-2.42a.8.8,0,1,0,0,.42h2.85V61.19l-5.1-5.1Z"/><path class="cls-74" d="M184.86,74V60.48l-5.09-5.1V40.69h4.48V-95.44h-.43V40.26h-4.48v15.3l5.1,5.1V74a.8.8,0,1,0,.42,0Z"/><path class="cls-75" d="M181.89,51.82a.79.79,0,0,0-.59.76.8.8,0,1,0,1.6,0,.79.79,0,0,0-.59-.76V42.93h4.49V-87.9h-.43V42.5h-4.48Z"/><path class="cls-76" d="M183.63,54.48a.8.8,0,1,0,.42,0V44.65h4.48V-88.77h-.43v133h-4.47Z"/><path class="cls-77" d="M186,56.4V46.65h4.48V-89.48H190V46.22h-4.48V56.4a.81.81,0,1,0,.43,0Z"/><path class="cls-78" d="M192.1,51.58h-4.48V67.44h4.91V54.88H190V62a.8.8,0,1,0,.42,0V55.3h1.69V67h-4V52h4.48V-77.95h-.43Z"/><path class="cls-79" d="M200.38,53.73h3.89V26.05l-4.13-3.84V10.39h4.52v-104a.8.8,0,0,0,.59-.77.8.8,0,0,0-.8-.8.8.8,0,0,0-.8.8.8.8,0,0,0,.59.77V10h-4.52V22.4l4.12,3.83V53.3H200v20l5.1,5.09v16h.42V78.24l-5.09-5.09Z"/><path class="cls-80" d="M199,50.45v-21l-5.1-5.09v-20h4.48V-81.86H198V3.89h-4.48v20.6l5.1,5.1V50.45a.8.8,0,1,0,.43,0Z"/><path class="cls-81" d="M199.74,46.54a.8.8,0,1,0,1-.77V28.54l-5.09-5.1V6h4.48V-82.74h-.43V5.61h-4.48v18l5.1,5.1V45.77A.8.8,0,0,0,199.74,46.54Z"/><path class="cls-82" d="M197.17,22.91l5.09,5.1V41.65a.81.81,0,1,0,.43,0V27.83l-5.1-5.1V8h4.48V-83.45h-.42V7.61h-4.48Z"/></g></g></svg>