<svg id="Слой_1" data-name="Слой 1" xmlns="http://www.w3.org/2000/svg" viewBox="0 0 84.3 86.28"><defs><style>.cls-1{fill:#6b6ff2;}.cls-1,.cls-2,.cls-3,.cls-4{fill-rule:evenodd;}.cls-2{fill:#4e9ff4;}.cls-3{fill:#4e4ee6;}.cls-4{fill:#fff;}</style></defs><path class="cls-1" d="M14.7,71.3V14.5a7.85,7.85,0,0,1,2.6-6.1A6,6,0,0,1,23.1,7l4.1,1.2V77.7l-4.1,1.2a6,6,0,0,1-5.8-1.4,8.38,8.38,0,0,1-2.6-6.2"/><path class="cls-2" d="M0,63.1V22.6a5.37,5.37,0,0,1,1.8-4.3,4.17,4.17,0,0,1,4.1-1l5.2,1.5V67.1L6,68.5a4.17,4.17,0,0,1-4.1-1A5.48,5.48,0,0,1,0,63.1"/><path class="cls-3" d="M30.9,77V6.5h0V6.3h0V6.1h0V6h0V5.7l.1-.1V5.5l.8-1h0l.1-.1.1-.1.1-.1L32,4l.1-.1h0l.1-.1.1-.1.1-.1-.1-.1.1-.1h0l.1-.1.1-.1h0l.1-.1.1-.1.1-.1.1-.1.1-.1h0L33,2.6V2.5l.1-.1.1-.1h0l.1-.1.1-.1.1-.1.1-.1.1-.1.1-.1.1-.1.1-.1h0l.1-.1.1-.1.1-.1.1-.1.1-.1.1-.1.1-.1h0l.1-.1.1-.1.1.1.1-.1.1-.1h.2l.1-.1h0l.1-.1.1-.1.1-.1h0l.1-.1.1.1h4.7l4.7,1.4L60.1,5.7l2.8.8,15.3,4c3.6,1,6.1,4.7,6.1,9V66.3c0,4.3-2.5,7.9-6.1,9L60.3,80.4,45.6,84.6,40.9,86A7.09,7.09,0,0,1,34,84.3,9.5,9.5,0,0,1,30.9,77Z"/><polyline class="cls-4" points="72.8 64.9 72.8 20.9 64.5 20.9 64.5 67.3"/><polygon class="cls-4" points="61.7 68.1 61.7 32 53.4 32 53.4 70.5 57.1 69.4 61.7 68.1"/><polygon class="cls-4" points="50.6 71.3 50.6 44.3 42.3 44.3 42.3 73.7 50.6 71.3"/></svg>