<svg id="Слой_1" data-name="Слой 1" xmlns="http://www.w3.org/2000/svg" viewBox="0 0 392.3 86.28"><defs><style>.cls-1{fill:#6b6ff2;}.cls-1,.cls-2,.cls-3,.cls-4{fill-rule:evenodd;}.cls-2{fill:#4e9ff4;}.cls-3{fill:#4e4ee6;}.cls-4,.cls-5{fill:#fff;}</style></defs><path class="cls-1" d="M14.7,71.3V14.5a7.85,7.85,0,0,1,2.6-6.1A6,6,0,0,1,23.1,7l4.1,1.2V77.7l-4.1,1.2a6,6,0,0,1-5.8-1.4,8.38,8.38,0,0,1-2.6-6.2"/><path class="cls-2" d="M0,63.1V22.6a5.37,5.37,0,0,1,1.8-4.3,4.17,4.17,0,0,1,4.1-1l5.2,1.5V67.1L6,68.5a4.17,4.17,0,0,1-4.1-1A5.48,5.48,0,0,1,0,63.1"/><path class="cls-3" d="M30.9,77V6.5h0V6.3h0V6.1h0V6h0V5.7l.1-.1V5.5l.8-1h0l.1-.1.1-.1.1-.1L32,4l.1-.1h0l.1-.1.1-.1.1-.1-.1-.1.1-.1h0l.1-.1.1-.1h0l.1-.1.1-.1.1-.1.1-.1.1-.1h0L33,2.6V2.5l.1-.1.1-.1h0l.1-.1.1-.1.1-.1.1-.1.1-.1.1-.1.1-.1.1-.1h0l.1-.1.1-.1.1-.1.1-.1.1-.1.1-.1.1-.1h0l.1-.1.1-.1.1.1.1-.1.1-.1h.2l.1-.1h0l.1-.1.1-.1.1-.1h0l.1-.1.1.1h4.7l4.7,1.4L60.1,5.7l2.8.8,15.3,4c3.6,1,6.1,4.7,6.1,9V66.3c0,4.3-2.5,7.9-6.1,9L60.3,80.4,45.6,84.6,40.9,86A7.09,7.09,0,0,1,34,84.3,9.5,9.5,0,0,1,30.9,77Z"/><polyline class="cls-4" points="72.8 64.9 72.8 20.9 64.5 20.9 64.5 67.3"/><polygon class="cls-4" points="61.7 68.1 61.7 32 53.4 32 53.4 70.5 57.1 69.4 61.7 68.1"/><polygon class="cls-4" points="50.6 71.3 50.6 44.3 42.3 44.3 42.3 73.7 50.6 71.3"/><path class="cls-5" d="M115.2,5H132V61.8a5.68,5.68,0,0,0,1.5,4.2,6,6,0,0,0,4.4,1.4h26.5l.8,12.6c-5.2.6-10.7.9-16.3,1s-11.3.2-17,.2h0c-5.5,0-9.7-1.5-12.5-4.4a16.05,16.05,0,0,1-4.2-11.4h0Z"/><path class="cls-5" d="M204.5,25.1h0A32.29,32.29,0,0,1,216,26.9a14.36,14.36,0,0,1,7.2,6.1c1.6,2.9,2.5,6.9,2.5,11.9h0V80.8h-13L210.4,69l-1.1-1.6V44.9c0-2.6-.6-4.4-1.8-5.6s-3.5-1.8-6.9-1.8h0c-2.8,0-6.3.1-10.4.3s-8.5.4-12.9.7h0l-1.5-10.8a90.24,90.24,0,0,1,9.1-1.3c3.5-.4,6.9-.7,10.4-.9S201.7,25.1,204.5,25.1Z"/><path class="cls-5" d="M189.6,47.4H219l-.1,9.1-24.2.1c-2,0-3.4.5-4.2,1.4a5.81,5.81,0,0,0-1.3,3.8h0v2.7a5.68,5.68,0,0,0,1.5,4.2c1,1,2.7,1.5,4.9,1.5h0a18.34,18.34,0,0,0,6.2-1.2,29.61,29.61,0,0,0,6.6-3.4,28.78,28.78,0,0,0,5.8-5.2h0v7a41.31,41.31,0,0,1-2.9,4.1,28,28,0,0,1-4.9,4.8,29,29,0,0,1-6.9,4,23.29,23.29,0,0,1-9,1.6h0a21.12,21.12,0,0,1-8.9-1.8,15.26,15.26,0,0,1-6.3-5.2,15.17,15.17,0,0,1-2.3-8.5h0V60.8a12.46,12.46,0,0,1,4.4-10.1c3-2.1,7.1-3.3,12.2-3.3Z"/><rect class="cls-5" x="235" y="5" width="16.7" height="75.9"/><rect class="cls-5" x="352.5" y="5" width="16.8" height="75.9"/><rect class="cls-5" x="329.8" y="5" width="62.5" height="13.2"/><path class="cls-5" d="M292.8,4.8h0A51.65,51.65,0,0,1,308,6.7,20.28,20.28,0,0,1,318,13c2.5,2.9,4.3,6.9,5.5,11.9a82.18,82.18,0,0,1,1.8,18.7h0a81.57,81.57,0,0,1-1.8,18.7c-1.2,5-3,9-5.5,11.9a21.5,21.5,0,0,1-10,6.3,51.19,51.19,0,0,1-15.2,1.9h0a51.65,51.65,0,0,1-15.2-1.9,21,21,0,0,1-10.1-6.3,28.08,28.08,0,0,1-5.6-11.9,82.18,82.18,0,0,1-1.8-18.7h0a81.57,81.57,0,0,1,1.8-18.7c1.2-5,3-9,5.6-11.9a21.32,21.32,0,0,1,10.1-6.3A55.75,55.75,0,0,1,292.8,4.8Zm0,13.1h0c-3.9,0-6.9.8-9,2.3s-3.7,4.1-4.6,7.8a69.08,69.08,0,0,0-1.4,15.6h0a68.72,68.72,0,0,0,1.4,15.5c.9,3.8,2.4,6.4,4.6,7.9s5.2,2.3,9,2.3h0c3.8,0,6.8-.8,8.9-2.3s3.7-4.1,4.6-7.9a68.72,68.72,0,0,0,1.4-15.5h0A69.08,69.08,0,0,0,306.3,28c-.9-3.7-2.4-6.3-4.6-7.8S296.6,17.9,292.8,17.9Z"/></svg>