<svg id="Слой_1" data-name="Слой 1" xmlns="http://www.w3.org/2000/svg" viewBox="0 0 392.21 86.8"><defs><style>.cls-1{fill:#6b6ff2;}.cls-1,.cls-2,.cls-3,.cls-4{fill-rule:evenodd;}.cls-2{fill:#4e9ff4;}.cls-3{fill:#4e4ee6;}.cls-4{fill:#fff;}.cls-5{fill:#2d2d2d;}</style></defs><path class="cls-1" d="M14.73,71.79V15a8,8,0,0,1,2.59-6.09,5.89,5.89,0,0,1,5.77-1.4l4.08,1.17c0,.16,0,.31,0,.47V77.64c0,.16,0,.31,0,.47l-4.08,1.17a5.89,5.89,0,0,1-5.77-1.4,8,8,0,0,1-2.59-6.09"/><path class="cls-2" d="M0,63.64V23.11a5.65,5.65,0,0,1,1.85-4.34,4.18,4.18,0,0,1,4.11-1l5.17,1.48V67.5L6,69a4.2,4.2,0,0,1-4.11-1A5.65,5.65,0,0,1,0,63.64"/><path class="cls-3" d="M30.89,77.51V8.07l0-.13V7.81l0-.13,0-.13,0-.13,0-.13,0-.13,0-.13,0-.12,0-.13,0-.13,0-.12,0-.12,0-.13h0l0-.12,0-.12h0l0-.12,0-.12h0l0-.12h0l0-.12.05-.12,0-.11.05-.12.05-.11L31.78,5h0l.06-.11.05-.11L32,4.65,32,4.53l.06-.11h0l.06-.1.06-.11.07-.11L32.31,4l.07-.1h0l.07-.11.06-.1h0l.07-.1.08-.1.07-.1.07-.1.08-.1h0l.08-.1L33,3l.08-.09.08-.1h0l.08-.09.09-.09.08-.1.09-.09.09-.09.09-.09.09-.08.09-.09L34,2l.09-.08.1-.08.09-.08.1-.08.1-.08.1-.07.1-.08h0l.09-.07.1-.07.1-.07.1-.06.1-.07h0L35.28,1l.1-.06.1-.06h0l.1-.06.11,0,.1-.06h0l.1-.05.11,0,.1,0,.11,0h0l.11,0h0l.1,0h0l.11,0,.11,0h0l.1,0h0l.11,0,.11,0h0l.11,0h0l.11,0h0l.11,0,.1,0,.12,0,.11,0,.11,0h0l.11,0h0l.11,0h1.7l.11,0h.12l.12,0,.11,0,.12,0,.11,0,.12,0,.12,0,.11,0,.12,0,.12,0,4.71,1.35,14.65,4.2,2.84.82L78.19,11c3.64,1,6.12,4.68,6.12,9V66.82c0,4.31-2.48,8-6.12,9L60.29,81l-14.65,4.2-4.71,1.36A7.08,7.08,0,0,1,34,84.82,9.53,9.53,0,0,1,30.89,77.51Z"/><polyline class="cls-4" points="72.84 65.42 72.84 21.38 64.55 21.38 64.55 67.8"/><polygon class="cls-4" points="61.75 68.61 61.75 32.51 53.45 32.51 53.45 70.99 57.1 69.94 61.75 68.61"/><polygon class="cls-4" points="50.65 71.79 50.65 44.8 42.35 44.8 42.35 74.17 50.65 71.79"/><path class="cls-5" d="M115.17,5.46H132V62.21a5.43,5.43,0,0,0,1.54,4.17,6.19,6.19,0,0,0,4.4,1.44h26.51l.78,12.65q-7.82.87-16.34,1t-17,.16h0q-8.25,0-12.49-4.44a15.89,15.89,0,0,1-4.21-11.39h0Z"/><path class="cls-5" d="M204.46,25.58h0A32.17,32.17,0,0,1,216,27.41a13.69,13.69,0,0,1,7.19,6.14q2.48,4.35,2.48,11.94h0V81.34h-13l-2.32-11.77-1.1-1.65V45.37c0-2.56-.6-4.43-1.81-5.59S204,38,200.61,38h0c-2.79,0-6.28.09-10.45.27s-8.47.42-12.87.71h0l-1.54-10.77q4-.78,9.12-1.33T195.23,26Q200.38,25.58,204.46,25.58Z"/><path class="cls-5" d="M189.61,47.91H219L218.87,57l-24.19.12c-2,0-3.4.47-4.24,1.42a5.63,5.63,0,0,0-1.26,3.85h0v2.65a5.57,5.57,0,0,0,1.53,4.22q1.54,1.48,4.95,1.49h0a18.26,18.26,0,0,0,6.21-1.21,30.56,30.56,0,0,0,6.65-3.4A28.53,28.53,0,0,0,214.36,61h0v7a44.24,44.24,0,0,1-2.91,4.12A29.84,29.84,0,0,1,199.63,81a23.37,23.37,0,0,1-9,1.65h0a21.77,21.77,0,0,1-8.91-1.76,14.45,14.45,0,0,1-6.26-5.18,14.77,14.77,0,0,1-2.31-8.46h0V61.66q0-6.48,4.4-10.13t12.09-3.62Z"/><rect class="cls-5" x="234.95" y="5.46" width="16.73" height="75.88"/><rect class="cls-5" x="352.51" y="5.46" width="16.84" height="75.88"/><rect class="cls-5" x="329.76" y="5.46" width="62.46" height="13.2"/><path class="cls-5" d="M292.83,5.33h0A52.71,52.71,0,0,1,308,7.22a20.84,20.84,0,0,1,10,6.26,27.69,27.69,0,0,1,5.51,11.88,84.23,84.23,0,0,1,1.75,18.75h0a84.2,84.2,0,0,1-1.75,18.74A27.58,27.58,0,0,1,318,74.73,20.84,20.84,0,0,1,308,81a52.71,52.71,0,0,1-15.18,1.89h0A52.9,52.9,0,0,1,277.65,81a21.19,21.19,0,0,1-10.06-6.26A26.93,26.93,0,0,1,262,62.85a84.2,84.2,0,0,1-1.75-18.74h0A84.23,84.23,0,0,1,262,25.36a27,27,0,0,1,5.55-11.88,21.19,21.19,0,0,1,10.06-6.26A52.9,52.9,0,0,1,292.83,5.33Zm0,13.08h0c-3.85,0-6.86.75-9,2.25s-3.66,4.12-4.58,7.83a69.22,69.22,0,0,0-1.36,15.62h0a68.91,68.91,0,0,0,1.36,15.54q1.38,5.64,4.58,7.9c2.15,1.5,5.16,2.25,9,2.25h0q5.69,0,8.9-2.25t4.6-7.9a68.91,68.91,0,0,0,1.36-15.54h0a69.22,69.22,0,0,0-1.36-15.62q-1.36-5.56-4.6-7.83T292.83,18.41Z"/></svg>