<svg xmlns="http://www.w3.org/2000/svg" viewBox="0 0 512 512" id="bugs-scanner"><g data-name="Bugs Scanner"><path fill="#e9e9ee" d="M321.2 142.93a24.07 24.07 0 1 0-33.39-32.28m-63.62 0a24.07 24.07 0 1 0-33.39 32.28"></path><path fill="#3d405b" d="M463.64 361.06v92a6.82 6.82 0 0 1-6.83 6.82h-91.3a18 18 0 0 0-18 18 17.21 17.21 0 0 0 18 16.37h109.83A22.67 22.67 0 0 0 498 471.59V361.06a17.18 17.18 0 1 0-34.36 0M14 361.75v109.84a22.66 22.66 0 0 0 22.66 22.66h109.83a18 18 0 0 0 18-18 17.21 17.21 0 0 0-18-16.37h-91.3a6.82 6.82 0 0 1-6.83-6.82v-91.31a18 18 0 0 0-18-18 17.2 17.2 0 0 0-16.36 18m333.51-333.5a17.2 17.2 0 0 0 18 16.36h91.3a6.83 6.83 0 0 1 6.83 6.82v91.31a18 18 0 0 0 18 18 17.21 17.21 0 0 0 16.37-18V32.91a22.66 22.66 0 0 0-22.66-22.66H365.51a18 18 0 0 0-18 18m-310.85-18A22.65 22.65 0 0 0 14 32.91v109.83a18 18 0 0 0 18 18 17.2 17.2 0 0 0 16.36-18V51.43a6.83 6.83 0 0 1 6.83-6.82h91.3a18 18 0 0 0 18-18 17.2 17.2 0 0 0-18-16.36zM255.83 103c-42.46.1-77 38.68-77.62 86.69h155.58C333.17 141.57 298.52 103 256 103z"></path><path fill="#373952" d="m348.77 352.92 25.52 14.73v16.16a15 15 0 0 0 30 0V359a15 15 0 0 0-7.5-13l-33.19-19.16a14.82 14.82 0 0 0-1.54-.78m-212.12 0a14.82 14.82 0 0 0-1.54.78L115.21 346a15 15 0 0 0-7.5 13v24.82a15 15 0 0 0 30 0v-16.17l25.52-14.73m205.42-51.74a15 15 0 0 0 4.05.55h55.87a15 15 0 0 0 0-30H372.7a15.57 15.57 0 0 0-2.05.14m-229.3 0a15.57 15.57 0 0 0-2-.14H83.43a15 15 0 0 0 0 30h55.87a15 15 0 0 0 4-.55M368 248.62a15 15 0 0 0 8.23-2l33.19-19.16a15 15 0 0 0 7.5-13v-24.81a15 15 0 0 0-30 0v16.17l-25.69 14.83a15.28 15.28 0 0 0-1.37.89m-207.75 0a15.28 15.28 0 0 0-1.37-.89l-25.69-14.83v-16.17a15 15 0 0 0-30 0v24.83a15 15 0 0 0 7.5 13l33.19 19.16a15 15 0 0 0 8.23 2M255.83 103a68.51 68.51 0 0 0-15.21 1.74c35.89 8.18 61.87 43.56 62.41 85h30.76C333.17 141.57 298.52 103 256 103z"></path><path fill="#303148" d="M110.05 174.65a15 15 0 0 0-9 3 15 15 0 0 1 6 12V195a18.83 18.83 0 0 0 9.41 16.31l4.76 2.75a18.8 18.8 0 0 1 8.62 21.72l-1.91 6.37 7.84 4.53a15 15 0 0 0 8.23 2l8.14-27.08a15.28 15.28 0 0 0-1.37-.89l-25.69-14.83v-16.23a15 15 0 0 0-15-15m291.9 0a15 15 0 0 0-9 3 15 15 0 0 1 6 12v24.82a15 15 0 0 1-7.5 13l-25.41 14.63 2 6.52a15 15 0 0 0 8.23-2l33.19-19.16a15 15 0 0 0 7.5-13v-24.8a15 15 0 0 0-15-15m-280.72 97.07a15.57 15.57 0 0 1 2 .14l2 29.31a15 15 0 0 1-4 .55h18a15 15 0 0 0 4-.55l-2-29.31a15.57 15.57 0 0 0-2-.14Zm289.27 0a15 15 0 0 1 0 30h18a15 15 0 0 0 0-30Zm-260.6 54.33a17 17 0 0 0-1.54.77l-12.53 7.24 3.2 6.46a14.74 14.74 0 0 1-5.85 19.3l-6.17 3.56a14.75 14.75 0 0 0-7.37 12.77v7.65a15 15 0 0 1-6 12 15.06 15.06 0 0 0 14.36 2 15.27 15.27 0 0 0 9.66-14.39v-15.8l25.52-14.73Zm212.12 0-4 8 20.7 11.94a15 15 0 0 1 7.5 13v24.82a15 15 0 0 1-6 12 15 15 0 0 0 24-12V359a15 15 0 0 0-7.5-13l-33.16-19.17a17 17 0 0 0-1.54-.77"></path><path fill="#373952" d="M363.87 494.25h1.64zm-216.51-34.39h-19.45a17.21 17.21 0 0 1 16.37 16.37 18 18 0 0 1-18 18h20.21a18 18 0 0 0 18-18 17.2 17.2 0 0 0-17.13-16.39m333.33-116.08a17.08 17.08 0 0 0-10 3.32 17.32 17.32 0 0 1 7.12 14v110.51a22.67 22.67 0 0 1-22.66 22.66h20.21A22.67 22.67 0 0 0 498 471.59V361.06a17.3 17.3 0 0 0-17.31-17.3m-450.53.01h.2a18 18 0 0 1 18 18v91.31a6.82 6.82 0 0 0 6.83 6.82h-7.43a20.22 20.22 0 0 1-19.61-20.21v-77.94a18 18 0 0 0-7.36-14.52 17.28 17.28 0 0 1 8.76-3.42h.61zM363.87 44.61a15 15 0 0 0 1.64 0zm-315.51 0a20.21 20.21 0 0 0-20.21 20.22v77.91a17.2 17.2 0 0 1-6.79 14.52A18 18 0 0 0 32 160.74a17.2 17.2 0 0 0 16.36-18V51.43a6.82 6.82 0 0 1 6.83-6.82h-6.83zm406.76-34.36a22.65 22.65 0 0 1 22.66 22.66v109.83a17.19 17.19 0 0 1-6.78 14.52 18 18 0 0 0 10.63 3.48 17.21 17.21 0 0 0 16.37-18V32.91a22.66 22.66 0 0 0-22.66-22.66zm-307.76-.02h-19.45a17.2 17.2 0 0 1 16.37 16.36 18 18 0 0 1-18 18h20.21a18 18 0 0 0 18-18 17.19 17.19 0 0 0-17.13-16.38"></path><path fill="#e54857" d="M181.52 184.28a25.07 25.07 0 0 0-21.15 11.61 145.87 145.87 0 0 0-21.94 77.48c0 73.43 52.64 133 117.57 133s117.57-59.57 117.57-132.99a145.15 145.15 0 0 0-22-77.44 25 25 0 0 0-21.09-11.57c-32.27-.09-116.69-.09-148.96-.09Z"></path><path fill="#db4056" d="M233.49 184.28v217c1.68.75 3.38 1.41 5.09 2-1.3.32-2.6.62-3.91.89a104.3 104.3 0 0 0 21.33 2.16h.92q1.23 0 2.46-.06c63.59-2.07 114.19-61 114.19-132.89a145.16 145.16 0 0 0-22-77.45 25 25 0 0 0-21.09-11.57c-12.57-.08-29.87-.08-29.87-.08 19.51 24.43 30.31 56.18 30.31 89.1 0 53.3-28.16 101.45-71.54 122.33V184.28Z"></path><path fill="#c7384c" d="M248.31 406.05V184.28h15.38v221.77c-2.54.18-5.11.28-7.69.28s-5.15-.1-7.69-.28Z"></path><path fill="#f9f183" d="M199.87 231.81a13.43 13.43 0 1 1-13.43 13.42 13.42 13.42 0 0 1 13.43-13.42m108.04 69.31a15.55 15.55 0 1 1-15.55 15.54 15.54 15.54 0 0 1 15.55-15.54"></path></g></svg>